<?xml version="1.0" encoding="utf-8"?>
<!-- Generator: Adobe Illustrator 19.2.1, SVG Export Plug-In . SVG Version: 6.00 Build 0)  -->
<svg version="1.1" id="Layer_1" xmlns="http://www.w3.org/2000/svg" xmlns:xlink="http://www.w3.org/1999/xlink" x="0px" y="0px"
	 viewBox="0 0 780 240" style="enable-background:new 0 0 780 240;" xml:space="preserve">
<style type="text/css">
	.st0{fill:#29ABE2;}
	.st1{fill:#85C441;}
	.st2{fill:#00AEEF;}
	.st3{fill:#636C78;}
	.st4{fill:#F2F2F2;}
	.st5{fill:#CCCCCC;}
	.st6{fill:#94DA2C;}
	.st7{fill:#E6E6E6;}
	.st8{fill:#474D56;}
	.st9{fill:#393E45;}
	.st10{fill:#2FA9E9;}
	.st11{fill:#E8E8E8;}
	.st12{fill:#7DD72C;}
	.st13{fill:none;stroke:#7DD72C;stroke-width:0.25;stroke-miterlimit:10;stroke-dasharray:8.7309;}
	.st14{fill:none;stroke:#CCCCCC;stroke-width:0.25;stroke-miterlimit:10;}
	.st15{fill:none;stroke:#808080;stroke-width:0.25;stroke-miterlimit:10;}
	.st16{fill:#808080;}
	.st17{fill:#78848C;}
	.st18{fill:#474747;}
	.st19{fill:#FFFFFF;}
	.st20{fill:#999999;}
</style>
<rect x="189.7" y="202.3" class="st0" width="7.9" height="7.9"/>
<rect x="332.7" y="182.3" class="st0" width="7.9" height="7.9"/>
<rect x="472.7" y="122.3" class="st0" width="7.9" height="7.9"/>
<rect x="613.7" y="159.3" class="st0" width="7.9" height="7.9"/>
<rect x="190.5" y="140.3" class="st1" width="7.9" height="7.9"/>
<rect x="331.3" y="140.3" class="st1" width="7.9" height="7.9"/>
<rect x="472.1" y="140.3" class="st1" width="7.9" height="7.9"/>
<rect x="612.9" y="140.3" class="st1" width="7.9" height="7.9"/>
<rect x="632.2" y="32" class="st2" width="10.6" height="1.5"/>
<polygon class="st3" points="737.3,240 51.3,240 51.2,73.3 737.4,73.3 "/>
<polygon class="st4" points="737.5,27.8 50.9,27.9 51.1,73.5 737.3,73.7 "/>
<polygon class="st4" points="146.7,3.2 51.1,3.1 50.9,27.9 146.9,27.7 "/>
<polygon class="st5" points="245.8,3 149.9,3.2 150,27.8 245.6,27.9 "/>
<polygon class="st6" points="267.9,3.1 248.1,3 248.1,28 267.6,28 "/>
<polygon class="st6" points="639.9,43.5 544.3,43.4 544.1,73.7 640.1,73.5 "/>
<polygon class="st7" points="681,42.9 648.3,43 648,66.4 680.9,66.5 "/>
<polygon class="st7" points="723.4,43 690.7,43.1 690.7,66.2 723.2,66.6 "/>
<polygon class="st8" points="276.4,240.1 62.2,240.2 62,85.4 276.4,85.4 "/>
<polygon class="st9" points="258.8,102.2 275.8,102 275.4,85.4 258.9,85.3 "/>
<polygon class="st9" points="240.7,101.9 257.3,102 257.3,85.2 240.4,85.4 "/>
<path class="st10" d="M121.4,186.9c-0.2,0.5-0.2,0.5-0.1,1.3l14.9,0c-0.2-7.6,2.6-14.7,7.1-20.3c-3.8-3.3-7.9-6.8-12.1-9.8
	C125.3,165.9,121.3,176,121.4,186.9z"/>
<path class="st11" d="M168.6,139.7c-14.9,0-28.5,7.1-37.1,18c4.2,3,8.3,6.5,12.1,9.8c5.7-7.3,15.1-11.9,25.2-12
	c18,0,32.4,14.5,32.7,32.3l14.9,0c-0.1-0.7-0.1-0.7,0.1-1.3C215.8,161,195,139.6,168.6,139.7z"/>
<polygon class="st12" points="130.9,157.9 127.8,153.9 126,159.8 "/>
<g>
	<line class="st13" x1="144.2" y1="169.4" x2="165.8" y2="184.8"/>
</g>
<path class="st11" d="M168,175.1c-7.1-0.1-12.7,5.9-13.2,13l25.8,0C181,181,175.1,175.2,168,175.1z"/>
<polygon class="st8" points="501.1,240 286.7,239.9 286.7,85.5 501.5,85.3 "/>
<polygon class="st9" points="484.7,101.8 501.2,102 501.5,85.3 484.6,85.5 "/>
<polygon class="st9" points="466.2,101.9 482.8,102 483,85.3 466.1,85.6 "/>
<polygon class="st10" points="398.2,184.1 383.3,184.1 383.2,177.2 398.1,177.2 "/>
<polygon class="st12" points="398,191.4 383.1,191.4 383.3,184.1 398.2,184.1 "/>
<polygon class="st12" points="465.5,191.6 450.6,191.6 450.6,184.1 465.5,184.1 "/>
<polygon class="st10" points="327.8,223.7 318.6,223.8 318.7,214.4 327.5,214.6 "/>
<polygon class="st12" points="407.6,223.8 398.2,223.8 398.5,214.6 407.7,214.4 "/>
<line class="st14" x1="313.1" y1="191.7" x2="473.5" y2="191.7"/>
<line class="st14" x1="313.1" y1="191.7" x2="313.2" y2="197.9"/>
<line class="st14" x1="473.5" y1="191.7" x2="473.6" y2="197.9"/>
<line class="st15" x1="313.3" y1="170.9" x2="473.6" y2="170.9"/>
<line class="st15" x1="313" y1="150.3" x2="473.4" y2="150.3"/>
<polygon class="st10" points="331.3,166.2 316.5,166.2 316.4,140.4 331.3,140.4 "/>
<polygon class="st12" points="331.2,191.8 316.5,191.9 316.2,166 331.1,166 "/>
<polygon class="st10" points="364.8,180.3 350.3,179.9 350,155.9 364.9,155.9 "/>
<polygon class="st12" points="365,191.6 350.1,191.6 350.1,178.7 365,178.7 "/>
<polygon class="st10" points="431.6,167 416.9,167.2 416.7,154.1 431.6,154.1 "/>
<polygon class="st12" points="431.4,191.8 416.7,192 416.8,165.7 431.7,165.7 "/>
<polygon class="st10" points="465.5,184.1 450.6,184.1 450.5,142 465.4,142 "/>
<g>
	<path class="st16" d="M305.6,168.9l-1.7-0.1l-0.1,1.3c0,0,0,0,0.6-0.1c0.2,0.2,0.8,0.1,1.1,0.2c0.2,0.2,0.7,0.6,0.7,1.3
		c0.1,0.7-0.5,1.6-2,1.7c-0.6,0.1-1.1-0.2-1.1-0.2l0.2-0.5c0.2,0.2,0.5,0.4,1.1,0.2c0.6-0.1,1.2-0.3,1.2-1c-0.1-0.7-0.5-1.1-1.4-1.2
		c-0.2-0.2-0.6,0.1-0.6,0.1l-0.2-2.2l2.3,0L305.6,168.9z"/>
	<path class="st16" d="M309.9,170.7c0.1,1.5-0.8,2.7-1.7,2.6c-0.8-0.1-1.7-0.8-1.5-2.6c-0.1-1.5,0.8-2.7,1.7-2.6
		C309.5,168.3,309.8,169.2,309.9,170.7z M307.2,171c-0.1,1.3,0.6,1.9,0.8,2c0.6-0.1,0.8-0.7,0.9-1.9c0.1-1.3-0.2-2.2-0.8-2
		C307.7,168.7,307.1,169.6,307.2,171z"/>
</g>
<g>
	<path class="st16" d="M300.1,148.6L300.1,148.6l-1,0.5l-0.1-0.7l1-0.5l0.6-0.1l0,4.7l-0.6,0.1L300.1,148.6z"/>
	<path class="st16" d="M305.7,150.1c0.1,1.5-0.8,2.7-1.7,2.6s-1.7-0.8-1.5-2.6c-0.1-1.5,0.8-2.7,1.7-2.6
		C305.3,147.7,305.8,148.8,305.7,150.1z M303,150.4c-0.1,1.3,0.6,1.9,0.8,2c0.6-0.1,0.8-0.7,0.9-1.9c0.1-1.3-0.2-2.2-0.8-2
		C303.7,148.3,303.1,149.2,303,150.4z"/>
	<path class="st16" d="M309.7,150.1c0.1,1.5-0.8,2.7-1.7,2.6s-1.7-0.8-1.5-2.6c-0.1-1.5,0.8-2.7,1.7-2.6
		C309,147.6,309.6,148.7,309.7,150.1z M306.8,150.3c-0.1,1.3,0.6,1.9,0.8,2c0.6-0.1,0.8-0.7,0.9-1.9c0.1-1.3-0.2-2.2-0.8-2
		C307.4,148.2,306.9,149.1,306.8,150.3z"/>
</g>
<polygon class="st8" points="726.9,240 512.4,239.9 512.4,85.2 726.9,85.3 "/>
<polygon class="st9" points="710,101.9 726.6,102 726.9,85.3 709.9,85.5 "/>
<polygon class="st9" points="691.7,102.1 708.3,102.3 708.4,85.4 691.8,85.3 "/>
<g>
	<path class="st17" d="M615.4,197.6c-20.6-0.2-37.4-16.9-37.5-37.2s16.8-37.6,37.4-37.4c20.6,0.2,37.4,16.9,37.5,37.2
		C652.6,181.1,636,197.8,615.4,197.6z"/>
	<path class="st10" d="M652.8,160.2c-0.2-20.5-16.7-37.5-37.5-37.2l0.2,37.4L652.8,160.2z"/>
	<path class="st12" d="M615.4,197.6c20.6,0.2,37.2-16.6,37.4-37.4l-37.5,0L615.4,197.6z"/>
</g>
<g>
	<path d="M65.9,13.1c0.5-0.1,1.2-0.2,2-0.2c1,0,1.8,0.2,2.3,0.7c0.4,0.4,0.7,1,0.7,1.7c0,0.7-0.2,1.3-0.6,1.7
		c-0.6,0.6-1.5,0.9-2.5,0.9c-0.3,0-0.6,0-0.8-0.1v3.2h-1V13.1z M66.9,17c0.2,0.1,0.5,0.1,0.9,0.1c1.3,0,2-0.6,2-1.7
		c0-1.1-0.8-1.6-1.9-1.6c-0.5,0-0.8,0-1,0.1V17z"/>
	<path d="M72.5,18.4c0,1.4,0.9,2,2,2c0.8,0,1.2-0.1,1.6-0.3l0.2,0.8c-0.4,0.2-1,0.4-1.9,0.4c-1.8,0-2.9-1.2-2.9-2.9
		c0-1.8,1-3.1,2.7-3.1c1.9,0,2.4,1.7,2.4,2.7c0,0.2,0,0.4,0,0.5H72.5z M75.6,17.7c0-0.7-0.3-1.7-1.5-1.7c-1.1,0-1.5,1-1.6,1.7H75.6z
		"/>
	<path d="M78,17.1c0-0.7,0-1.3,0-1.8h0.9l0,1.1h0c0.3-0.8,0.9-1.3,1.6-1.3c0.1,0,0.2,0,0.3,0v1c-0.1,0-0.2,0-0.4,0
		c-0.7,0-1.3,0.6-1.4,1.4c0,0.1,0,0.3,0,0.5v3.1h-1V17.1z"/>
	<path d="M82.3,21.1v-5h-0.8v-0.8h0.8V15c0-0.8,0.2-1.6,0.7-2c0.4-0.4,0.9-0.5,1.4-0.5c0.4,0,0.7,0.1,0.9,0.2l-0.1,0.8
		c-0.2-0.1-0.4-0.1-0.7-0.1c-0.9,0-1.1,0.8-1.1,1.7v0.3h1.4v0.8h-1.4v5H82.3z"/>
	<path d="M90.8,18.2c0,2.1-1.5,3.1-2.9,3.1c-1.6,0-2.8-1.2-2.8-3c0-1.9,1.3-3.1,2.9-3.1C89.7,15.2,90.8,16.4,90.8,18.2z M86.2,18.2
		c0,1.3,0.7,2.2,1.8,2.2c1,0,1.8-0.9,1.8-2.3c0-1-0.5-2.2-1.7-2.2C86.8,16,86.2,17.1,86.2,18.2z"/>
	<path d="M92.2,17.1c0-0.7,0-1.3,0-1.8H93l0,1.1h0c0.3-0.8,0.9-1.3,1.6-1.3c0.1,0,0.2,0,0.3,0v1c-0.1,0-0.2,0-0.4,0
		c-0.7,0-1.3,0.6-1.4,1.4c0,0.1,0,0.3,0,0.5v3.1h-1V17.1z"/>
	<path d="M96.1,16.9c0-0.6,0-1.1,0-1.6H97l0,0.9h0c0.3-0.6,0.9-1.1,1.8-1.1c0.8,0,1.4,0.5,1.6,1.2h0c0.2-0.3,0.4-0.6,0.6-0.8
		c0.3-0.3,0.7-0.4,1.3-0.4c0.8,0,1.9,0.5,1.9,2.5v3.4h-1v-3.3c0-1.1-0.4-1.8-1.3-1.8c-0.6,0-1.1,0.4-1.2,1c0,0.1-0.1,0.3-0.1,0.5
		v3.6h-1v-3.5c0-0.9-0.4-1.6-1.2-1.6c-0.7,0-1.1,0.5-1.3,1.1c-0.1,0.2-0.1,0.3-0.1,0.5v3.5h-1V16.9z"/>
	<path d="M109.4,21.1l-0.1-0.7h0c-0.3,0.5-0.9,0.9-1.8,0.9c-1.2,0-1.8-0.8-1.8-1.7c0-1.4,1.2-2.2,3.5-2.2v-0.1
		c0-0.5-0.1-1.3-1.3-1.3c-0.5,0-1.1,0.2-1.5,0.4l-0.2-0.7c0.5-0.3,1.2-0.5,1.9-0.5c1.8,0,2.2,1.2,2.2,2.4v2.2c0,0.5,0,1,0.1,1.4
		H109.4z M109.2,18.2c-1.2,0-2.5,0.2-2.5,1.3c0,0.7,0.5,1,1,1c0.8,0,1.2-0.5,1.4-1c0-0.1,0.1-0.2,0.1-0.3V18.2z"/>
	<path d="M111.9,16.9c0-0.6,0-1.1,0-1.6h0.9l0.1,1h0c0.3-0.6,1-1.1,1.9-1.1c0.8,0,2.1,0.5,2.1,2.5v3.5h-1.1v-3.3
		c0-0.9-0.3-1.7-1.3-1.7c-0.7,0-1.2,0.5-1.4,1.1c0,0.1-0.1,0.3-0.1,0.5v3.5h-1.1V16.9z"/>
	<path d="M122.7,20.9c-0.3,0.1-0.9,0.3-1.7,0.3c-1.8,0-2.9-1.2-2.9-3c0-1.8,1.2-3.1,3.1-3.1c0.6,0,1.2,0.2,1.5,0.3l-0.2,0.8
		c-0.3-0.1-0.6-0.3-1.2-0.3c-1.3,0-2.1,1-2.1,2.2c0,1.3,0.9,2.2,2,2.2c0.6,0,1-0.2,1.3-0.3L122.7,20.9z"/>
	<path d="M124.5,18.4c0,1.4,0.9,2,2,2c0.8,0,1.2-0.1,1.6-0.3l0.2,0.8c-0.4,0.2-1,0.4-1.9,0.4c-1.8,0-2.9-1.2-2.9-2.9
		c0-1.8,1-3.1,2.7-3.1c1.9,0,2.4,1.7,2.4,2.7c0,0.2,0,0.4,0,0.5H124.5z M127.6,17.7c0-0.7-0.3-1.7-1.5-1.7c-1.1,0-1.5,1-1.6,1.7
		H127.6z"/>
</g>
<g>
	<path class="st18" d="M184.8,14.2c0,2.8-1.7,4.3-3.8,4.3c-2.1,0-3.6-1.7-3.6-4.1c0-2.6,1.6-4.2,3.8-4.2
		C183.4,10.1,184.8,11.8,184.8,14.2z M178.6,14.3c0,1.7,0.9,3.3,2.6,3.3c1.7,0,2.6-1.5,2.6-3.4c0-1.6-0.8-3.3-2.6-3.3
		C179.4,10.9,178.6,12.5,178.6,14.3z"/>
	<path class="st18" d="M186.7,12.5l1.1,3.3c0.2,0.5,0.3,1,0.5,1.5h0c0.1-0.5,0.3-1,0.5-1.5l1.1-3.3h1.1l-2.3,5.8h-1l-2.2-5.8H186.7z
		"/>
	<path class="st18" d="M192.6,15.6c0,1.4,0.9,2,2,2c0.8,0,1.2-0.1,1.6-0.3l0.2,0.8c-0.4,0.2-1,0.4-1.9,0.4c-1.8,0-2.9-1.2-2.9-2.9
		c0-1.8,1-3.1,2.7-3.1c1.9,0,2.4,1.7,2.4,2.7c0,0.2,0,0.4,0,0.5H192.6z M195.7,14.8c0-0.7-0.3-1.7-1.5-1.7c-1.1,0-1.5,1-1.6,1.7
		H195.7z"/>
	<path class="st18" d="M198,14.3c0-0.7,0-1.3,0-1.8h0.9l0,1.1h0c0.3-0.8,0.9-1.3,1.6-1.3c0.1,0,0.2,0,0.3,0v1c-0.1,0-0.2,0-0.4,0
		c-0.7,0-1.3,0.6-1.4,1.4c0,0.1,0,0.3,0,0.5v3.1h-1V14.3z"/>
	<path class="st18" d="M202.6,12.5l1.1,3.3c0.2,0.5,0.3,1,0.5,1.5h0c0.1-0.5,0.3-1,0.5-1.5l1.1-3.3h1.1l-2.3,5.8h-1l-2.2-5.8H202.6z
		"/>
	<path class="st18" d="M209.2,10.9c0,0.4-0.3,0.6-0.7,0.6c-0.4,0-0.6-0.3-0.6-0.6c0-0.4,0.3-0.7,0.7-0.7
		C208.9,10.2,209.2,10.5,209.2,10.9z M208,18.3v-5.8h1.1v5.8H208z"/>
	<path class="st18" d="M211.4,15.6c0,1.4,0.9,2,2,2c0.8,0,1.2-0.1,1.6-0.3l0.2,0.8c-0.4,0.2-1,0.4-1.9,0.4c-1.8,0-2.9-1.2-2.9-2.9
		c0-1.8,1-3.1,2.7-3.1c1.9,0,2.4,1.7,2.4,2.7c0,0.2,0,0.4,0,0.5H211.4z M214.5,14.8c0-0.7-0.3-1.7-1.5-1.7c-1.1,0-1.5,1-1.6,1.7
		H214.5z"/>
	<path class="st18" d="M217.2,12.5l0.8,3c0.2,0.6,0.3,1.2,0.4,1.8h0c0.1-0.6,0.3-1.2,0.5-1.8l0.9-3h0.9l0.9,2.9
		c0.2,0.7,0.4,1.3,0.5,1.9h0c0.1-0.6,0.3-1.2,0.4-1.9l0.8-2.9h1l-1.9,5.8h-1l-0.9-2.8c-0.2-0.6-0.4-1.2-0.5-1.9h0
		c-0.1,0.7-0.3,1.3-0.5,1.9l-0.9,2.8h-1l-1.8-5.8H217.2z"/>
</g>
<g>
	<path class="st18" d="M80.1,50.3h-1.8v-0.7h4.5v0.7h-1.9v5.4h-0.8V50.3z"/>
	<path class="st18" d="M83.3,49.3h0.8V52h0c0.1-0.2,0.3-0.4,0.6-0.6c0.2-0.1,0.5-0.2,0.8-0.2c0.6,0,1.5,0.4,1.5,1.9v2.6h-0.8v-2.5
		c0-0.7-0.3-1.3-1-1.3c-0.5,0-0.9,0.4-1.1,0.8c0,0.1-0.1,0.2-0.1,0.4v2.6h-0.8V49.3z"/>
	<path class="st18" d="M89.2,50.1c0,0.3-0.2,0.5-0.5,0.5c-0.3,0-0.5-0.2-0.5-0.5c0-0.3,0.2-0.5,0.5-0.5C89,49.6,89.2,49.8,89.2,50.1
		z M88.3,55.7v-4.4h0.8v4.4H88.3z"/>
	<path class="st18" d="M90.3,54.9c0.2,0.2,0.6,0.3,1,0.3c0.6,0,0.8-0.3,0.8-0.6c0-0.4-0.2-0.6-0.8-0.8c-0.8-0.3-1.2-0.7-1.2-1.2
		c0-0.7,0.6-1.3,1.5-1.3c0.4,0,0.8,0.1,1.1,0.3l-0.2,0.6c-0.2-0.1-0.5-0.3-0.9-0.3c-0.5,0-0.7,0.3-0.7,0.6c0,0.4,0.3,0.5,0.8,0.7
		c0.8,0.3,1.1,0.7,1.1,1.3c0,0.8-0.6,1.3-1.6,1.3c-0.5,0-0.9-0.1-1.2-0.3L90.3,54.9z"/>
	<path class="st18" d="M95.9,49.7c0.5-0.1,1-0.1,1.7-0.1c1.1,0,1.9,0.3,2.5,0.8c0.5,0.5,0.9,1.2,0.9,2.2c0,1-0.3,1.8-0.9,2.4
		c-0.6,0.6-1.5,0.9-2.7,0.9c-0.6,0-1,0-1.4-0.1V49.7z M96.7,55.1c0.2,0,0.5,0,0.8,0c1.7,0,2.6-0.9,2.6-2.6c0-1.4-0.8-2.3-2.5-2.3
		c-0.4,0-0.7,0-0.9,0.1V55.1z"/>
	<path class="st18" d="M104.3,55.7l-0.1-0.5h0c-0.2,0.3-0.7,0.6-1.3,0.6c-0.9,0-1.3-0.6-1.3-1.3c0-1.1,0.9-1.6,2.6-1.6v-0.1
		c0-0.4-0.1-1-1-1c-0.4,0-0.8,0.1-1.1,0.3l-0.2-0.5c0.4-0.2,0.9-0.4,1.4-0.4c1.3,0,1.7,0.9,1.7,1.8v1.6c0,0.4,0,0.7,0.1,1H104.3z
		 M104.2,53.5c-0.9,0-1.8,0.1-1.8,1c0,0.5,0.3,0.8,0.7,0.8c0.6,0,0.9-0.4,1.1-0.7c0-0.1,0-0.2,0-0.3V53.5z"/>
	<path class="st18" d="M106.1,54.9c0.2,0.2,0.6,0.3,1,0.3c0.6,0,0.8-0.3,0.8-0.6c0-0.4-0.2-0.6-0.8-0.8c-0.8-0.3-1.2-0.7-1.2-1.2
		c0-0.7,0.6-1.3,1.5-1.3c0.4,0,0.8,0.1,1.1,0.3l-0.2,0.6c-0.2-0.1-0.5-0.3-0.9-0.3c-0.5,0-0.7,0.3-0.7,0.6c0,0.4,0.3,0.5,0.8,0.7
		c0.8,0.3,1.1,0.7,1.1,1.3c0,0.8-0.6,1.3-1.6,1.3c-0.5,0-0.9-0.1-1.2-0.3L106.1,54.9z"/>
	<path class="st18" d="M109.8,49.3h0.8V52h0c0.1-0.2,0.3-0.4,0.6-0.6c0.2-0.1,0.5-0.2,0.8-0.2c0.6,0,1.5,0.4,1.5,1.9v2.6h-0.8v-2.5
		c0-0.7-0.3-1.3-1-1.3c-0.5,0-0.9,0.4-1.1,0.8c0,0.1-0.1,0.2-0.1,0.4v2.6h-0.8V49.3z"/>
	<path class="st18" d="M114.8,55.7c0-0.3,0-0.7,0-1.1v-5.3h0.8V52h0c0.3-0.5,0.8-0.8,1.5-0.8c1.1,0,1.8,0.9,1.8,2.2
		c0,1.6-1,2.3-2,2.3c-0.6,0-1.1-0.2-1.5-0.8h0l0,0.7H114.8z M115.6,53.9c0,0.1,0,0.2,0,0.3c0.2,0.5,0.6,0.9,1.2,0.9
		c0.8,0,1.3-0.7,1.3-1.7c0-0.9-0.5-1.6-1.3-1.6c-0.5,0-1,0.4-1.2,1c0,0.1,0,0.2,0,0.3V53.9z"/>
	<path class="st18" d="M123.9,53.5c0,1.6-1.1,2.3-2.2,2.3c-1.2,0-2.1-0.9-2.1-2.2c0-1.5,1-2.3,2.2-2.3
		C123,51.2,123.9,52.1,123.9,53.5z M120.4,53.5c0,1,0.5,1.7,1.3,1.7c0.8,0,1.3-0.7,1.3-1.7c0-0.7-0.4-1.7-1.3-1.7
		C120.8,51.8,120.4,52.7,120.4,53.5z"/>
	<path class="st18" d="M127.3,55.7l-0.1-0.5h0c-0.2,0.3-0.7,0.6-1.3,0.6c-0.9,0-1.3-0.6-1.3-1.3c0-1.1,0.9-1.6,2.6-1.6v-0.1
		c0-0.4-0.1-1-1-1c-0.4,0-0.8,0.1-1.1,0.3l-0.2-0.5c0.4-0.2,0.9-0.4,1.4-0.4c1.3,0,1.7,0.9,1.7,1.8v1.6c0,0.4,0,0.7,0.1,1H127.3z
		 M127.2,53.5c-0.9,0-1.8,0.1-1.8,1c0,0.5,0.3,0.8,0.7,0.8c0.6,0,0.9-0.4,1.1-0.7c0-0.1,0-0.2,0-0.3V53.5z"/>
	<path class="st18" d="M129.2,52.7c0-0.5,0-1,0-1.4h0.7l0,0.9h0c0.2-0.6,0.7-1,1.2-1c0.1,0,0.2,0,0.2,0V52c-0.1,0-0.2,0-0.3,0
		c-0.6,0-1,0.4-1.1,1c0,0.1,0,0.2,0,0.4v2.3h-0.8V52.7z"/>
	<path class="st18" d="M135.8,49.3v5.3c0,0.4,0,0.8,0,1.1h-0.7l0-0.8h0c-0.2,0.5-0.8,0.9-1.5,0.9c-1.1,0-1.9-0.9-1.9-2.2
		c0-1.4,0.9-2.3,2-2.3c0.7,0,1.1,0.3,1.3,0.7h0v-2.6H135.8z M135,53.1c0-0.1,0-0.2,0-0.3c-0.1-0.5-0.5-0.9-1.1-0.9
		c-0.8,0-1.3,0.7-1.3,1.7c0,0.9,0.4,1.6,1.3,1.6c0.5,0,1-0.4,1.2-0.9c0-0.1,0-0.2,0-0.3V53.1z"/>
	<path class="st18" d="M139.9,50.1c0,0.3-0.2,0.5-0.5,0.5c-0.3,0-0.5-0.2-0.5-0.5c0-0.3,0.2-0.5,0.5-0.5
		C139.7,49.6,139.9,49.8,139.9,50.1z M139,55.7v-4.4h0.8v4.4H139z"/>
	<path class="st18" d="M141,54.9c0.2,0.2,0.6,0.3,1,0.3c0.6,0,0.8-0.3,0.8-0.6c0-0.4-0.2-0.6-0.8-0.8c-0.8-0.3-1.2-0.7-1.2-1.2
		c0-0.7,0.6-1.3,1.5-1.3c0.4,0,0.8,0.1,1.1,0.3l-0.2,0.6c-0.2-0.1-0.5-0.3-0.9-0.3c-0.5,0-0.7,0.3-0.7,0.6c0,0.4,0.3,0.5,0.8,0.7
		c0.8,0.3,1.1,0.7,1.1,1.3c0,0.8-0.6,1.3-1.6,1.3c-0.5,0-0.9-0.1-1.2-0.3L141,54.9z"/>
	<path class="st18" d="M146.6,55.7c0-0.3,0-0.7,0-1.1v-5.3h0.8V52h0c0.3-0.5,0.8-0.8,1.5-0.8c1.1,0,1.8,0.9,1.8,2.2
		c0,1.6-1,2.3-2,2.3c-0.6,0-1.1-0.2-1.5-0.8h0l0,0.7H146.6z M147.4,53.9c0,0.1,0,0.2,0,0.3c0.2,0.5,0.6,0.9,1.2,0.9
		c0.8,0,1.3-0.7,1.3-1.7c0-0.9-0.5-1.6-1.3-1.6c-0.5,0-1,0.4-1.2,1c0,0.1,0,0.2,0,0.3V53.9z"/>
	<path class="st18" d="M152.2,53.7c0,1.1,0.7,1.5,1.5,1.5c0.6,0,0.9-0.1,1.2-0.2l0.1,0.6c-0.3,0.1-0.8,0.3-1.5,0.3
		c-1.3,0-2.1-0.9-2.1-2.2c0-1.3,0.8-2.4,2-2.4c1.4,0,1.8,1.3,1.8,2.1c0,0.2,0,0.3,0,0.4H152.2z M154.5,53.1c0-0.5-0.2-1.3-1.1-1.3
		c-0.8,0-1.2,0.7-1.2,1.3H154.5z"/>
	<path class="st18" d="M157.1,50.1c0,0.3-0.2,0.5-0.5,0.5c-0.3,0-0.5-0.2-0.5-0.5c0-0.3,0.2-0.5,0.5-0.5
		C156.9,49.6,157.1,49.8,157.1,50.1z M156.3,55.7v-4.4h0.8v4.4H156.3z"/>
	<path class="st18" d="M158.4,52.5c0-0.5,0-0.8,0-1.2h0.7l0,0.7h0c0.2-0.4,0.7-0.8,1.4-0.8c0.6,0,1.5,0.4,1.5,1.9v2.6h-0.8v-2.5
		c0-0.7-0.3-1.3-1-1.3c-0.5,0-0.9,0.4-1.1,0.8c0,0.1-0.1,0.2-0.1,0.4v2.6h-0.8V52.5z"/>
	<path class="st18" d="M167.1,51.3c0,0.3,0,0.7,0,1.2v2.5c0,1-0.2,1.6-0.6,2c-0.4,0.4-1,0.5-1.6,0.5c-0.5,0-1.1-0.1-1.5-0.4l0.2-0.6
		c0.3,0.2,0.7,0.3,1.3,0.3c0.8,0,1.4-0.4,1.4-1.5v-0.5h0c-0.2,0.4-0.7,0.7-1.4,0.7c-1.1,0-1.9-0.9-1.9-2.1c0-1.5,1-2.3,2-2.3
		c0.8,0,1.2,0.4,1.4,0.8h0l0-0.7H167.1z M166.3,53.1c0-0.1,0-0.3,0-0.4c-0.1-0.5-0.5-0.8-1.1-0.8c-0.8,0-1.3,0.6-1.3,1.6
		c0,0.9,0.4,1.6,1.3,1.6c0.5,0,0.9-0.3,1.1-0.8c0-0.1,0.1-0.3,0.1-0.4V53.1z"/>
	<path class="st18" d="M170.2,54.9c0.2,0.2,0.6,0.3,1,0.3c0.6,0,0.8-0.3,0.8-0.6c0-0.4-0.2-0.6-0.8-0.8c-0.8-0.3-1.2-0.7-1.2-1.2
		c0-0.7,0.6-1.3,1.5-1.3c0.4,0,0.8,0.1,1.1,0.3l-0.2,0.6c-0.2-0.1-0.5-0.3-0.9-0.3c-0.5,0-0.7,0.3-0.7,0.6c0,0.4,0.3,0.5,0.8,0.7
		c0.8,0.3,1.1,0.7,1.1,1.3c0,0.8-0.6,1.3-1.6,1.3c-0.5,0-0.9-0.1-1.2-0.3L170.2,54.9z"/>
	<path class="st18" d="M173.9,49.3h0.8V52h0c0.1-0.2,0.3-0.4,0.6-0.6c0.2-0.1,0.5-0.2,0.8-0.2c0.6,0,1.5,0.4,1.5,1.9v2.6h-0.8v-2.5
		c0-0.7-0.3-1.3-1-1.3c-0.5,0-0.9,0.4-1.1,0.8c0,0.1-0.1,0.2-0.1,0.4v2.6h-0.8V49.3z"/>
	<path class="st18" d="M181.3,55.7l-0.1-0.5h0c-0.2,0.3-0.7,0.6-1.3,0.6c-0.9,0-1.3-0.6-1.3-1.3c0-1.1,0.9-1.6,2.6-1.6v-0.1
		c0-0.4-0.1-1-1-1c-0.4,0-0.8,0.1-1.1,0.3l-0.2-0.5c0.4-0.2,0.9-0.4,1.4-0.4c1.3,0,1.7,0.9,1.7,1.8v1.6c0,0.4,0,0.7,0.1,1H181.3z
		 M181.1,53.5c-0.9,0-1.8,0.1-1.8,1c0,0.5,0.3,0.8,0.7,0.8c0.6,0,0.9-0.4,1.1-0.7c0-0.1,0-0.2,0-0.3V53.5z"/>
	<path class="st18" d="M183.2,52.7c0-0.5,0-1,0-1.4h0.7l0,0.9h0c0.2-0.6,0.7-1,1.2-1c0.1,0,0.2,0,0.2,0V52c-0.1,0-0.2,0-0.3,0
		c-0.6,0-1,0.4-1.1,1c0,0.1,0,0.2,0,0.4v2.3h-0.8V52.7z"/>
	<path class="st18" d="M186.5,53.7c0,1.1,0.7,1.5,1.5,1.5c0.6,0,0.9-0.1,1.2-0.2l0.1,0.6c-0.3,0.1-0.8,0.3-1.5,0.3
		c-1.3,0-2.1-0.9-2.1-2.2c0-1.3,0.8-2.4,2-2.4c1.4,0,1.8,1.3,1.8,2.1c0,0.2,0,0.3,0,0.4H186.5z M188.8,53.1c0-0.5-0.2-1.3-1.1-1.3
		c-0.8,0-1.2,0.7-1.2,1.3H188.8z"/>
	<path class="st18" d="M194.3,49.3v5.3c0,0.4,0,0.8,0,1.1h-0.7l0-0.8h0c-0.2,0.5-0.8,0.9-1.5,0.9c-1.1,0-1.9-0.9-1.9-2.2
		c0-1.4,0.9-2.3,2-2.3c0.7,0,1.1,0.3,1.3,0.7h0v-2.6H194.3z M193.5,53.1c0-0.1,0-0.2,0-0.3c-0.1-0.5-0.5-0.9-1.1-0.9
		c-0.8,0-1.3,0.7-1.3,1.7c0,0.9,0.4,1.6,1.3,1.6c0.5,0,1-0.4,1.2-0.9c0-0.1,0-0.2,0-0.3V53.1z"/>
</g>
<g>
	<path class="st16" d="M303.6,97.4L303.6,97.4l-1,0.5l-0.2-0.6l1.3-0.7h0.7v5.9h-0.8V97.4z"/>
	<path class="st16" d="M309.9,96.5h0.8v4.1c0,1.6-0.8,2.1-1.8,2.1c-0.3,0-0.6-0.1-0.8-0.1l0.1-0.6c0.2,0.1,0.4,0.1,0.7,0.1
		c0.7,0,1.1-0.3,1.1-1.5V96.5z"/>
	<path class="st16" d="M314.4,102.6l-0.1-0.5h0c-0.2,0.3-0.7,0.6-1.3,0.6c-0.9,0-1.3-0.6-1.3-1.3c0-1.1,0.9-1.6,2.6-1.6v-0.1
		c0-0.4-0.1-1-1-1c-0.4,0-0.8,0.1-1.1,0.3l-0.2-0.5c0.4-0.2,0.9-0.4,1.4-0.4c1.3,0,1.7,0.9,1.7,1.8v1.6c0,0.4,0,0.7,0.1,1H314.4z
		 M314.3,100.3c-0.9,0-1.8,0.1-1.8,1c0,0.5,0.3,0.8,0.7,0.8c0.6,0,0.9-0.4,1.1-0.7c0-0.1,0-0.2,0-0.3V100.3z"/>
	<path class="st16" d="M316.3,99.4c0-0.5,0-0.8,0-1.2h0.7l0,0.7h0c0.2-0.4,0.7-0.8,1.4-0.8c0.6,0,1.5,0.4,1.5,1.9v2.6h-0.8V100
		c0-0.7-0.3-1.3-1-1.3c-0.5,0-0.9,0.4-1.1,0.8c0,0.1-0.1,0.2-0.1,0.4v2.6h-0.8V99.4z"/>
	<path class="st16" d="M323,102.6v-0.5l0.6-0.6c1.5-1.4,2.2-2.2,2.2-3.1c0-0.6-0.3-1.1-1.2-1.1c-0.5,0-1,0.3-1.2,0.5l-0.3-0.6
		c0.4-0.3,1-0.6,1.7-0.6c1.3,0,1.8,0.9,1.8,1.7c0,1.1-0.8,2-2,3.1l-0.5,0.4v0h2.6v0.7H323z"/>
	<path class="st16" d="M331.5,99.6c0,2-0.7,3.1-2,3.1c-1.1,0-1.9-1.1-1.9-3c0-2,0.8-3,2-3C330.8,96.6,331.5,97.7,331.5,99.6z
		 M328.3,99.7c0,1.5,0.5,2.4,1.2,2.4c0.8,0,1.2-0.9,1.2-2.4c0-1.4-0.4-2.4-1.2-2.4C328.8,97.2,328.3,98.1,328.3,99.7z"/>
	<path class="st16" d="M334,97.4L334,97.4l-1,0.5l-0.2-0.6l1.3-0.7h0.7v5.9H334V97.4z"/>
	<path class="st16" d="M340.2,97.3c-0.2,0-0.4,0-0.6,0c-1.2,0.2-1.9,1.1-2,2.1h0c0.3-0.4,0.8-0.7,1.4-0.7c1,0,1.8,0.7,1.8,1.9
		c0,1.1-0.7,2.1-1.9,2.1c-1.3,0-2.1-1-2.1-2.5c0-1.2,0.4-2.1,1-2.6c0.5-0.5,1.1-0.8,1.9-0.9c0.2,0,0.4,0,0.6,0V97.3z M340,100.6
		c0-0.8-0.5-1.3-1.2-1.3c-0.5,0-0.9,0.3-1.1,0.7c-0.1,0.1-0.1,0.2-0.1,0.4c0,1,0.5,1.7,1.3,1.7C339.5,102,340,101.5,340,100.6z"/>
	<path class="st16" d="M345.5,99.8v0.6h-2.2v-0.6H345.5z"/>
	<path class="st16" d="M348.2,101.6c0.2,0.1,0.7,0.4,1.3,0.4c1,0,1.3-0.6,1.3-1.1c0-0.8-0.7-1.2-1.5-1.2h-0.4v-0.6h0.4
		c0.6,0,1.3-0.3,1.3-1c0-0.5-0.3-0.9-1-0.9c-0.5,0-0.9,0.2-1.2,0.4l-0.2-0.6c0.3-0.2,0.9-0.5,1.5-0.5c1.2,0,1.7,0.7,1.7,1.4
		c0,0.6-0.4,1.1-1.1,1.4v0c0.7,0.1,1.3,0.7,1.3,1.5c0,0.9-0.7,1.8-2.1,1.8c-0.7,0-1.2-0.2-1.5-0.4L348.2,101.6z"/>
	<path class="st16" d="M354.4,97.4L354.4,97.4l-1,0.5l-0.2-0.6l1.3-0.7h0.7v5.9h-0.8V97.4z"/>
	<path class="st16" d="M359.5,96.6c0.5-0.1,1-0.1,1.7-0.1c1.1,0,1.9,0.3,2.5,0.8c0.5,0.5,0.9,1.2,0.9,2.2c0,1-0.3,1.8-0.9,2.4
		c-0.6,0.6-1.5,0.9-2.7,0.9c-0.6,0-1,0-1.4-0.1V96.6z M360.2,101.9c0.2,0,0.5,0,0.8,0c1.7,0,2.6-0.9,2.6-2.6c0-1.4-0.8-2.3-2.5-2.3
		c-0.4,0-0.7,0-0.9,0.1V101.9z"/>
	<path class="st16" d="M365.9,100.5c0,1.1,0.7,1.5,1.5,1.5c0.6,0,0.9-0.1,1.2-0.2l0.1,0.6c-0.3,0.1-0.8,0.3-1.5,0.3
		c-1.3,0-2.1-0.9-2.1-2.2c0-1.3,0.8-2.4,2-2.4c1.4,0,1.8,1.3,1.8,2.1c0,0.2,0,0.3,0,0.4H365.9z M368.2,100c0-0.5-0.2-1.3-1.1-1.3
		c-0.8,0-1.2,0.7-1.2,1.3H368.2z"/>
	<path class="st16" d="M373.1,102.4c-0.2,0.1-0.7,0.3-1.3,0.3c-1.3,0-2.2-0.9-2.2-2.2c0-1.3,0.9-2.3,2.3-2.3c0.5,0,0.9,0.1,1.1,0.2
		l-0.2,0.6c-0.2-0.1-0.5-0.2-0.9-0.2c-1,0-1.5,0.7-1.5,1.6c0,1,0.6,1.6,1.5,1.6c0.4,0,0.7-0.1,1-0.2L373.1,102.4z"/>
	<path class="st16" d="M375.7,102.6v-0.5l0.6-0.6c1.5-1.4,2.2-2.2,2.2-3.1c0-0.6-0.3-1.1-1.2-1.1c-0.5,0-1,0.3-1.2,0.5l-0.3-0.6
		c0.4-0.3,1-0.6,1.7-0.6c1.3,0,1.8,0.9,1.8,1.7c0,1.1-0.8,2-2,3.1l-0.5,0.4v0h2.6v0.7H375.7z"/>
	<path class="st16" d="M384.2,99.6c0,2-0.7,3.1-2,3.1c-1.1,0-1.9-1.1-1.9-3c0-2,0.8-3,2-3C383.5,96.6,384.2,97.7,384.2,99.6z
		 M381,99.7c0,1.5,0.5,2.4,1.2,2.4c0.8,0,1.2-0.9,1.2-2.4c0-1.4-0.4-2.4-1.2-2.4C381.5,97.2,381,98.1,381,99.7z"/>
	<path class="st16" d="M386.6,97.4L386.6,97.4l-1,0.5l-0.2-0.6l1.3-0.7h0.7v5.9h-0.8V97.4z"/>
	<path class="st16" d="M392.9,97.3c-0.2,0-0.4,0-0.6,0c-1.2,0.2-1.9,1.1-2,2.1h0c0.3-0.4,0.8-0.7,1.4-0.7c1,0,1.8,0.7,1.8,1.9
		c0,1.1-0.7,2.1-1.9,2.1c-1.3,0-2.1-1-2.1-2.5c0-1.2,0.4-2.1,1-2.6c0.5-0.5,1.1-0.8,1.9-0.9c0.2,0,0.4,0,0.6,0V97.3z M392.6,100.6
		c0-0.8-0.5-1.3-1.2-1.3c-0.5,0-0.9,0.3-1.1,0.7c-0.1,0.1-0.1,0.2-0.1,0.4c0,1,0.5,1.7,1.3,1.7C392.2,102,392.6,101.5,392.6,100.6z"
		/>
</g>
<g>
	<path class="st16" d="M76.2,96.4L76.2,96.4l-1,0.5L75,96.3l1.3-0.7H77v5.9h-0.8V96.4z"/>
	<path class="st16" d="M82.5,95.4h0.8v4.1c0,1.6-0.8,2.1-1.8,2.1c-0.3,0-0.6-0.1-0.8-0.1l0.1-0.6c0.2,0.1,0.4,0.1,0.7,0.1
		c0.7,0,1.1-0.3,1.1-1.5V95.4z"/>
	<path class="st16" d="M87,101.5l-0.1-0.5h0c-0.2,0.3-0.7,0.6-1.3,0.6c-0.9,0-1.3-0.6-1.3-1.3c0-1.1,0.9-1.6,2.6-1.6v-0.1
		c0-0.4-0.1-1-1-1c-0.4,0-0.8,0.1-1.1,0.3l-0.2-0.5c0.4-0.2,0.9-0.4,1.4-0.4c1.3,0,1.7,0.9,1.7,1.8v1.6c0,0.4,0,0.7,0.1,1H87z
		 M86.9,99.2c-0.9,0-1.8,0.1-1.8,1c0,0.5,0.3,0.8,0.7,0.8c0.6,0,0.9-0.4,1.1-0.7c0-0.1,0-0.2,0-0.3V99.2z"/>
	<path class="st16" d="M88.9,98.3c0-0.5,0-0.8,0-1.2h0.7l0,0.7h0c0.2-0.4,0.7-0.8,1.4-0.8c0.6,0,1.5,0.4,1.5,1.9v2.6h-0.8V99
		c0-0.7-0.3-1.3-1-1.3c-0.5,0-0.9,0.4-1.1,0.8c0,0.1-0.1,0.2-0.1,0.4v2.6h-0.8V98.3z"/>
	<path class="st16" d="M95.6,101.5V101l0.6-0.6c1.5-1.4,2.2-2.2,2.2-3.1c0-0.6-0.3-1.1-1.2-1.1c-0.5,0-1,0.3-1.2,0.5l-0.3-0.6
		c0.4-0.3,1-0.6,1.7-0.6c1.3,0,1.8,0.9,1.8,1.7c0,1.1-0.8,2-2,3.1l-0.5,0.4v0h2.6v0.7H95.6z"/>
	<path class="st16" d="M104.1,98.5c0,2-0.7,3.1-2,3.1c-1.1,0-1.9-1.1-1.9-3c0-2,0.8-3,2-3C103.4,95.5,104.1,96.6,104.1,98.5z
		 M100.9,98.6c0,1.5,0.5,2.4,1.2,2.4c0.8,0,1.2-0.9,1.2-2.4c0-1.4-0.4-2.4-1.2-2.4C101.4,96.1,100.9,97,100.9,98.6z"/>
	<path class="st16" d="M106.5,96.4L106.5,96.4l-1,0.5l-0.2-0.6l1.3-0.7h0.7v5.9h-0.8V96.4z"/>
	<path class="st16" d="M112.8,96.2c-0.2,0-0.4,0-0.6,0c-1.2,0.2-1.9,1.1-2,2.1h0c0.3-0.4,0.8-0.7,1.4-0.7c1,0,1.8,0.7,1.8,1.9
		c0,1.1-0.7,2.1-1.9,2.1c-1.3,0-2.1-1-2.1-2.5c0-1.2,0.4-2.1,1-2.6c0.5-0.5,1.1-0.8,1.9-0.9c0.2,0,0.4,0,0.6,0V96.2z M112.5,99.6
		c0-0.8-0.5-1.3-1.2-1.3c-0.5,0-0.9,0.3-1.1,0.7c-0.1,0.1-0.1,0.2-0.1,0.4c0,1,0.5,1.7,1.3,1.7C112.1,101,112.5,100.4,112.5,99.6z"
		/>
	<path class="st16" d="M118,98.7v0.6h-2.2v-0.6H118z"/>
	<path class="st16" d="M120.8,100.6c0.2,0.1,0.7,0.4,1.3,0.4c1,0,1.3-0.6,1.3-1.1c0-0.8-0.7-1.2-1.5-1.2h-0.4V98h0.4
		c0.6,0,1.3-0.3,1.3-1c0-0.5-0.3-0.9-1-0.9c-0.5,0-0.9,0.2-1.2,0.4l-0.2-0.6c0.3-0.2,0.9-0.5,1.5-0.5c1.2,0,1.7,0.7,1.7,1.4
		c0,0.6-0.4,1.1-1.1,1.4v0c0.7,0.1,1.3,0.7,1.3,1.5c0,0.9-0.7,1.8-2.1,1.8c-0.7,0-1.2-0.2-1.5-0.4L120.8,100.6z"/>
	<path class="st16" d="M127,96.4L127,96.4l-1,0.5l-0.2-0.6l1.3-0.7h0.7v5.9H127V96.4z"/>
	<path class="st16" d="M132.1,95.5c0.5-0.1,1-0.1,1.7-0.1c1.1,0,1.9,0.3,2.5,0.8c0.5,0.5,0.9,1.2,0.9,2.2c0,1-0.3,1.8-0.9,2.4
		c-0.6,0.6-1.5,0.9-2.7,0.9c-0.6,0-1,0-1.4-0.1V95.5z M132.8,100.9c0.2,0,0.5,0,0.8,0c1.7,0,2.6-0.9,2.6-2.6c0-1.4-0.8-2.3-2.5-2.3
		c-0.4,0-0.7,0-0.9,0.1V100.9z"/>
	<path class="st16" d="M138.5,99.4c0,1.1,0.7,1.5,1.5,1.5c0.6,0,0.9-0.1,1.2-0.2l0.1,0.6c-0.3,0.1-0.8,0.3-1.5,0.3
		c-1.3,0-2.1-0.9-2.1-2.2c0-1.3,0.8-2.4,2-2.4c1.4,0,1.8,1.3,1.8,2.1c0,0.2,0,0.3,0,0.4H138.5z M140.8,98.9c0-0.5-0.2-1.3-1.1-1.3
		c-0.8,0-1.2,0.7-1.2,1.3H140.8z"/>
	<path class="st16" d="M145.7,101.3c-0.2,0.1-0.7,0.3-1.3,0.3c-1.3,0-2.2-0.9-2.2-2.2c0-1.3,0.9-2.3,2.3-2.3c0.5,0,0.9,0.1,1.1,0.2
		l-0.2,0.6c-0.2-0.1-0.5-0.2-0.9-0.2c-1,0-1.5,0.7-1.5,1.6c0,1,0.6,1.6,1.5,1.6c0.4,0,0.7-0.1,1-0.2L145.7,101.3z"/>
	<path class="st16" d="M148.3,101.5V101l0.6-0.6c1.5-1.4,2.2-2.2,2.2-3.1c0-0.6-0.3-1.1-1.2-1.1c-0.5,0-1,0.3-1.2,0.5l-0.3-0.6
		c0.4-0.3,1-0.6,1.7-0.6c1.3,0,1.8,0.9,1.8,1.7c0,1.1-0.8,2-2,3.1l-0.5,0.4v0h2.6v0.7H148.3z"/>
	<path class="st16" d="M156.8,98.5c0,2-0.7,3.1-2,3.1c-1.1,0-1.9-1.1-1.9-3c0-2,0.8-3,2-3C156.1,95.5,156.8,96.6,156.8,98.5z
		 M153.6,98.6c0,1.5,0.5,2.4,1.2,2.4c0.8,0,1.2-0.9,1.2-2.4c0-1.4-0.4-2.4-1.2-2.4C154.1,96.1,153.6,97,153.6,98.6z"/>
	<path class="st16" d="M159.2,96.4L159.2,96.4l-1,0.5l-0.2-0.6l1.3-0.7h0.7v5.9h-0.8V96.4z"/>
	<path class="st16" d="M165.4,96.2c-0.2,0-0.4,0-0.6,0c-1.2,0.2-1.9,1.1-2,2.1h0c0.3-0.4,0.8-0.7,1.4-0.7c1,0,1.8,0.7,1.8,1.9
		c0,1.1-0.7,2.1-1.9,2.1c-1.3,0-2.1-1-2.1-2.5c0-1.2,0.4-2.1,1-2.6c0.5-0.5,1.1-0.8,1.9-0.9c0.2,0,0.4,0,0.6,0V96.2z M165.2,99.6
		c0-0.8-0.5-1.3-1.2-1.3c-0.5,0-0.9,0.3-1.1,0.7c-0.1,0.1-0.1,0.2-0.1,0.4c0,1,0.5,1.7,1.3,1.7C164.8,101,165.2,100.4,165.2,99.6z"
		/>
</g>
<g>
	<path class="st16" d="M528.4,95.4L528.4,95.4l-1,0.5l-0.2-0.6l1.3-0.7h0.7v5.9h-0.8V95.4z"/>
	<path class="st16" d="M534.8,94.4h0.8v4.1c0,1.6-0.8,2.1-1.8,2.1c-0.3,0-0.6-0.1-0.8-0.1l0.1-0.6c0.2,0.1,0.4,0.1,0.7,0.1
		c0.7,0,1.1-0.3,1.1-1.5V94.4z"/>
	<path class="st16" d="M539.2,100.5l-0.1-0.5h0c-0.2,0.3-0.7,0.6-1.3,0.6c-0.9,0-1.3-0.6-1.3-1.3c0-1.1,0.9-1.6,2.6-1.6v-0.1
		c0-0.4-0.1-1-1-1c-0.4,0-0.8,0.1-1.1,0.3l-0.2-0.5c0.4-0.2,0.9-0.4,1.4-0.4c1.3,0,1.7,0.9,1.7,1.8v1.6c0,0.4,0,0.7,0.1,1H539.2z
		 M539.1,98.3c-0.9,0-1.8,0.1-1.8,1c0,0.5,0.3,0.8,0.7,0.8c0.6,0,0.9-0.4,1.1-0.7c0-0.1,0-0.2,0-0.3V98.3z"/>
	<path class="st16" d="M541.2,97.3c0-0.5,0-0.8,0-1.2h0.7l0,0.7h0c0.2-0.4,0.7-0.8,1.4-0.8c0.6,0,1.5,0.4,1.5,1.9v2.6h-0.8V98
		c0-0.7-0.3-1.3-1-1.3c-0.5,0-0.9,0.4-1.1,0.8c0,0.1-0.1,0.2-0.1,0.4v2.6h-0.8V97.3z"/>
	<path class="st16" d="M547.8,100.5V100l0.6-0.6c1.5-1.4,2.2-2.2,2.2-3.1c0-0.6-0.3-1.1-1.2-1.1c-0.5,0-1,0.3-1.2,0.5l-0.3-0.6
		c0.4-0.3,1-0.6,1.7-0.6c1.3,0,1.8,0.9,1.8,1.7c0,1.1-0.8,2-2,3.1l-0.5,0.4v0h2.6v0.7H547.8z"/>
	<path class="st16" d="M556.3,97.5c0,2-0.7,3.1-2,3.1c-1.1,0-1.9-1.1-1.9-3c0-2,0.8-3,2-3C555.6,94.6,556.3,95.6,556.3,97.5z
		 M553.1,97.6c0,1.5,0.5,2.4,1.2,2.4c0.8,0,1.2-0.9,1.2-2.4c0-1.4-0.4-2.4-1.2-2.4C553.6,95.2,553.1,96,553.1,97.6z"/>
	<path class="st16" d="M558.8,95.4L558.8,95.4l-1,0.5l-0.2-0.6l1.3-0.7h0.7v5.9h-0.8V95.4z"/>
	<path class="st16" d="M565,95.2c-0.2,0-0.4,0-0.6,0c-1.2,0.2-1.9,1.1-2,2.1h0c0.3-0.4,0.8-0.7,1.4-0.7c1,0,1.8,0.7,1.8,1.9
		c0,1.1-0.7,2.1-1.9,2.1c-1.3,0-2.1-1-2.1-2.5c0-1.2,0.4-2.1,1-2.6c0.5-0.5,1.1-0.8,1.9-0.9c0.2,0,0.4,0,0.6,0V95.2z M564.8,98.6
		c0-0.8-0.5-1.3-1.2-1.3c-0.5,0-0.9,0.3-1.1,0.7c-0.1,0.1-0.1,0.2-0.1,0.4c0,1,0.5,1.7,1.3,1.7C564.3,100,564.8,99.4,564.8,98.6z"/>
	<path class="st16" d="M570.3,97.8v0.6H568v-0.6H570.3z"/>
	<path class="st16" d="M573,99.6c0.2,0.1,0.7,0.4,1.3,0.4c1,0,1.3-0.6,1.3-1.1c0-0.8-0.7-1.2-1.5-1.2h-0.4v-0.6h0.4
		c0.6,0,1.3-0.3,1.3-1c0-0.5-0.3-0.9-1-0.9c-0.5,0-0.9,0.2-1.2,0.4l-0.2-0.6c0.3-0.2,0.9-0.5,1.5-0.5c1.2,0,1.7,0.7,1.7,1.4
		c0,0.6-0.4,1.1-1.1,1.4v0c0.7,0.1,1.3,0.7,1.3,1.5c0,0.9-0.7,1.8-2.1,1.8c-0.7,0-1.2-0.2-1.5-0.4L573,99.6z"/>
	<path class="st16" d="M579.2,95.4L579.2,95.4l-1,0.5l-0.2-0.6l1.3-0.7h0.7v5.9h-0.8V95.4z"/>
	<path class="st16" d="M584.3,94.5c0.5-0.1,1-0.1,1.7-0.1c1.1,0,1.9,0.3,2.5,0.8c0.5,0.5,0.9,1.2,0.9,2.2c0,1-0.3,1.8-0.9,2.4
		c-0.6,0.6-1.5,0.9-2.7,0.9c-0.6,0-1,0-1.4-0.1V94.5z M585.1,99.9c0.2,0,0.5,0,0.8,0c1.7,0,2.6-0.9,2.6-2.6c0-1.4-0.8-2.3-2.5-2.3
		c-0.4,0-0.7,0-0.9,0.1V99.9z"/>
	<path class="st16" d="M590.7,98.5c0,1.1,0.7,1.5,1.5,1.5c0.6,0,0.9-0.1,1.2-0.2l0.1,0.6c-0.3,0.1-0.8,0.3-1.5,0.3
		c-1.3,0-2.1-0.9-2.1-2.2c0-1.3,0.8-2.4,2-2.4c1.4,0,1.8,1.3,1.8,2.1c0,0.2,0,0.3,0,0.4H590.7z M593,97.9c0-0.5-0.2-1.3-1.1-1.3
		c-0.8,0-1.2,0.7-1.2,1.3H593z"/>
	<path class="st16" d="M597.9,100.3c-0.2,0.1-0.7,0.3-1.3,0.3c-1.3,0-2.2-0.9-2.2-2.2c0-1.3,0.9-2.3,2.3-2.3c0.5,0,0.9,0.1,1.1,0.2
		l-0.2,0.6c-0.2-0.1-0.5-0.2-0.9-0.2c-1,0-1.5,0.7-1.5,1.6c0,1,0.6,1.6,1.5,1.6c0.4,0,0.7-0.1,1-0.2L597.9,100.3z"/>
	<path class="st16" d="M600.5,100.5V100l0.6-0.6c1.5-1.4,2.2-2.2,2.2-3.1c0-0.6-0.3-1.1-1.2-1.1c-0.5,0-1,0.3-1.2,0.5l-0.3-0.6
		c0.4-0.3,1-0.6,1.7-0.6c1.3,0,1.8,0.9,1.8,1.7c0,1.1-0.8,2-2,3.1l-0.5,0.4v0h2.6v0.7H600.5z"/>
	<path class="st16" d="M609,97.5c0,2-0.7,3.1-2,3.1c-1.1,0-1.9-1.1-1.9-3c0-2,0.8-3,2-3C608.3,94.6,609,95.6,609,97.5z M605.8,97.6
		c0,1.5,0.5,2.4,1.2,2.4c0.8,0,1.2-0.9,1.2-2.4c0-1.4-0.4-2.4-1.2-2.4C606.3,95.2,605.8,96,605.8,97.6z"/>
	<path class="st16" d="M611.4,95.4L611.4,95.4l-1,0.5l-0.2-0.6l1.3-0.7h0.7v5.9h-0.8V95.4z"/>
	<path class="st16" d="M617.7,95.2c-0.2,0-0.4,0-0.6,0c-1.2,0.2-1.9,1.1-2,2.1h0c0.3-0.4,0.8-0.7,1.4-0.7c1,0,1.8,0.7,1.8,1.9
		c0,1.1-0.7,2.1-1.9,2.1c-1.3,0-2.1-1-2.1-2.5c0-1.2,0.4-2.1,1-2.6c0.5-0.5,1.1-0.8,1.9-0.9c0.2,0,0.4,0,0.6,0V95.2z M617.4,98.6
		c0-0.8-0.5-1.3-1.2-1.3c-0.5,0-0.9,0.3-1.1,0.7c-0.1,0.1-0.1,0.2-0.1,0.4c0,1,0.5,1.7,1.3,1.7C617,100,617.4,99.4,617.4,98.6z"/>
</g>
<g>
	<path class="st19" d="M571.2,59.6l-0.8,2.5h-1.1l2.7-8.1h1.3l2.8,8.1h-1.1l-0.9-2.5H571.2z M573.8,58.8l-0.8-2.3
		c-0.2-0.5-0.3-1-0.4-1.5h0c-0.1,0.5-0.3,1-0.4,1.5l-0.8,2.3H573.8z"/>
	<path class="st19" d="M582.1,53.6v7c0,0.5,0,1.1,0,1.5h-0.9l0-1h0c-0.3,0.6-1,1.1-2,1.1c-1.4,0-2.5-1.2-2.5-3
		c0-1.9,1.2-3.1,2.6-3.1c0.9,0,1.5,0.4,1.8,0.9h0v-3.5H582.1z M581,58.7c0-0.1,0-0.3,0-0.4c-0.2-0.7-0.7-1.2-1.5-1.2
		c-1.1,0-1.7,1-1.7,2.2c0,1.2,0.6,2.1,1.7,2.1c0.7,0,1.4-0.5,1.5-1.3c0-0.1,0-0.3,0-0.5V58.7z"/>
	<path class="st19" d="M588.8,53.6v7c0,0.5,0,1.1,0,1.5h-0.9l0-1h0c-0.3,0.6-1,1.1-2,1.1c-1.4,0-2.5-1.2-2.5-3
		c0-1.9,1.2-3.1,2.6-3.1c0.9,0,1.5,0.4,1.8,0.9h0v-3.5H588.8z M587.8,58.7c0-0.1,0-0.3,0-0.4c-0.2-0.7-0.7-1.2-1.5-1.2
		c-1.1,0-1.7,1-1.7,2.2c0,1.2,0.6,2.1,1.7,2.1c0.7,0,1.4-0.5,1.5-1.3c0-0.1,0-0.3,0-0.5V58.7z"/>
	<path class="st19" d="M596.3,62.2l-0.1-0.7h0c-0.3,0.5-0.9,0.9-1.8,0.9c-1.2,0-1.8-0.8-1.8-1.7c0-1.4,1.2-2.2,3.5-2.2v-0.1
		c0-0.5-0.1-1.3-1.3-1.3c-0.5,0-1.1,0.2-1.5,0.4l-0.2-0.7c0.5-0.3,1.2-0.5,1.9-0.5c1.8,0,2.2,1.2,2.2,2.4v2.2c0,0.5,0,1,0.1,1.4
		H596.3z M596.2,59.2c-1.2,0-2.5,0.2-2.5,1.3c0,0.7,0.5,1,1,1c0.8,0,1.2-0.5,1.4-1c0-0.1,0.1-0.2,0.1-0.3V59.2z"/>
	<path class="st19" d="M607.1,61.9c-0.4,0.2-1.2,0.4-2.1,0.4c-2.3,0-4-1.4-4-4.1c0-2.5,1.7-4.2,4.2-4.2c1,0,1.6,0.2,1.9,0.4
		l-0.3,0.9c-0.4-0.2-1-0.3-1.6-0.3c-1.9,0-3.2,1.2-3.2,3.3c0,2,1.1,3.3,3.1,3.3c0.6,0,1.3-0.1,1.7-0.3L607.1,61.9z"/>
	<path class="st19" d="M608.4,53.6h1.1v3.6h0c0.2-0.3,0.4-0.6,0.8-0.7c0.3-0.2,0.7-0.3,1.1-0.3c0.8,0,2,0.5,2,2.5v3.5h-1.1v-3.3
		c0-0.9-0.3-1.7-1.3-1.7c-0.7,0-1.2,0.5-1.4,1.1c-0.1,0.1-0.1,0.3-0.1,0.5v3.5h-1.1V53.6z"/>
	<path class="st19" d="M618.3,62.2l-0.1-0.7h0c-0.3,0.5-0.9,0.9-1.8,0.9c-1.2,0-1.8-0.8-1.8-1.7c0-1.4,1.2-2.2,3.5-2.2v-0.1
		c0-0.5-0.1-1.3-1.3-1.3c-0.5,0-1.1,0.2-1.5,0.4l-0.2-0.7c0.5-0.3,1.2-0.5,1.9-0.5c1.8,0,2.2,1.2,2.2,2.4v2.2c0,0.5,0,1,0.1,1.4
		H618.3z M618.1,59.2c-1.2,0-2.5,0.2-2.5,1.3c0,0.7,0.5,1,1,1c0.8,0,1.2-0.5,1.4-1c0-0.1,0.1-0.2,0.1-0.3V59.2z"/>
	<path class="st19" d="M620.9,58.2c0-0.7,0-1.3,0-1.8h0.9l0,1.1h0c0.3-0.8,0.9-1.3,1.6-1.3c0.1,0,0.2,0,0.3,0v1c-0.1,0-0.2,0-0.4,0
		c-0.7,0-1.3,0.6-1.4,1.4c0,0.1,0,0.3,0,0.5v3.1h-1V58.2z"/>
	<path class="st19" d="M626.3,54.7v1.7h1.5v0.8h-1.5v3.1c0,0.7,0.2,1.1,0.8,1.1c0.3,0,0.5,0,0.6-0.1l0,0.8c-0.2,0.1-0.5,0.1-0.9,0.1
		c-0.5,0-0.9-0.2-1.1-0.4c-0.3-0.3-0.4-0.8-0.4-1.5v-3.2h-0.9v-0.8h0.9V55L626.3,54.7z"/>
</g>
<g>
	<path class="st19" d="M74.9,118.8v-7.4h1l2.4,3.8c0.5,0.9,1,1.7,1.3,2.4l0,0c-0.1-1-0.1-1.9-0.1-3v-3.1h0.9v7.4h-1l-2.4-3.8
		c-0.5-0.8-1-1.7-1.4-2.5l0,0c0.1,0.9,0.1,1.8,0.1,3.1v3.2H74.9z"/>
	<path class="st19" d="M86,115.3h-2.9v2.7h3.2v0.8h-4.2v-7.4h4v0.8h-3v2.3H86V115.3z"/>
	<path class="st19" d="M89.2,112.2h-2.3v-0.8h5.5v0.8h-2.3v6.6h-1V112.2z"/>
	<path class="st19" d="M95.5,111.5c0.5-0.1,1.2-0.2,1.8-0.2c1,0,1.7,0.2,2.1,0.6c0.4,0.3,0.6,0.8,0.6,1.4c0,1-0.6,1.6-1.4,1.9v0
		c0.6,0.2,0.9,0.7,1.1,1.5c0.2,1,0.4,1.7,0.6,2h-1c-0.1-0.2-0.3-0.8-0.5-1.8c-0.2-1-0.6-1.4-1.5-1.4h-0.9v3.2h-1V111.5z M96.5,114.8
		h1c1,0,1.7-0.6,1.7-1.4c0-1-0.7-1.4-1.7-1.4c-0.5,0-0.8,0-0.9,0.1V114.8z"/>
	<path class="st19" d="M102,116.3c0,1.3,0.9,1.8,1.8,1.8c0.7,0,1.1-0.1,1.5-0.3l0.2,0.7c-0.3,0.2-0.9,0.3-1.8,0.3
		c-1.6,0-2.6-1.1-2.6-2.7c0-1.6,0.9-2.9,2.5-2.9c1.7,0,2.2,1.5,2.2,2.5c0,0.2,0,0.4,0,0.5H102z M104.9,115.6c0-0.6-0.3-1.6-1.3-1.6
		c-1,0-1.4,0.9-1.5,1.6H104.9z"/>
	<path class="st19" d="M107.4,113.5l1,3c0.2,0.5,0.3,0.9,0.4,1.4h0c0.1-0.4,0.3-0.9,0.5-1.4l1-3h1l-2.1,5.3h-0.9l-2-5.3H107.4z"/>
	<path class="st19" d="M112.7,116.3c0,1.3,0.9,1.8,1.8,1.8c0.7,0,1.1-0.1,1.5-0.3l0.2,0.7c-0.3,0.2-0.9,0.3-1.8,0.3
		c-1.6,0-2.6-1.1-2.6-2.7c0-1.6,0.9-2.9,2.5-2.9c1.7,0,2.2,1.5,2.2,2.5c0,0.2,0,0.4,0,0.5H112.7z M115.5,115.6
		c0-0.6-0.3-1.6-1.3-1.6c-1,0-1.4,0.9-1.5,1.6H115.5z"/>
	<path class="st19" d="M117.7,114.9c0-0.5,0-1,0-1.4h0.9l0.1,0.9h0c0.3-0.5,0.9-1,1.8-1c0.7,0,1.9,0.4,1.9,2.3v3.2h-1v-3.1
		c0-0.9-0.3-1.6-1.2-1.6c-0.6,0-1.1,0.5-1.3,1c0,0.1-0.1,0.3-0.1,0.5v3.2h-1V114.9z"/>
	<path class="st19" d="M128.2,117.3c0,0.5,0,1,0,1.5h-0.9l-0.1-0.9h0c-0.3,0.4-0.8,1-1.8,1c-0.8,0-1.8-0.5-1.8-2.3v-3.1h1v2.9
		c0,1,0.3,1.7,1.2,1.7c0.6,0,1.1-0.5,1.3-0.9c0.1-0.1,0.1-0.3,0.1-0.5v-3.3h1V117.3z"/>
	<path class="st19" d="M130.4,116.3c0,1.3,0.9,1.8,1.8,1.8c0.7,0,1.1-0.1,1.5-0.3l0.2,0.7c-0.3,0.2-0.9,0.3-1.8,0.3
		c-1.6,0-2.6-1.1-2.6-2.7c0-1.6,0.9-2.9,2.5-2.9c1.7,0,2.2,1.5,2.2,2.5c0,0.2,0,0.4,0,0.5H130.4z M133.2,115.6
		c0-0.6-0.3-1.6-1.3-1.6c-1,0-1.4,0.9-1.5,1.6H133.2z"/>
</g>
<g>
	<path class="st19" d="M301.6,118.1c0.4,0.3,1.1,0.5,1.7,0.5c1,0,1.6-0.5,1.6-1.3c0-0.7-0.4-1.1-1.4-1.5c-1.2-0.4-2-1.1-2-2.1
		c0-1.2,1-2,2.4-2c0.8,0,1.3,0.2,1.6,0.4l-0.3,0.8c-0.2-0.1-0.7-0.4-1.4-0.4c-1,0-1.4,0.6-1.4,1.1c0,0.7,0.5,1,1.5,1.4
		c1.3,0.5,1.9,1.1,1.9,2.2c0,1.1-0.8,2.1-2.6,2.1c-0.7,0-1.5-0.2-1.9-0.5L301.6,118.1z"/>
	<path class="st19" d="M311.5,117.8c0,0.5,0,1,0,1.5h-0.9l-0.1-0.9h0c-0.3,0.4-0.8,1-1.8,1c-0.8,0-1.8-0.5-1.8-2.3v-3.1h1v2.9
		c0,1,0.3,1.7,1.2,1.7c0.6,0,1.1-0.5,1.3-0.9c0.1-0.1,0.1-0.3,0.1-0.5v-3.3h1V117.8z"/>
	<path class="st19" d="M313.1,119.3c0-0.4,0-0.9,0-1.4v-6.4h1v3.3h0c0.3-0.6,1-1,1.8-1c1.3,0,2.3,1.1,2.2,2.7c0,1.9-1.2,2.8-2.4,2.8
		c-0.8,0-1.4-0.3-1.8-1h0l0,0.9H313.1z M314.1,117.1c0,0.1,0,0.2,0,0.4c0.2,0.7,0.7,1.1,1.5,1.1c1,0,1.6-0.8,1.6-2
		c0-1.1-0.5-2-1.6-2c-0.7,0-1.3,0.5-1.5,1.2c0,0.1-0.1,0.2-0.1,0.4V117.1z"/>
	<path class="st19" d="M319.3,118.3c0.3,0.2,0.8,0.4,1.3,0.4c0.7,0,1-0.4,1-0.8c0-0.5-0.3-0.7-1-1c-1-0.3-1.4-0.9-1.4-1.5
		c0-0.9,0.7-1.6,1.8-1.6c0.5,0,1,0.2,1.3,0.3l-0.2,0.7c-0.2-0.1-0.6-0.3-1.1-0.3c-0.6,0-0.9,0.3-0.9,0.7c0,0.4,0.3,0.6,1,0.9
		c0.9,0.4,1.4,0.8,1.4,1.6c0,0.9-0.7,1.6-2,1.6c-0.6,0-1.1-0.1-1.5-0.4L319.3,118.3z"/>
	<path class="st19" d="M327.6,119.1c-0.3,0.1-0.8,0.3-1.5,0.3c-1.6,0-2.7-1.1-2.7-2.7c0-1.6,1.1-2.8,2.9-2.8c0.6,0,1.1,0.1,1.3,0.3
		l-0.2,0.7c-0.2-0.1-0.6-0.3-1.1-0.3c-1.2,0-1.9,0.9-1.9,2c0,1.2,0.8,2,1.8,2c0.5,0,0.9-0.1,1.2-0.3L327.6,119.1z"/>
	<path class="st19" d="M328.7,115.6c0-0.6,0-1.2,0-1.7h0.8l0,1h0c0.2-0.7,0.8-1.2,1.5-1.2c0.1,0,0.2,0,0.3,0v0.9c-0.1,0-0.2,0-0.3,0
		c-0.7,0-1.2,0.5-1.3,1.2c0,0.1,0,0.3,0,0.5v2.8h-1V115.6z"/>
	<path class="st19" d="M333.4,112.4c0,0.3-0.2,0.6-0.6,0.6c-0.3,0-0.6-0.3-0.6-0.6c0-0.3,0.3-0.6,0.6-0.6
		C333.2,111.8,333.4,112.1,333.4,112.4z M332.3,119.3v-5.3h1v5.3H332.3z"/>
	<path class="st19" d="M334.9,115.7c0-0.7,0-1.2,0-1.7h0.9l0,0.9h0c0.4-0.6,1-1,1.9-1c1.3,0,2.3,1.1,2.3,2.7c0,1.9-1.2,2.9-2.4,2.9
		c-0.7,0-1.3-0.3-1.6-0.8h0v2.9h-1V115.7z M335.9,117.1c0,0.1,0,0.3,0,0.4c0.2,0.7,0.8,1.1,1.5,1.1c1,0,1.6-0.8,1.6-2.1
		c0-1.1-0.6-2-1.6-2c-0.7,0-1.3,0.5-1.5,1.2c0,0.1-0.1,0.3-0.1,0.4V117.1z"/>
	<path class="st19" d="M342.3,112.4v1.5h1.4v0.7h-1.4v2.9c0,0.7,0.2,1,0.7,1c0.3,0,0.4,0,0.6-0.1l0,0.7c-0.2,0.1-0.5,0.1-0.9,0.1
		c-0.5,0-0.8-0.1-1-0.4c-0.3-0.3-0.4-0.8-0.4-1.4v-2.9h-0.8v-0.7h0.8v-1.3L342.3,112.4z"/>
	<path class="st19" d="M345.9,112.4c0,0.3-0.2,0.6-0.6,0.6c-0.3,0-0.6-0.3-0.6-0.6c0-0.3,0.3-0.6,0.6-0.6
		C345.7,111.8,345.9,112.1,345.9,112.4z M344.8,119.3v-5.3h1v5.3H344.8z"/>
	<path class="st19" d="M352.2,116.5c0,2-1.4,2.8-2.7,2.8c-1.4,0-2.6-1.1-2.6-2.7c0-1.8,1.2-2.8,2.6-2.8
		C351.2,113.8,352.2,114.9,352.2,116.5z M348,116.6c0,1.2,0.7,2,1.6,2c0.9,0,1.6-0.9,1.6-2.1c0-0.9-0.5-2-1.6-2
		C348.5,114.5,348,115.6,348,116.6z"/>
	<path class="st19" d="M353.4,115.4c0-0.5,0-1,0-1.4h0.9l0.1,0.9h0c0.3-0.5,0.9-1,1.8-1c0.7,0,1.9,0.4,1.9,2.3v3.2h-1v-3.1
		c0-0.9-0.3-1.6-1.2-1.6c-0.6,0-1.1,0.5-1.3,1c0,0.1-0.1,0.3-0.1,0.5v3.2h-1V115.4z"/>
	<path class="st19" d="M359.4,118.3c0.3,0.2,0.8,0.4,1.3,0.4c0.7,0,1-0.4,1-0.8c0-0.5-0.3-0.7-1-1c-1-0.3-1.4-0.9-1.4-1.5
		c0-0.9,0.7-1.6,1.8-1.6c0.5,0,1,0.2,1.3,0.3l-0.2,0.7c-0.2-0.1-0.6-0.3-1.1-0.3c-0.6,0-0.9,0.3-0.9,0.7c0,0.4,0.3,0.6,1,0.9
		c0.9,0.4,1.4,0.8,1.4,1.6c0,0.9-0.7,1.6-2,1.6c-0.6,0-1.1-0.1-1.5-0.4L359.4,118.3z"/>
</g>
<g>
	<path class="st19" d="M532.3,117c-0.4,0.2-1.1,0.4-2,0.4c-2.1,0-3.7-1.3-3.7-3.8c0-2.3,1.6-3.9,3.9-3.9c0.9,0,1.5,0.2,1.8,0.3
		l-0.2,0.8c-0.4-0.2-0.9-0.3-1.5-0.3c-1.7,0-2.9,1.1-2.9,3.1c0,1.8,1,3,2.8,3c0.6,0,1.2-0.1,1.6-0.3L532.3,117z"/>
	<path class="st19" d="M536.4,117.3l-0.1-0.7h0c-0.3,0.4-0.9,0.8-1.6,0.8c-1.1,0-1.6-0.8-1.6-1.5c0-1.3,1.1-2,3.2-2v-0.1
		c0-0.4-0.1-1.2-1.2-1.2c-0.5,0-1,0.2-1.4,0.4l-0.2-0.6c0.4-0.3,1.1-0.5,1.7-0.5c1.6,0,2,1.1,2,2.2v2c0,0.5,0,0.9,0.1,1.3H536.4z
		 M536.2,114.5c-1.1,0-2.3,0.2-2.3,1.2c0,0.6,0.4,0.9,0.9,0.9c0.7,0,1.1-0.4,1.3-0.9c0-0.1,0.1-0.2,0.1-0.3V114.5z"/>
	<path class="st19" d="M539.8,110.4v1.5h1.4v0.7h-1.4v2.9c0,0.7,0.2,1,0.7,1c0.3,0,0.4,0,0.6-0.1l0,0.7c-0.2,0.1-0.5,0.1-0.9,0.1
		c-0.5,0-0.8-0.1-1-0.4c-0.3-0.3-0.4-0.8-0.4-1.4v-2.9h-0.8v-0.7h0.8v-1.3L539.8,110.4z"/>
	<path class="st19" d="M542.8,114.8c0,1.3,0.9,1.8,1.8,1.8c0.7,0,1.1-0.1,1.5-0.3l0.2,0.7c-0.3,0.2-0.9,0.3-1.8,0.3
		c-1.6,0-2.6-1.1-2.6-2.7c0-1.6,0.9-2.9,2.5-2.9c1.7,0,2.2,1.5,2.2,2.5c0,0.2,0,0.4,0,0.5H542.8z M545.6,114.1
		c0-0.6-0.3-1.6-1.3-1.6c-1,0-1.4,0.9-1.5,1.6H545.6z"/>
	<path class="st19" d="M552.3,111.9c0,0.4,0,0.8,0,1.5v3.1c0,1.2-0.2,2-0.8,2.4c-0.5,0.5-1.3,0.6-1.9,0.6c-0.6,0-1.3-0.2-1.8-0.4
		l0.2-0.7c0.4,0.2,0.9,0.4,1.6,0.4c1,0,1.7-0.5,1.7-1.9v-0.6h0c-0.3,0.5-0.9,0.9-1.7,0.9c-1.3,0-2.3-1.1-2.3-2.6
		c0-1.8,1.2-2.8,2.4-2.8c0.9,0,1.4,0.5,1.7,0.9h0l0-0.8H552.3z M551.3,114c0-0.2,0-0.3-0.1-0.4c-0.2-0.6-0.6-1-1.4-1
		c-0.9,0-1.6,0.8-1.6,2c0,1,0.5,1.9,1.6,1.9c0.6,0,1.1-0.4,1.3-1c0.1-0.2,0.1-0.4,0.1-0.5V114z"/>
	<path class="st19" d="M558.7,114.5c0,2-1.4,2.8-2.7,2.8c-1.4,0-2.6-1.1-2.6-2.7c0-1.8,1.2-2.8,2.6-2.8
		C557.7,111.8,558.7,112.9,558.7,114.5z M554.5,114.6c0,1.2,0.7,2,1.6,2c0.9,0,1.6-0.9,1.6-2.1c0-0.9-0.5-2-1.6-2
		S554.5,113.6,554.5,114.6z"/>
	<path class="st19" d="M559.9,113.6c0-0.6,0-1.2,0-1.7h0.8l0,1h0c0.2-0.7,0.8-1.2,1.5-1.2c0.1,0,0.2,0,0.3,0v0.9c-0.1,0-0.2,0-0.3,0
		c-0.7,0-1.2,0.5-1.3,1.2c0,0.1,0,0.3,0,0.5v2.8h-1V113.6z"/>
	<path class="st19" d="M564.7,110.4c0,0.3-0.2,0.6-0.6,0.6c-0.3,0-0.6-0.3-0.6-0.6c0-0.3,0.3-0.6,0.6-0.6
		C564.4,109.8,564.7,110.1,564.7,110.4z M563.6,117.3v-5.3h1v5.3H563.6z"/>
	<path class="st19" d="M566.7,114.8c0,1.3,0.9,1.8,1.8,1.8c0.7,0,1.1-0.1,1.5-0.3l0.2,0.7c-0.3,0.2-0.9,0.3-1.8,0.3
		c-1.6,0-2.6-1.1-2.6-2.7c0-1.6,0.9-2.9,2.5-2.9c1.7,0,2.2,1.5,2.2,2.5c0,0.2,0,0.4,0,0.5H566.7z M569.5,114.1
		c0-0.6-0.3-1.6-1.3-1.6c-1,0-1.4,0.9-1.5,1.6H569.5z"/>
	<path class="st19" d="M571.5,116.3c0.3,0.2,0.8,0.4,1.3,0.4c0.7,0,1-0.4,1-0.8c0-0.5-0.3-0.7-1-1c-1-0.3-1.4-0.9-1.4-1.5
		c0-0.9,0.7-1.6,1.8-1.6c0.5,0,1,0.2,1.3,0.3l-0.2,0.7c-0.2-0.1-0.6-0.3-1.1-0.3c-0.6,0-0.9,0.3-0.9,0.7c0,0.4,0.3,0.6,1,0.9
		c0.9,0.4,1.4,0.8,1.4,1.6c0,0.9-0.7,1.6-2,1.6c-0.6,0-1.1-0.1-1.5-0.4L571.5,116.3z"/>
</g>
<g>
	<path class="st19" d="M337.5,221.6c-0.3,0.1-0.8,0.3-1.4,0.3c-1.5,0-2.7-1-2.7-2.7c0-1.7,1.1-2.8,2.8-2.8c0.7,0,1.1,0.1,1.3,0.2
		l-0.2,0.6c-0.3-0.1-0.6-0.2-1.1-0.2c-1.3,0-2.1,0.8-2.1,2.2c0,1.3,0.8,2.2,2.1,2.2c0.4,0,0.9-0.1,1.1-0.2L337.5,221.6z"/>
	<path class="st19" d="M340.5,221.8l-0.1-0.5h0c-0.2,0.3-0.6,0.6-1.2,0.6c-0.8,0-1.2-0.6-1.2-1.1c0-0.9,0.8-1.4,2.3-1.4v-0.1
		c0-0.3-0.1-0.9-0.9-0.9c-0.4,0-0.7,0.1-1,0.3l-0.2-0.5c0.3-0.2,0.8-0.3,1.3-0.3c1.2,0,1.5,0.8,1.5,1.6v1.4c0,0.3,0,0.7,0.1,0.9
		H340.5z M340.4,219.8c-0.8,0-1.6,0.1-1.6,0.9c0,0.5,0.3,0.7,0.7,0.7c0.5,0,0.8-0.3,0.9-0.6c0-0.1,0-0.2,0-0.2V219.8z"/>
	<path class="st19" d="M343,216.8v1.1h1v0.5h-1v2.1c0,0.5,0.1,0.8,0.5,0.8c0.2,0,0.3,0,0.4,0l0,0.5c-0.1,0.1-0.4,0.1-0.6,0.1
		c-0.3,0-0.6-0.1-0.8-0.3c-0.2-0.2-0.3-0.6-0.3-1v-2.1h-0.6v-0.5h0.6V217L343,216.8z"/>
	<path class="st19" d="M345.1,220c0,1,0.6,1.3,1.3,1.3c0.5,0,0.8-0.1,1.1-0.2l0.1,0.5c-0.2,0.1-0.7,0.2-1.3,0.2
		c-1.2,0-1.9-0.8-1.9-2c0-1.2,0.7-2.1,1.8-2.1c1.3,0,1.6,1.1,1.6,1.8c0,0.1,0,0.3,0,0.3H345.1z M347.2,219.4c0-0.4-0.2-1.1-1-1.1
		c-0.7,0-1,0.7-1.1,1.1H347.2z"/>
	<path class="st19" d="M352.1,217.9c0,0.3,0,0.6,0,1.1v2.2c0,0.9-0.2,1.4-0.6,1.8c-0.4,0.4-0.9,0.5-1.4,0.5c-0.5,0-1-0.1-1.3-0.3
		l0.2-0.5c0.3,0.2,0.7,0.3,1.1,0.3c0.7,0,1.2-0.4,1.2-1.4v-0.4h0c-0.2,0.4-0.6,0.6-1.2,0.6c-1,0-1.6-0.8-1.6-1.9
		c0-1.3,0.9-2.1,1.7-2.1c0.7,0,1,0.4,1.2,0.7h0l0-0.6H352.1z M351.4,219.4c0-0.1,0-0.2,0-0.3c-0.1-0.4-0.5-0.7-1-0.7
		c-0.7,0-1.2,0.6-1.2,1.5c0,0.8,0.4,1.4,1.1,1.4c0.4,0,0.8-0.3,1-0.7c0-0.1,0.1-0.3,0.1-0.4V219.4z"/>
	<path class="st19" d="M356.7,219.8c0,1.4-1,2.1-1.9,2.1c-1,0-1.9-0.8-1.9-2c0-1.3,0.8-2.1,1.9-2.1
		C356,217.8,356.7,218.6,356.7,219.8z M353.7,219.8c0,0.8,0.5,1.5,1.2,1.5c0.7,0,1.2-0.6,1.2-1.5c0-0.7-0.3-1.5-1.2-1.5
		C354,218.3,353.7,219.1,353.7,219.8z"/>
	<path class="st19" d="M357.6,219.1c0-0.5,0-0.8,0-1.2h0.6l0,0.8h0c0.2-0.5,0.6-0.8,1.1-0.8c0.1,0,0.1,0,0.2,0v0.7
		c-0.1,0-0.1,0-0.2,0c-0.5,0-0.8,0.4-0.9,0.9c0,0.1,0,0.2,0,0.3v2.1h-0.7V219.1z"/>
	<path class="st19" d="M360.7,217.9l0.8,2.3c0.1,0.3,0.2,0.6,0.2,0.8h0c0.1-0.2,0.2-0.5,0.2-0.8l0.8-2.3h0.7l-1.1,2.8
		c-0.5,1.3-0.8,2-1.3,2.4c-0.3,0.3-0.7,0.4-0.9,0.5l-0.2-0.6c0.2-0.1,0.4-0.2,0.6-0.3c0.2-0.2,0.4-0.4,0.6-0.8
		c0-0.1,0.1-0.1,0.1-0.2s0-0.1,0-0.2l-1.4-3.6H360.7z"/>
	<path class="st19" d="M366.8,220.1l-0.6,1.7h-0.7l1.8-5.4h0.8l1.8,5.4h-0.7l-0.6-1.7H366.8z M368.6,219.5L368,218
		c-0.1-0.4-0.2-0.7-0.3-1h0c-0.1,0.3-0.2,0.6-0.3,1l-0.5,1.6H368.6z"/>
</g>
<g>
	<path class="st16" d="M122.2,199.1v-0.9c-0.5,0-1.1-0.2-1.4-0.4l0.2-0.6c0.3,0.2,0.8,0.4,1.3,0.4c0.6,0,1.1-0.4,1.1-0.9
		c0-0.5-0.4-0.8-1-1.1c-0.9-0.4-1.5-0.8-1.5-1.6c0-0.7,0.5-1.3,1.4-1.4v-0.9h0.6v0.9c0.5,0,0.9,0.2,1.2,0.3l-0.2,0.6
		c-0.2-0.1-0.6-0.3-1.1-0.3c-0.7,0-1,0.4-1,0.8c0,0.5,0.3,0.7,1.1,1c0.9,0.4,1.4,0.8,1.4,1.6c0,0.7-0.5,1.4-1.4,1.5v0.9H122.2z"/>
	<path class="st16" d="M129.1,195.4c0,2-0.7,3.1-2,3.1c-1.1,0-1.9-1.1-1.9-3c0-2,0.8-3,2-3C128.4,192.4,129.1,193.5,129.1,195.4z
		 M125.9,195.5c0,1.5,0.5,2.4,1.2,2.4c0.8,0,1.2-0.9,1.2-2.4c0-1.4-0.4-2.4-1.2-2.4C126.5,193,125.9,193.9,125.9,195.5z"/>
</g>
<g>
	<path class="st16" d="M202.5,199.1v-0.9c-0.5,0-1.1-0.2-1.4-0.4l0.2-0.6c0.3,0.2,0.8,0.4,1.3,0.4c0.6,0,1.1-0.4,1.1-0.9
		c0-0.5-0.4-0.8-1-1.1c-0.9-0.4-1.5-0.8-1.5-1.6c0-0.7,0.5-1.3,1.4-1.4v-0.9h0.6v0.9c0.5,0,0.9,0.2,1.2,0.3l-0.2,0.6
		c-0.2-0.1-0.6-0.3-1.1-0.3c-0.7,0-1,0.4-1,0.8c0,0.5,0.3,0.7,1.1,1c0.9,0.4,1.4,0.8,1.4,1.6c0,0.7-0.5,1.4-1.4,1.5v0.9H202.5z"/>
	<path class="st16" d="M207.3,193.2L207.3,193.2l-1,0.5l-0.2-0.6l1.3-0.7h0.7v5.9h-0.8V193.2z"/>
	<path class="st16" d="M214.1,195.4c0,2-0.7,3.1-2,3.1c-1.1,0-1.9-1.1-1.9-3c0-2,0.8-3,2-3C213.4,192.4,214.1,193.5,214.1,195.4z
		 M210.9,195.5c0,1.5,0.5,2.4,1.2,2.4c0.8,0,1.2-0.9,1.2-2.4c0-1.4-0.4-2.4-1.2-2.4C211.4,193,210.9,193.9,210.9,195.5z"/>
	<path class="st16" d="M214.5,199.5c0.2-0.5,0.4-1.5,0.5-2.2l0.9-0.1c-0.2,0.8-0.6,1.8-0.9,2.2L214.5,199.5z"/>
	<path class="st16" d="M220.6,195.4c0,2-0.7,3.1-2,3.1c-1.1,0-1.9-1.1-1.9-3c0-2,0.8-3,2-3C219.9,192.4,220.6,193.5,220.6,195.4z
		 M217.4,195.5c0,1.5,0.5,2.4,1.2,2.4c0.8,0,1.2-0.9,1.2-2.4c0-1.4-0.4-2.4-1.2-2.4C217.9,193,217.4,193.9,217.4,195.5z"/>
	<path class="st16" d="M225.2,195.4c0,2-0.7,3.1-2,3.1c-1.1,0-1.9-1.1-1.9-3c0-2,0.8-3,2-3C224.5,192.4,225.2,193.5,225.2,195.4z
		 M222,195.5c0,1.5,0.5,2.4,1.2,2.4c0.8,0,1.2-0.9,1.2-2.4c0-1.4-0.4-2.4-1.2-2.4C222.5,193,222,193.9,222,195.5z"/>
	<path class="st16" d="M229.8,195.4c0,2-0.7,3.1-2,3.1c-1.1,0-1.9-1.1-1.9-3c0-2,0.8-3,2-3C229.1,192.4,229.8,193.5,229.8,195.4z
		 M226.6,195.5c0,1.5,0.5,2.4,1.2,2.4c0.8,0,1.2-0.9,1.2-2.4c0-1.4-0.4-2.4-1.2-2.4C227.1,193,226.6,193.9,226.6,195.5z"/>
</g>
<g>
	<path class="st16" d="M319.3,200.7h0.8v4.1c0,1.6-0.8,2.1-1.8,2.1c-0.3,0-0.6-0.1-0.8-0.1l0.1-0.6c0.2,0.1,0.4,0.1,0.7,0.1
		c0.7,0,1.1-0.3,1.1-1.5V200.7z"/>
	<path class="st16" d="M323.8,206.8l-0.1-0.5h0c-0.2,0.3-0.7,0.6-1.3,0.6c-0.9,0-1.3-0.6-1.3-1.3c0-1.1,0.9-1.6,2.6-1.6v-0.1
		c0-0.4-0.1-1-1-1c-0.4,0-0.8,0.1-1.1,0.3l-0.2-0.5c0.4-0.2,0.9-0.4,1.4-0.4c1.3,0,1.7,0.9,1.7,1.8v1.6c0,0.4,0,0.7,0.1,1H323.8z
		 M323.7,204.5c-0.9,0-1.8,0.1-1.8,1c0,0.5,0.3,0.8,0.7,0.8c0.6,0,0.9-0.4,1.1-0.7c0-0.1,0-0.2,0-0.3V204.5z"/>
	<path class="st16" d="M325.7,203.6c0-0.5,0-0.8,0-1.2h0.7l0,0.7h0c0.2-0.4,0.7-0.8,1.4-0.8c0.6,0,1.5,0.4,1.5,1.9v2.6h-0.8v-2.5
		c0-0.7-0.3-1.3-1-1.3c-0.5,0-0.9,0.4-1.1,0.8c0,0.1-0.1,0.2-0.1,0.4v2.6h-0.8V203.6z"/>
</g>
<g>
	<path class="st16" d="M351.3,200.7h3.3v0.7H352v2h2.3v0.6H352v2.7h-0.8V200.7z"/>
	<path class="st16" d="M355.8,204.7c0,1.1,0.7,1.5,1.5,1.5c0.6,0,0.9-0.1,1.2-0.2l0.1,0.6c-0.3,0.1-0.8,0.3-1.4,0.3
		c-1.3,0-2.1-0.9-2.1-2.2c0-1.3,0.8-2.4,2-2.4c1.4,0,1.8,1.3,1.8,2.1c0,0.2,0,0.3,0,0.4H355.8z M358.1,204.2c0-0.5-0.2-1.3-1.1-1.3
		c-0.8,0-1.2,0.7-1.2,1.3H358.1z"/>
	<path class="st16" d="M359.8,206.8c0-0.3,0-0.7,0-1.1v-5.3h0.8v2.7h0c0.3-0.5,0.8-0.8,1.5-0.8c1.1,0,1.8,0.9,1.8,2.2
		c0,1.6-1,2.3-2,2.3c-0.6,0-1.1-0.2-1.5-0.8h0l0,0.7H359.8z M360.6,205c0,0.1,0,0.2,0,0.3c0.2,0.5,0.6,0.9,1.2,0.9
		c0.8,0,1.3-0.7,1.3-1.7c0-0.9-0.5-1.6-1.3-1.6c-0.5,0-1,0.4-1.2,1c0,0.1,0,0.2,0,0.3V205z"/>
</g>
<g>
	<path class="st16" d="M389.6,204.1c0-0.8-0.1-1.9-0.1-2.6h0c-0.2,0.7-0.5,1.5-0.8,2.3l-1.1,2.9h-0.6l-1-2.9
		c-0.3-0.9-0.5-1.6-0.7-2.4h0c0,0.8-0.1,1.8-0.1,2.7l-0.2,2.6h-0.7l0.4-6.1h1l1,2.9c0.3,0.7,0.5,1.4,0.6,2h0c0.2-0.6,0.4-1.3,0.6-2
		l1.1-2.9h1l0.4,6.1h-0.8L389.6,204.1z"/>
	<path class="st16" d="M394.2,206.8l-0.1-0.5h0c-0.2,0.3-0.7,0.6-1.3,0.6c-0.9,0-1.3-0.6-1.3-1.3c0-1.1,0.9-1.6,2.6-1.6v-0.1
		c0-0.4-0.1-1-1-1c-0.4,0-0.8,0.1-1.1,0.3l-0.2-0.5c0.4-0.2,0.9-0.4,1.4-0.4c1.3,0,1.7,0.9,1.7,1.8v1.6c0,0.4,0,0.7,0.1,1H394.2z
		 M394.1,204.5c-0.9,0-1.8,0.1-1.8,1c0,0.5,0.3,0.8,0.7,0.8c0.6,0,0.9-0.4,1.1-0.7c0-0.1,0-0.2,0-0.3V204.5z"/>
	<path class="st16" d="M396.1,203.8c0-0.5,0-1,0-1.4h0.7l0,0.9h0c0.2-0.6,0.7-1,1.2-1c0.1,0,0.2,0,0.2,0v0.7c-0.1,0-0.2,0-0.3,0
		c-0.6,0-1,0.4-1.1,1c0,0.1,0,0.2,0,0.4v2.3h-0.8V203.8z"/>
</g>
<g>
	<path class="st16" d="M419.7,204.9l-0.6,1.9h-0.8l2.1-6.1h0.9l2.1,6.1h-0.8l-0.6-1.9H419.7z M421.7,204.3l-0.6-1.7
		c-0.1-0.4-0.2-0.8-0.3-1.1h0c-0.1,0.4-0.2,0.7-0.3,1.1l-0.6,1.8H421.7z"/>
	<path class="st16" d="M424.2,203.8c0-0.6,0-1,0-1.4h0.7l0,0.7h0c0.3-0.5,0.8-0.8,1.5-0.8c1.1,0,1.8,0.9,1.8,2.2c0,1.6-1,2.3-2,2.3
		c-0.6,0-1.1-0.3-1.3-0.7h0v2.4h-0.8V203.8z M425,205c0,0.1,0,0.2,0,0.3c0.1,0.5,0.6,0.9,1.2,0.9c0.8,0,1.3-0.7,1.3-1.7
		c0-0.9-0.5-1.6-1.3-1.6c-0.5,0-1,0.4-1.2,1c0,0.1-0.1,0.2-0.1,0.3V205z"/>
	<path class="st16" d="M429.3,203.8c0-0.5,0-1,0-1.4h0.7l0,0.9h0c0.2-0.6,0.7-1,1.2-1c0.1,0,0.2,0,0.2,0v0.7c-0.1,0-0.2,0-0.3,0
		c-0.6,0-1,0.4-1.1,1c0,0.1,0,0.2,0,0.4v2.3h-0.8V203.8z"/>
</g>
<g>
	<path class="st16" d="M456.4,204.1c0-0.8-0.1-1.9-0.1-2.6h0c-0.2,0.7-0.5,1.5-0.8,2.3l-1.1,2.9h-0.6l-1-2.9
		c-0.3-0.9-0.5-1.6-0.7-2.4h0c0,0.8-0.1,1.8-0.1,2.7l-0.2,2.6h-0.7l0.4-6.1h1l1,2.9c0.3,0.7,0.5,1.4,0.6,2h0c0.2-0.6,0.4-1.3,0.6-2
		l1.1-2.9h1l0.4,6.1h-0.8L456.4,204.1z"/>
	<path class="st16" d="M461,206.8l-0.1-0.5h0c-0.2,0.3-0.7,0.6-1.3,0.6c-0.9,0-1.3-0.6-1.3-1.3c0-1.1,0.9-1.6,2.6-1.6v-0.1
		c0-0.4-0.1-1-1-1c-0.4,0-0.8,0.1-1.1,0.3l-0.2-0.5c0.4-0.2,0.9-0.4,1.4-0.4c1.3,0,1.7,0.9,1.7,1.8v1.6c0,0.4,0,0.7,0.1,1H461z
		 M460.9,204.6c-0.9,0-1.8,0.1-1.8,1c0,0.5,0.3,0.8,0.7,0.8c0.6,0,0.9-0.4,1.1-0.7c0-0.1,0-0.2,0-0.3V204.6z"/>
	<path class="st16" d="M463.1,202.4l1,2.6c0.1,0.3,0.2,0.6,0.3,0.9h0c0.1-0.3,0.2-0.6,0.3-0.9l0.9-2.6h0.8l-1.2,3.1
		c-0.6,1.5-1,2.3-1.5,2.7c-0.4,0.3-0.8,0.5-1,0.5l-0.2-0.7c0.2-0.1,0.5-0.2,0.7-0.4c0.2-0.2,0.5-0.5,0.7-0.9c0-0.1,0.1-0.1,0.1-0.2
		c0,0,0-0.1-0.1-0.2l-1.6-4H463.1z"/>
</g>
<g>
	<path class="st19" d="M416.5,222.3c-0.3,0.1-0.8,0.3-1.4,0.3c-1.5,0-2.7-1-2.7-2.7c0-1.7,1.1-2.8,2.8-2.8c0.7,0,1.1,0.1,1.3,0.2
		l-0.2,0.6c-0.3-0.1-0.6-0.2-1.1-0.2c-1.3,0-2.1,0.8-2.1,2.2c0,1.3,0.8,2.2,2.1,2.2c0.4,0,0.9-0.1,1.1-0.2L416.5,222.3z"/>
	<path class="st19" d="M419.5,222.4l-0.1-0.5h0c-0.2,0.3-0.6,0.6-1.2,0.6c-0.8,0-1.2-0.6-1.2-1.1c0-0.9,0.8-1.4,2.3-1.4v-0.1
		c0-0.3-0.1-0.9-0.9-0.9c-0.4,0-0.7,0.1-1,0.3l-0.2-0.5c0.3-0.2,0.8-0.3,1.3-0.3c1.2,0,1.5,0.8,1.5,1.6v1.4c0,0.3,0,0.7,0.1,0.9
		H419.5z M419.4,220.5c-0.8,0-1.6,0.1-1.6,0.9c0,0.5,0.3,0.7,0.7,0.7c0.5,0,0.8-0.3,0.9-0.6c0-0.1,0-0.2,0-0.2V220.5z"/>
	<path class="st19" d="M422,217.4v1.1h1v0.5h-1v2.1c0,0.5,0.1,0.8,0.5,0.8c0.2,0,0.3,0,0.4,0l0,0.5c-0.1,0.1-0.4,0.1-0.6,0.1
		c-0.3,0-0.6-0.1-0.8-0.3c-0.2-0.2-0.3-0.6-0.3-1v-2.1h-0.6v-0.5h0.6v-0.9L422,217.4z"/>
	<path class="st19" d="M424.1,220.6c0,1,0.6,1.3,1.3,1.3c0.5,0,0.8-0.1,1.1-0.2l0.1,0.5c-0.2,0.1-0.7,0.2-1.3,0.2
		c-1.2,0-1.9-0.8-1.9-2c0-1.2,0.7-2.1,1.8-2.1c1.3,0,1.6,1.1,1.6,1.8c0,0.1,0,0.3,0,0.3H424.1z M426.2,220.1c0-0.4-0.2-1.1-1-1.1
		c-0.7,0-1,0.7-1.1,1.1H426.2z"/>
	<path class="st19" d="M431.1,218.6c0,0.3,0,0.6,0,1.1v2.2c0,0.9-0.2,1.4-0.6,1.8c-0.4,0.4-0.9,0.5-1.4,0.5c-0.5,0-1-0.1-1.3-0.3
		l0.2-0.5c0.3,0.2,0.7,0.3,1.1,0.3c0.7,0,1.2-0.4,1.2-1.4v-0.4h0c-0.2,0.4-0.6,0.6-1.2,0.6c-1,0-1.6-0.8-1.6-1.9
		c0-1.3,0.9-2.1,1.7-2.1c0.7,0,1,0.4,1.2,0.7h0l0-0.6H431.1z M430.4,220.1c0-0.1,0-0.2,0-0.3c-0.1-0.4-0.5-0.7-1-0.7
		c-0.7,0-1.2,0.6-1.2,1.5c0,0.8,0.4,1.4,1.1,1.4c0.4,0,0.8-0.3,1-0.7c0-0.1,0.1-0.3,0.1-0.4V220.1z"/>
	<path class="st19" d="M435.7,220.5c0,1.4-1,2.1-1.9,2.1c-1,0-1.9-0.8-1.9-2c0-1.3,0.8-2.1,1.9-2.1
		C435,218.5,435.7,219.3,435.7,220.5z M432.7,220.5c0,0.8,0.5,1.5,1.2,1.5c0.7,0,1.2-0.6,1.2-1.5c0-0.7-0.3-1.5-1.2-1.5
		C433,219,432.7,219.8,432.7,220.5z"/>
	<path class="st19" d="M436.6,219.8c0-0.5,0-0.8,0-1.2h0.6l0,0.8h0c0.2-0.5,0.6-0.8,1.1-0.8c0.1,0,0.1,0,0.2,0v0.7
		c-0.1,0-0.1,0-0.2,0c-0.5,0-0.8,0.4-0.9,0.9c0,0.1,0,0.2,0,0.3v2.1h-0.7V219.8z"/>
	<path class="st19" d="M439.7,218.6l0.8,2.3c0.1,0.3,0.2,0.6,0.2,0.8h0c0.1-0.2,0.2-0.5,0.2-0.8l0.8-2.3h0.7l-1.1,2.8
		c-0.5,1.3-0.8,2-1.3,2.4c-0.3,0.3-0.7,0.4-0.9,0.5l-0.2-0.6c0.2-0.1,0.4-0.2,0.6-0.3c0.2-0.2,0.4-0.4,0.6-0.8
		c0-0.1,0.1-0.1,0.1-0.2s0-0.1,0-0.2l-1.4-3.6H439.7z"/>
	<path class="st19" d="M444.9,217.1c0.3-0.1,0.8-0.1,1.3-0.1c0.7,0,1.1,0.1,1.5,0.4c0.3,0.2,0.4,0.5,0.4,1c0,0.5-0.3,1-0.9,1.2v0
		c0.5,0.1,1.1,0.6,1.1,1.4c0,0.5-0.2,0.8-0.5,1.1c-0.4,0.3-1,0.5-1.9,0.5c-0.5,0-0.8,0-1.1-0.1V217.1z M445.6,219.3h0.6
		c0.7,0,1.2-0.4,1.2-0.9c0-0.6-0.5-0.9-1.2-0.9c-0.3,0-0.5,0-0.6,0V219.3z M445.6,221.9c0.1,0,0.3,0,0.6,0c0.7,0,1.4-0.3,1.4-1
		c0-0.7-0.6-1-1.4-1h-0.6V221.9z"/>
</g>
<g>
	<path class="st19" d="M143.5,222.3v-2.2c-1.3,0-2.5-0.4-3.3-1l0.5-1.4c0.8,0.5,1.9,0.9,3.1,0.9c1.5,0,2.6-0.9,2.6-2.1
		c0-1.2-0.8-1.9-2.4-2.6c-2.2-0.9-3.6-1.9-3.6-3.7c0-1.8,1.3-3.2,3.3-3.5v-2.2h1.3v2.1c1.3,0,2.2,0.4,2.8,0.8l-0.5,1.4
		c-0.5-0.3-1.3-0.7-2.7-0.7c-1.7,0-2.3,1-2.3,1.9c0,1.1,0.8,1.7,2.7,2.5c2.2,0.9,3.3,2,3.3,3.9c0,1.7-1.2,3.3-3.4,3.7v2.2H143.5z"/>
	<path class="st19" d="M151.3,218.2c0.5,0.3,1.8,0.9,3.1,0.9c2.4,0,3.2-1.6,3.2-2.7c0-2-1.8-2.8-3.6-2.8h-1.1v-1.4h1.1
		c1.4,0,3.1-0.7,3.1-2.4c0-1.1-0.7-2.1-2.5-2.1c-1.1,0-2.2,0.5-2.8,0.9l-0.5-1.4c0.7-0.5,2.2-1.1,3.7-1.1c2.8,0,4,1.6,4,3.3
		c0,1.4-0.9,2.7-2.6,3.3v0c1.7,0.3,3.1,1.6,3.1,3.6c0,2.2-1.7,4.2-5.1,4.2c-1.6,0-3-0.5-3.6-0.9L151.3,218.2z"/>
	<path class="st19" d="M161.3,223.1c0.5-1.3,1.1-3.6,1.3-5.2l2.1-0.2c-0.5,1.8-1.4,4.2-2,5.2L161.3,223.1z"/>
	<path class="st19" d="M174.8,208h-5.4l-0.5,3.6c0.3,0,0.6-0.1,1.1-0.1c1.1,0,2.2,0.2,3,0.8c1.1,0.6,2,1.8,2,3.6
		c0,2.7-2.2,4.8-5.2,4.8c-1.5,0-2.8-0.4-3.5-0.9l0.5-1.4c0.6,0.3,1.7,0.8,3,0.8c1.8,0,3.3-1.2,3.3-3c0-1.8-1.2-3.1-4-3.1
		c-0.8,0-1.4,0.1-1.9,0.2l0.9-6.7h6.7V208z"/>
	<path class="st19" d="M186.8,213.2c0,4.8-1.8,7.4-4.9,7.4c-2.7,0-4.6-2.6-4.6-7.2c0-4.7,2-7.3,4.9-7.3
		C185.1,206.1,186.8,208.8,186.8,213.2z M179.2,213.5c0,3.6,1.1,5.7,2.8,5.7c1.9,0,2.9-2.3,2.9-5.8c0-3.5-0.9-5.7-2.8-5.7
		C180.4,207.6,179.2,209.6,179.2,213.5z"/>
	<path class="st19" d="M197.9,213.2c0,4.8-1.8,7.4-4.9,7.4c-2.7,0-4.6-2.6-4.6-7.2c0-4.7,2-7.3,4.9-7.3
		C196.2,206.1,197.9,208.8,197.9,213.2z M190.3,213.5c0,3.6,1.1,5.7,2.8,5.7c1.9,0,2.9-2.3,2.9-5.8c0-3.5-0.9-5.7-2.8-5.7
		C191.5,207.6,190.3,209.6,190.3,213.5z"/>
</g>
<g>
	<path class="st19" d="M608.5,210.4h-5.4l-0.5,3.6c0.3,0,0.6-0.1,1.1-0.1c1.1,0,2.2,0.2,3,0.8c1.1,0.6,2,1.8,2,3.6
		c0,2.7-2.2,4.8-5.2,4.8c-1.5,0-2.8-0.4-3.5-0.9l0.5-1.4c0.6,0.3,1.7,0.8,3,0.8c1.8,0,3.3-1.2,3.3-3c0-1.8-1.2-3.1-4-3.1
		c-0.8,0-1.4,0.1-1.9,0.2l0.9-6.7h6.7V210.4z"/>
	<path class="st19" d="M619.2,210.2c-0.4,0-0.9,0-1.4,0.1c-3,0.5-4.6,2.7-4.9,5h0.1c0.7-0.9,1.8-1.6,3.4-1.6c2.5,0,4.2,1.8,4.2,4.5
		c0,2.6-1.7,4.9-4.7,4.9c-3,0-5-2.3-5-6c0-2.8,1-4.9,2.4-6.3c1.2-1.1,2.7-1.9,4.5-2.1c0.6-0.1,1-0.1,1.4-0.1V210.2z M618.7,218.2
		c0-2-1.1-3.2-2.9-3.2c-1.1,0-2.2,0.7-2.7,1.7c-0.1,0.2-0.2,0.5-0.2,0.8c0,2.3,1.1,4,3.1,4C617.6,221.6,618.7,220.3,618.7,218.2z"/>
	<path class="st19" d="M631.4,208.8v1.3l-6.1,12.8h-2l6.1-12.4v0h-6.9v-1.6H631.4z"/>
</g>
<g>
	<path class="st19" d="M538.6,162.2c-0.3,0.1-0.8,0.3-1.4,0.3c-1.5,0-2.7-1-2.7-2.7c0-1.7,1.1-2.8,2.8-2.8c0.7,0,1.1,0.1,1.3,0.2
		l-0.2,0.6c-0.3-0.1-0.6-0.2-1.1-0.2c-1.3,0-2.1,0.8-2.1,2.2c0,1.3,0.8,2.2,2.1,2.2c0.4,0,0.9-0.1,1.1-0.2L538.6,162.2z"/>
	<path class="st19" d="M541.6,162.4l-0.1-0.5h0c-0.2,0.3-0.6,0.6-1.2,0.6c-0.8,0-1.2-0.6-1.2-1.1c0-0.9,0.8-1.4,2.3-1.4v-0.1
		c0-0.3-0.1-0.9-0.9-0.9c-0.4,0-0.7,0.1-1,0.3l-0.2-0.5c0.3-0.2,0.8-0.3,1.3-0.3c1.2,0,1.5,0.8,1.5,1.6v1.4c0,0.3,0,0.7,0.1,0.9
		H541.6z M541.5,160.4c-0.8,0-1.6,0.1-1.6,0.9c0,0.5,0.3,0.7,0.7,0.7c0.5,0,0.8-0.3,0.9-0.6c0-0.1,0-0.2,0-0.2V160.4z"/>
	<path class="st19" d="M544.1,157.4v1.1h1v0.5h-1v2.1c0,0.5,0.1,0.8,0.5,0.8c0.2,0,0.3,0,0.4,0l0,0.5c-0.1,0.1-0.4,0.1-0.6,0.1
		c-0.3,0-0.6-0.1-0.8-0.3c-0.2-0.2-0.3-0.6-0.3-1v-2.1h-0.6v-0.5h0.6v-0.9L544.1,157.4z"/>
	<path class="st19" d="M546.3,160.6c0,1,0.6,1.3,1.3,1.3c0.5,0,0.8-0.1,1.1-0.2l0.1,0.5c-0.2,0.1-0.7,0.2-1.3,0.2
		c-1.2,0-1.9-0.8-1.9-2c0-1.2,0.7-2.1,1.8-2.1c1.3,0,1.6,1.1,1.6,1.8c0,0.1,0,0.3,0,0.3H546.3z M548.3,160.1c0-0.4-0.2-1.1-1-1.1
		c-0.7,0-1,0.7-1.1,1.1H548.3z"/>
	<path class="st19" d="M553.2,158.5c0,0.3,0,0.6,0,1.1v2.2c0,0.9-0.2,1.4-0.6,1.8c-0.4,0.4-0.9,0.5-1.4,0.5c-0.5,0-1-0.1-1.3-0.3
		l0.2-0.5c0.3,0.2,0.7,0.3,1.1,0.3c0.7,0,1.2-0.4,1.2-1.4v-0.4h0c-0.2,0.4-0.6,0.6-1.2,0.6c-1,0-1.6-0.8-1.6-1.9
		c0-1.3,0.9-2.1,1.7-2.1c0.7,0,1,0.4,1.2,0.7h0l0-0.6H553.2z M552.5,160.1c0-0.1,0-0.2,0-0.3c-0.1-0.4-0.5-0.7-1-0.7
		c-0.7,0-1.2,0.6-1.2,1.5c0,0.8,0.4,1.4,1.1,1.4c0.4,0,0.8-0.3,1-0.7c0-0.1,0.1-0.3,0.1-0.4V160.1z"/>
	<path class="st19" d="M557.8,160.4c0,1.4-1,2.1-1.9,2.1c-1,0-1.9-0.8-1.9-2c0-1.3,0.8-2.1,1.9-2.1
		C557.1,158.4,557.8,159.2,557.8,160.4z M554.8,160.5c0,0.8,0.5,1.5,1.2,1.5c0.7,0,1.2-0.6,1.2-1.5c0-0.7-0.3-1.5-1.2-1.5
		C555.1,159,554.8,159.7,554.8,160.5z"/>
	<path class="st19" d="M558.7,159.7c0-0.5,0-0.8,0-1.2h0.6l0,0.8h0c0.2-0.5,0.6-0.8,1.1-0.8c0.1,0,0.1,0,0.2,0v0.7
		c-0.1,0-0.1,0-0.2,0c-0.5,0-0.8,0.4-0.9,0.9c0,0.1,0,0.2,0,0.3v2.1h-0.7V159.7z"/>
	<path class="st19" d="M561.8,158.5l0.8,2.3c0.1,0.3,0.2,0.6,0.2,0.8h0c0.1-0.2,0.2-0.5,0.2-0.8l0.8-2.3h0.7l-1.1,2.8
		c-0.5,1.3-0.8,2-1.3,2.4c-0.3,0.3-0.7,0.4-0.9,0.5l-0.2-0.6c0.2-0.1,0.4-0.2,0.6-0.3c0.2-0.2,0.4-0.4,0.6-0.8
		c0-0.1,0.1-0.1,0.1-0.2s0-0.1,0-0.2l-1.4-3.6H561.8z"/>
	<path class="st19" d="M567.9,160.7l-0.6,1.7h-0.7l1.8-5.4h0.8l1.8,5.4h-0.7l-0.6-1.7H567.9z M569.7,160.2l-0.5-1.6
		c-0.1-0.4-0.2-0.7-0.3-1h0c-0.1,0.3-0.2,0.6-0.3,1l-0.5,1.6H569.7z"/>
</g>
<g>
	<path class="st19" d="M657.2,137.6c-0.3,0.1-0.8,0.3-1.4,0.3c-1.5,0-2.7-1-2.7-2.7c0-1.7,1.1-2.8,2.8-2.8c0.7,0,1.1,0.1,1.3,0.2
		l-0.2,0.6c-0.3-0.1-0.6-0.2-1.1-0.2c-1.3,0-2.1,0.8-2.1,2.2c0,1.3,0.8,2.2,2.1,2.2c0.4,0,0.9-0.1,1.1-0.2L657.2,137.6z"/>
	<path class="st19" d="M660.1,137.7l-0.1-0.5h0c-0.2,0.3-0.6,0.6-1.2,0.6c-0.8,0-1.2-0.6-1.2-1.1c0-0.9,0.8-1.4,2.3-1.4v-0.1
		c0-0.3-0.1-0.9-0.9-0.9c-0.4,0-0.7,0.1-1,0.3l-0.2-0.5c0.3-0.2,0.8-0.3,1.3-0.3c1.2,0,1.5,0.8,1.5,1.6v1.4c0,0.3,0,0.7,0.1,0.9
		H660.1z M660,135.8c-0.8,0-1.6,0.1-1.6,0.9c0,0.5,0.3,0.7,0.7,0.7c0.5,0,0.8-0.3,0.9-0.6c0-0.1,0-0.2,0-0.2V135.8z"/>
	<path class="st19" d="M662.6,132.7v1.1h1v0.5h-1v2.1c0,0.5,0.1,0.8,0.5,0.8c0.2,0,0.3,0,0.4,0l0,0.5c-0.1,0.1-0.4,0.1-0.6,0.1
		c-0.3,0-0.6-0.1-0.8-0.3c-0.2-0.2-0.3-0.6-0.3-1v-2.1h-0.6v-0.5h0.6v-0.9L662.6,132.7z"/>
	<path class="st19" d="M664.8,135.9c0,1,0.6,1.3,1.3,1.3c0.5,0,0.8-0.1,1.1-0.2l0.1,0.5c-0.2,0.1-0.7,0.2-1.3,0.2
		c-1.2,0-1.9-0.8-1.9-2c0-1.2,0.7-2.1,1.8-2.1c1.3,0,1.6,1.1,1.6,1.8c0,0.1,0,0.3,0,0.3H664.8z M666.8,135.4c0-0.4-0.2-1.1-1-1.1
		c-0.7,0-1,0.7-1.1,1.1H666.8z"/>
	<path class="st19" d="M671.7,133.9c0,0.3,0,0.6,0,1.1v2.2c0,0.9-0.2,1.4-0.6,1.8c-0.4,0.4-0.9,0.5-1.4,0.5c-0.5,0-1-0.1-1.3-0.3
		l0.2-0.5c0.3,0.2,0.7,0.3,1.1,0.3c0.7,0,1.2-0.4,1.2-1.4v-0.4h0c-0.2,0.4-0.6,0.6-1.2,0.6c-1,0-1.6-0.8-1.6-1.9
		c0-1.3,0.9-2.1,1.7-2.1c0.7,0,1,0.4,1.2,0.7h0l0-0.6H671.7z M671,135.4c0-0.1,0-0.2,0-0.3c-0.1-0.4-0.5-0.7-1-0.7
		c-0.7,0-1.2,0.6-1.2,1.5c0,0.8,0.4,1.4,1.1,1.4c0.4,0,0.8-0.3,1-0.7c0-0.1,0.1-0.3,0.1-0.4V135.4z"/>
	<path class="st19" d="M676.4,135.8c0,1.4-1,2.1-1.9,2.1c-1,0-1.9-0.8-1.9-2c0-1.3,0.8-2.1,1.9-2.1
		C675.6,133.8,676.4,134.6,676.4,135.8z M673.3,135.8c0,0.8,0.5,1.5,1.2,1.5c0.7,0,1.2-0.6,1.2-1.5c0-0.7-0.3-1.5-1.2-1.5
		C673.6,134.3,673.3,135.1,673.3,135.8z"/>
	<path class="st19" d="M677.2,135.1c0-0.5,0-0.8,0-1.2h0.6l0,0.8h0c0.2-0.5,0.6-0.8,1.1-0.8c0.1,0,0.1,0,0.2,0v0.7
		c-0.1,0-0.1,0-0.2,0c-0.5,0-0.8,0.4-0.9,0.9c0,0.1,0,0.2,0,0.3v2.1h-0.7V135.1z"/>
	<path class="st19" d="M680.3,133.9l0.8,2.3c0.1,0.3,0.2,0.6,0.2,0.8h0c0.1-0.2,0.2-0.5,0.2-0.8l0.8-2.3h0.7l-1.1,2.8
		c-0.5,1.3-0.8,2-1.3,2.4c-0.3,0.3-0.7,0.4-0.9,0.5l-0.2-0.6c0.2-0.1,0.4-0.2,0.6-0.3c0.2-0.2,0.4-0.4,0.6-0.8
		c0-0.1,0.1-0.1,0.1-0.2c0,0,0-0.1,0-0.2l-1.4-3.6H680.3z"/>
	<path class="st19" d="M685.6,132.4c0.3-0.1,0.8-0.1,1.3-0.1c0.7,0,1.1,0.1,1.5,0.4c0.3,0.2,0.4,0.5,0.4,1c0,0.5-0.3,1-0.9,1.2v0
		c0.5,0.1,1.1,0.6,1.1,1.4c0,0.5-0.2,0.8-0.5,1.1c-0.4,0.3-1,0.5-1.9,0.5c-0.5,0-0.8,0-1.1-0.1V132.4z M686.2,134.6h0.6
		c0.7,0,1.2-0.4,1.2-0.9c0-0.6-0.5-0.9-1.2-0.9c-0.3,0-0.5,0-0.6,0V134.6z M686.2,137.2c0.1,0,0.3,0,0.6,0c0.7,0,1.4-0.3,1.4-1
		c0-0.7-0.6-1-1.4-1h-0.6V137.2z"/>
</g>
<g>
	<path class="st19" d="M651.1,196.5c-0.3,0.1-0.8,0.3-1.4,0.3c-1.5,0-2.7-1-2.7-2.7c0-1.7,1.1-2.8,2.8-2.8c0.7,0,1.1,0.1,1.3,0.2
		l-0.2,0.6c-0.3-0.1-0.6-0.2-1.1-0.2c-1.3,0-2.1,0.8-2.1,2.2c0,1.3,0.8,2.2,2.1,2.2c0.4,0,0.9-0.1,1.1-0.2L651.1,196.5z"/>
	<path class="st19" d="M654,196.6l-0.1-0.5h0c-0.2,0.3-0.6,0.6-1.2,0.6c-0.8,0-1.2-0.6-1.2-1.1c0-0.9,0.8-1.4,2.3-1.4v-0.1
		c0-0.3-0.1-0.9-0.9-0.9c-0.4,0-0.7,0.1-1,0.3l-0.2-0.5c0.3-0.2,0.8-0.3,1.3-0.3c1.2,0,1.5,0.8,1.5,1.6v1.4c0,0.3,0,0.7,0.1,0.9H654
		z M653.9,194.7c-0.8,0-1.6,0.1-1.6,0.9c0,0.5,0.3,0.7,0.7,0.7c0.5,0,0.8-0.3,0.9-0.6c0-0.1,0-0.2,0-0.2V194.7z"/>
	<path class="st19" d="M656.5,191.7v1.1h1v0.5h-1v2.1c0,0.5,0.1,0.8,0.5,0.8c0.2,0,0.3,0,0.4,0l0,0.5c-0.1,0.1-0.4,0.1-0.6,0.1
		c-0.3,0-0.6-0.1-0.8-0.3c-0.2-0.2-0.3-0.6-0.3-1v-2.1h-0.6v-0.5h0.6v-0.9L656.5,191.7z"/>
	<path class="st19" d="M658.7,194.8c0,1,0.6,1.3,1.3,1.3c0.5,0,0.8-0.1,1.1-0.2l0.1,0.5c-0.2,0.1-0.7,0.2-1.3,0.2
		c-1.2,0-1.9-0.8-1.9-2c0-1.2,0.7-2.1,1.8-2.1c1.3,0,1.6,1.1,1.6,1.8c0,0.1,0,0.3,0,0.3H658.7z M660.8,194.3c0-0.4-0.2-1.1-1-1.1
		c-0.7,0-1,0.7-1.1,1.1H660.8z"/>
	<path class="st19" d="M665.6,192.8c0,0.3,0,0.6,0,1.1v2.2c0,0.9-0.2,1.4-0.6,1.8c-0.4,0.4-0.9,0.5-1.4,0.5c-0.5,0-1-0.1-1.3-0.3
		l0.2-0.5c0.3,0.2,0.7,0.3,1.1,0.3c0.7,0,1.2-0.4,1.2-1.4V196h0c-0.2,0.4-0.6,0.6-1.2,0.6c-1,0-1.6-0.8-1.6-1.9
		c0-1.3,0.9-2.1,1.7-2.1c0.7,0,1,0.4,1.2,0.7h0l0-0.6H665.6z M664.9,194.3c0-0.1,0-0.2,0-0.3c-0.1-0.4-0.5-0.7-1-0.7
		c-0.7,0-1.2,0.6-1.2,1.5c0,0.8,0.4,1.4,1.1,1.4c0.4,0,0.8-0.3,1-0.7c0-0.1,0.1-0.3,0.1-0.4V194.3z"/>
	<path class="st19" d="M670.3,194.7c0,1.4-1,2.1-1.9,2.1c-1,0-1.9-0.8-1.9-2c0-1.3,0.8-2.1,1.9-2.1
		C669.5,192.7,670.3,193.5,670.3,194.7z M667.2,194.7c0,0.8,0.5,1.5,1.2,1.5c0.7,0,1.2-0.6,1.2-1.5c0-0.7-0.3-1.5-1.2-1.5
		C667.6,193.2,667.2,194,667.2,194.7z"/>
	<path class="st19" d="M671.2,194c0-0.5,0-0.8,0-1.2h0.6l0,0.8h0c0.2-0.5,0.6-0.8,1.1-0.8c0.1,0,0.1,0,0.2,0v0.7c-0.1,0-0.1,0-0.2,0
		c-0.5,0-0.8,0.4-0.9,0.9c0,0.1,0,0.2,0,0.3v2.1h-0.7V194z"/>
	<path class="st19" d="M674.2,192.8l0.8,2.3c0.1,0.3,0.2,0.6,0.2,0.8h0c0.1-0.2,0.2-0.5,0.2-0.8l0.8-2.3h0.7l-1.1,2.8
		c-0.5,1.3-0.8,2-1.3,2.4c-0.3,0.3-0.7,0.4-0.9,0.5l-0.2-0.6c0.2-0.1,0.4-0.2,0.6-0.3c0.2-0.2,0.4-0.4,0.6-0.8
		c0-0.1,0.1-0.1,0.1-0.2s0-0.1,0-0.2l-1.4-3.6H674.2z"/>
	<path class="st19" d="M683.2,196.5c-0.3,0.1-0.8,0.3-1.4,0.3c-1.5,0-2.7-1-2.7-2.7c0-1.7,1.1-2.8,2.8-2.8c0.7,0,1.1,0.1,1.3,0.2
		l-0.2,0.6c-0.3-0.1-0.6-0.2-1.1-0.2c-1.3,0-2.1,0.8-2.1,2.2c0,1.3,0.8,2.2,2.1,2.2c0.4,0,0.9-0.1,1.1-0.2L683.2,196.5z"/>
</g>
<g id="icon-Add">
	<path class="st19" d="M263.8,16.3h-4.7V21h-1.4v-4.7H253v-1.4h4.7v-4.7h1.4v4.7h4.7V16.3z"/>
</g>
<g id="icon-Add_1_">
	<path class="st19" d="M563.8,59.3h-4.7V64h-1.4v-4.7H553v-1.4h4.7v-4.7h1.4v4.7h4.7V59.3z"/>
</g>
<g id="icon-PDFExport">
	<path class="st20" d="M655.8,57.3h-0.7v-0.7h0.7V57.3z M662,51.8v8.9h-8.3v-11h6.2L662,51.8z M656.5,55.9h-2.1v3.4h0.7v-1.4h1.4
		V55.9z M659.3,56.6h-0.7v-0.7h-1.4v3.4h1.4v-0.7h0.7V56.6z M661.3,55.9H660v3.4h0.7v-1.4h0.7v-0.7h-0.7v-0.7h0.7V55.9z M661.3,53.1
		h-2.1v-0.7h-0.7v-2.1h-0.7v2.8h0.7v0.7h2.8V53.1z M657.9,56.6v2.1h0.7v-2.1H657.9z"/>
</g>
<g id="icon-Share_1_">
	<path class="st10" d="M72.6,54.6c0,0.9-0.7,1.6-1.6,1.6c-0.9,0-1.6-0.7-1.6-1.6l-1.9-1.4c-0.2,0.1-0.5,0.2-0.8,0.2
		c-0.9,0-1.6-0.7-1.6-1.6s0.7-1.6,1.6-1.6c0.5,0,1,0.3,1.3,0.6l1.5-0.6c-0.1-0.2-0.1-0.3-0.1-0.5c0-0.9,0.7-1.6,1.6-1.6
		c0.9,0,1.6,0.7,1.6,1.6c0,0.9-0.7,1.6-1.6,1.6c-0.3,0-0.5-0.1-0.8-0.2L68.2,52c0,0.2-0.1,0.4-0.1,0.5l1.6,1.1
		c0.3-0.4,0.8-0.6,1.2-0.6C71.9,53,72.6,53.7,72.6,54.6z"/>
</g>
<g id="icon-Settings">
	<path class="st20" d="M705.2,54.9l0.6-1.9c0.1-0.1,0-0.3-0.1-0.4l-1.8-0.9l-0.9-1.8c0-0.1-0.1-0.1-0.2-0.1h-0.1l-1.9,0.6l-1.9-0.6
		h-0.1c-0.1,0-0.2,0.1-0.3,0.2l-0.9,1.7l-1.7,0.9c-0.1,0.1-0.2,0.2-0.2,0.3l0.6,1.9l-0.6,1.9c-0.1,0.1,0,0.3,0.1,0.4l1.8,0.9
		l0.9,1.8c0.1,0.1,0.1,0.2,0.3,0.2h0.1l1.9-0.6l1.9,0.6h0.1c0.1,0,0.2-0.1,0.3-0.2l0.9-1.8l1.8-0.9c0.1-0.1,0.2-0.2,0.1-0.4
		L705.2,54.9z M700.8,57.9c-1.7,0-3-1.3-3-3c0-1.7,1.3-3,3-3s3,1.3,3,3C703.8,56.6,702.4,57.9,700.8,57.9z"/>
</g>
<g id="icon-Settings_4_">
	<path class="st19" d="M721.1,94.1l0.4-1.3c0-0.1,0-0.2-0.1-0.3l-1.3-0.7l-0.7-1.3c0,0,0-0.1-0.1-0.1h0l-1.4,0.4l-1.4-0.4h0
		c-0.1,0-0.1,0-0.2,0.1l-0.7,1.2l-1.2,0.7c-0.1,0-0.1,0.1-0.1,0.2l0.4,1.3l-0.4,1.4c0,0.1,0,0.2,0.1,0.3l1.3,0.7l0.7,1.3
		c0,0.1,0.1,0.1,0.2,0.1h0l1.3-0.4l1.3,0.4h0c0.1,0,0.1,0,0.2-0.1l0.7-1.3l1.3-0.7c0.1,0,0.1-0.1,0.1-0.3L721.1,94.1z M717.9,96.3
		c-1.2,0-2.2-1-2.2-2.2c0-1.2,1-2.2,2.2-2.2c1.2,0,2.2,1,2.2,2.2C720.1,95.3,719.1,96.3,717.9,96.3z"/>
</g>
<g id="icon-Settings_1_">
	<path class="st19" d="M496.1,93.1l0.4-1.3c0-0.1,0-0.2-0.1-0.3l-1.3-0.7l-0.7-1.3c0,0,0-0.1-0.1-0.1h0l-1.4,0.4l-1.4-0.4h0
		c-0.1,0-0.1,0-0.2,0.1l-0.7,1.2l-1.2,0.7c-0.1,0-0.1,0.1-0.1,0.2l0.4,1.3l-0.4,1.4c0,0.1,0,0.2,0.1,0.3l1.3,0.7l0.7,1.3
		c0,0.1,0.1,0.1,0.2,0.1h0l1.3-0.4l1.3,0.4h0c0.1,0,0.1,0,0.2-0.1l0.7-1.3l1.3-0.7c0.1,0,0.1-0.1,0.1-0.3L496.1,93.1z M492.9,95.3
		c-1.2,0-2.2-1-2.2-2.2c0-1.2,1-2.2,2.2-2.2c1.2,0,2.2,1,2.2,2.2C495.1,94.3,494.1,95.3,492.9,95.3z"/>
</g>
<g id="icon-Settings_2_">
	<path class="st19" d="M270.1,93.1l0.4-1.3c0-0.1,0-0.2-0.1-0.3l-1.3-0.7l-0.7-1.3c0,0,0-0.1-0.1-0.1h0l-1.4,0.4l-1.4-0.4h0
		c-0.1,0-0.1,0-0.2,0.1l-0.7,1.2l-1.2,0.7c-0.1,0-0.1,0.1-0.1,0.2l0.4,1.3l-0.4,1.4c0,0.1,0,0.2,0.1,0.3l1.3,0.7l0.7,1.3
		c0,0.1,0.1,0.1,0.2,0.1h0l1.3-0.4l1.3,0.4h0c0.1,0,0.1,0,0.2-0.1l0.7-1.3l1.3-0.7c0.1,0,0.1-0.1,0.1-0.3L270.1,93.1z M266.9,95.3
		c-1.2,0-2.2-1-2.2-2.2c0-1.2,1-2.2,2.2-2.2c1.2,0,2.2,1,2.2,2.2C269.1,94.3,268.1,95.3,266.9,95.3z"/>
</g>
<g id="icon-Info">
	<path class="st19" d="M478.2,93.4c0,2-1.6,3.6-3.6,3.6s-3.6-1.6-3.6-3.6c0-2,1.6-3.6,3.6-3.6S478.2,91.4,478.2,93.4z M475.2,92.4
		l-0.9,0.3v0.2c0.1,0,0.1,0,0.1,0s0.1,0.1,0.2,0.1c0.1,0,0,0.1,0,0.1s0,0.2-0.1,0.3l-0.4,1.3c-0.1,0.1-0.1,0.2-0.1,0.3
		c0,0.1,0.1,0.2,0.1,0.3c0.1,0.1,0.2,0.1,0.3,0.1c0.3,0,0.6-0.2,0.8-0.7l-0.1-0.1c-0.1,0.2-0.2,0.3-0.3,0.4l-0.1,0.1h-0.1v-0.1
		c0-0.1,0-0.2,0.1-0.3l0.5-2L475.2,92.4L475.2,92.4z M474.9,91.4c-0.1,0.1-0.1,0.2-0.1,0.3c0,0.1,0.1,0.2,0.1,0.3
		c0.1,0.1,0.2,0.1,0.3,0.1s0.2-0.1,0.3-0.1c0.1-0.1,0.2-0.2,0.2-0.3c0-0.1-0.1-0.2-0.1-0.3c-0.1-0.1-0.2-0.2-0.3-0.2
		C475.1,91.3,475,91.4,474.9,91.4z"/>
</g>
<g id="icon-Info_1_">
	<path class="st19" d="M253.2,93.4c0,2-1.6,3.6-3.6,3.6c-2,0-3.6-1.6-3.6-3.6c0-2,1.6-3.6,3.6-3.6C251.6,89.8,253.2,91.4,253.2,93.4
		z M250.2,92.4l-0.9,0.3v0.2c0.1,0,0.1,0,0.1,0c0.1,0,0.1,0.1,0.2,0.1s0,0.1,0,0.1s0,0.2-0.1,0.3l-0.4,1.3c-0.1,0.1-0.1,0.2-0.1,0.3
		c0,0.1,0.1,0.2,0.1,0.3c0.1,0.1,0.2,0.1,0.3,0.1c0.3,0,0.6-0.2,0.8-0.7l-0.1-0.1c-0.1,0.2-0.2,0.3-0.3,0.4l-0.1,0.1h-0.1v-0.1
		c0-0.1,0-0.2,0.1-0.3l0.5-2L250.2,92.4L250.2,92.4z M249.9,91.4c-0.1,0.1-0.1,0.2-0.1,0.3c0,0.1,0.1,0.2,0.1,0.3
		c0.1,0.1,0.2,0.1,0.3,0.1s0.2-0.1,0.3-0.1c0.1-0.1,0.2-0.2,0.2-0.3c0-0.1-0.1-0.2-0.1-0.3c-0.1-0.1-0.2-0.2-0.3-0.2
		C250.1,91.3,250,91.4,249.9,91.4z"/>
</g>
<g id="icon-Info_2_">
	<path class="st19" d="M704.2,94.4c0,2-1.6,3.6-3.6,3.6c-2,0-3.6-1.6-3.6-3.6c0-2,1.6-3.6,3.6-3.6C702.6,90.8,704.2,92.4,704.2,94.4
		z M701.2,93.4l-0.9,0.3v0.2c0.1,0,0.1,0,0.1,0s0.1,0.1,0.2,0.1c0.1,0,0,0.1,0,0.1s0,0.2-0.1,0.3l-0.4,1.3c-0.1,0.1-0.1,0.2-0.1,0.3
		c0,0.1,0.1,0.2,0.1,0.3c0.1,0.1,0.2,0.1,0.3,0.1c0.3,0,0.6-0.2,0.8-0.7l-0.1-0.1c-0.1,0.2-0.2,0.3-0.3,0.4l-0.1,0.1h-0.1v-0.1
		c0-0.1,0-0.2,0.1-0.3l0.5-2L701.2,93.4L701.2,93.4z M700.9,92.4c-0.1,0.1-0.1,0.2-0.1,0.3c0,0.1,0.1,0.2,0.1,0.3
		c0.1,0.1,0.2,0.1,0.3,0.1s0.2-0.1,0.3-0.1c0.1-0.1,0.2-0.2,0.2-0.3c0-0.1-0.1-0.2-0.1-0.3c-0.1-0.1-0.2-0.2-0.3-0.2
		C701.1,92.3,701,92.4,700.9,92.4z"/>
</g>
<g id="icon-SmallArrowLeft">
	<path class="st20" d="M671.4,57.6L671.4,57.6L671.4,57.6c-0.2,0-0.4-0.1-0.5-0.3l-2.5-2.5c-0.1-0.1-0.2-0.3-0.2-0.5
		c0-0.2,0.1-0.4,0.2-0.5c0.3-0.3,0.8-0.3,1,0l2,2l1.9-1.9c0.3-0.3,0.8-0.3,1,0s0.3,0.8,0,1l-2.4,2.4
		C671.8,57.4,671.6,57.6,671.4,57.6z"/>
</g>
<g id="icon-SmallArrowLeft_1_">
	<path class="st20" d="M714.4,57.6L714.4,57.6L714.4,57.6c-0.2,0-0.4-0.1-0.5-0.3l-2.5-2.5c-0.1-0.1-0.2-0.3-0.2-0.5
		c0-0.2,0.1-0.4,0.2-0.5c0.3-0.3,0.8-0.3,1,0l2,2l1.9-1.9c0.3-0.3,0.8-0.3,1,0s0.3,0.8,0,1l-2.4,2.4
		C714.8,57.4,714.6,57.6,714.4,57.6z"/>
</g>
</svg>
