<?xml version="1.0" encoding="utf-8"?>
<!-- Generator: Adobe Illustrator 19.2.1, SVG Export Plug-In . SVG Version: 6.00 Build 0)  -->
<svg version="1.1" id="Layer_1" xmlns="http://www.w3.org/2000/svg" xmlns:xlink="http://www.w3.org/1999/xlink" x="0px" y="0px"
	 viewBox="0 0 780 240" style="enable-background:new 0 0 780 240;" xml:space="preserve">
<style type="text/css">
	.st0{fill:#E6E6E6;}
	.st1{fill:#FFFFFF;}
	.st2{fill:#CEE9FE;}
	.st3{fill:#D6D6D6;}
	.st4{fill:#999999;}
	.st5{fill:#94DA2C;}
	.st6{fill:#474747;}
	.st7{fill:#AAAAAA;}
	.st8{fill:#6FBFFD;}
	.st9{fill:#F4F4F4;}
	.st10{fill:#7C7C7C;}
	.st11{fill:url(#SVGID_1_);}
	.st12{fill:#F1F1F1;}
	.st13{fill:#FFFFFF;stroke:#6FBFFD;stroke-width:0.5;stroke-miterlimit:10;}
	.st14{fill:none;stroke:#94DA2C;stroke-width:0.5;stroke-miterlimit:10;}
	.st15{fill:#FFFFFF;stroke:#94DA2C;stroke-width:0.5;stroke-miterlimit:10;}
	.st16{fill:url(#SVGID_2_);}
	.st17{fill:#707070;}
	.st18{fill:#ABABAB;}
</style>
<polygon class="st0" points="737.5,27.8 50.9,28.5 51.1,240.2 737.3,241.1 "/>
<rect x="64" y="58" class="st1" width="659.3" height="42"/>
<rect x="64" y="101.3" class="st1" width="659.3" height="45.4"/>
<rect x="591.5" y="58" class="st2" width="62.5" height="88.7"/>
<rect x="643" y="36.7" class="st3" width="80.3" height="21.3"/>
<rect x="64" y="35.9" class="st1" width="101.8" height="17.8"/>
<polygon class="st0" points="125.9,4.2 51.1,4.1 50.9,28.9 126,28.7 "/>
<g>
	<path d="M64.7,14.5c0.5-0.1,1.2-0.1,1.8-0.1c1.2,0,2.1,0.3,2.7,0.8c0.6,0.5,0.9,1.3,0.9,2.4c0,1.1-0.3,2-1,2.6c-0.6,0.6-1.7,1-3,1
		c-0.6,0-1.1,0-1.6-0.1V14.5z M65.6,20.4c0.2,0,0.5,0,0.9,0c1.9,0,2.9-1,2.9-2.9c0-1.6-0.9-2.6-2.7-2.6c-0.4,0-0.8,0-1,0.1V20.4z"/>
	<path d="M74,21.1L74,20.5h0c-0.3,0.4-0.8,0.7-1.5,0.7c-1,0-1.5-0.7-1.5-1.4c0-1.2,1-1.8,2.9-1.8v-0.1c0-0.4-0.1-1.1-1.1-1.1
		c-0.4,0-0.9,0.1-1.3,0.4l-0.2-0.6c0.4-0.3,1-0.4,1.6-0.4c1.5,0,1.8,1,1.8,2V20c0,0.4,0,0.8,0.1,1.2H74z M73.9,18.7
		c-1,0-2,0.1-2,1.1c0,0.6,0.4,0.8,0.8,0.8c0.6,0,1-0.4,1.2-0.8c0-0.1,0.1-0.2,0.1-0.3V18.7z"/>
	<path d="M77.2,14.9c0,0.3-0.2,0.5-0.6,0.5c-0.3,0-0.5-0.2-0.5-0.5c0-0.3,0.2-0.5,0.5-0.5C77,14.4,77.2,14.6,77.2,14.9z M76.2,21.1
		v-4.8h0.9v4.8H76.2z"/>
	<path d="M78.5,14h0.9v7.1h-0.9V14z"/>
	<path d="M81.2,16.3l1.1,2.9c0.1,0.3,0.2,0.7,0.3,1h0c0.1-0.3,0.2-0.7,0.3-1l1-2.8h0.9l-1.3,3.4c-0.6,1.7-1.1,2.5-1.7,3
		c-0.4,0.4-0.9,0.5-1.1,0.6l-0.2-0.7c0.2-0.1,0.5-0.2,0.8-0.4c0.2-0.2,0.5-0.5,0.7-1c0-0.1,0.1-0.2,0.1-0.2s0-0.1-0.1-0.2l-1.8-4.5
		H81.2z"/>
</g>
<g id="icon-SmallArrowLeft">
	<path class="st4" d="M154.4,46.6L154.4,46.6L154.4,46.6c-0.2,0-0.4-0.1-0.5-0.3l-2.5-2.5c-0.1-0.1-0.2-0.3-0.2-0.5
		c0-0.2,0.1-0.4,0.2-0.5c0.3-0.3,0.8-0.3,1,0l2,2l1.9-1.9c0.3-0.3,0.8-0.3,1,0c0.3,0.3,0.3,0.8,0,1l-2.4,2.4
		C154.8,46.4,154.6,46.6,154.4,46.6z"/>
</g>
<rect x="104.5" y="10.2" class="st5" width="11.9" height="11.9"/>
<g>
	<path class="st1" d="M110.7,14.6L110.7,14.6l-0.9,0.5l-0.1-0.5l1.1-0.6h0.6v5.2h-0.7V14.6z"/>
</g>
<g>
	<path class="st6" d="M69.9,45.8l-0.6,1.9h-0.8l2.1-6.1h0.9l2.1,6.1h-0.8l-0.6-1.9H69.9z M71.9,45.2l-0.6-1.7
		c-0.1-0.4-0.2-0.8-0.3-1.1h0c-0.1,0.4-0.2,0.7-0.3,1.1l-0.6,1.8H71.9z"/>
	<path class="st6" d="M74.4,41.3h0.8v6.4h-0.8V41.3z"/>
	<path class="st6" d="M76.5,41.3h0.8v6.4h-0.8V41.3z"/>
	<path class="st6" d="M80.6,41.6h0.8v2.9h0c0.2-0.2,0.3-0.5,0.5-0.6l1.9-2.3h1l-2.2,2.6l2.4,3.5H84l-2-3l-0.6,0.7v2.3h-0.8V41.6z"/>
	<path class="st6" d="M85.5,41.7c0.4-0.1,0.9-0.1,1.5-0.1c0.8,0,1.3,0.2,1.7,0.5c0.3,0.3,0.5,0.7,0.5,1.3c0,0.5-0.2,1-0.5,1.3
		c-0.4,0.4-1.1,0.7-1.9,0.7c-0.2,0-0.5,0-0.6-0.1v2.4h-0.8V41.7z M86.3,44.6c0.2,0,0.4,0.1,0.6,0.1c0.9,0,1.5-0.5,1.5-1.3
		c0-0.8-0.6-1.2-1.4-1.2c-0.3,0-0.6,0-0.7,0.1V44.6z"/>
	<path class="st6" d="M91,41.6v6.1h-0.8v-6.1H91z"/>
	<path class="st6" d="M92.3,46.9c0.2,0.2,0.6,0.3,1,0.3c0.6,0,0.8-0.3,0.8-0.6c0-0.4-0.2-0.6-0.8-0.8c-0.8-0.3-1.2-0.7-1.2-1.2
		c0-0.7,0.6-1.3,1.5-1.3c0.4,0,0.8,0.1,1.1,0.3l-0.2,0.6c-0.2-0.1-0.5-0.3-0.9-0.3c-0.5,0-0.7,0.3-0.7,0.6c0,0.4,0.3,0.5,0.8,0.7
		c0.8,0.3,1.1,0.7,1.1,1.3c0,0.8-0.6,1.3-1.6,1.3c-0.5,0-0.9-0.1-1.2-0.3L92.3,46.9z"/>
</g>
<rect x="245.9" y="36.7" class="st1" width="17.8" height="17.8"/>
<g id="icon-SmallArrowLeft_1_">
	<path class="st4" d="M252.3,45.6L252.3,45.6L252.3,45.6c0-0.2,0.1-0.4,0.3-0.5l2.5-2.5c0.1-0.1,0.3-0.2,0.5-0.2s0.4,0.1,0.5,0.2
		c0.3,0.3,0.3,0.8,0,1l-2,2l1.9,1.9c0.3,0.3,0.3,0.8,0,1c-0.3,0.3-0.8,0.3-1,0l-2.4-2.4C252.5,46,252.3,45.8,252.3,45.6z"/>
</g>
<rect x="225.2" y="36.7" class="st1" width="17.8" height="17.8"/>
<g id="icon-Calendar">
	<path class="st4" d="M238.2,41.7h-0.9v0.9h-1.4v-0.9h-3.3v0.9h-1.4v-0.9h-0.9l-0.5,0.5v7.4l0.5,0.5h7.9l0.5-0.5v-7.4L238.2,41.7z
		 M237.8,49.2h-7v-5.6h7V49.2z"/>
	<rect x="231.7" y="40.8" class="st4" width="0.5" height="1.4"/>
	<rect x="236.4" y="40.8" class="st4" width="0.5" height="1.4"/>
</g>
<rect x="268.5" y="36.7" class="st7" width="374.5" height="21.3"/>
<g>
	<path class="st1" d="M289.6,46.7c0,1.3-0.5,2.1-1.4,2.1c-0.8,0-1.3-0.7-1.3-2c0-1.3,0.6-2,1.4-2C289.2,44.7,289.6,45.5,289.6,46.7z
		 M287.5,46.8c0,1,0.3,1.6,0.8,1.6c0.5,0,0.8-0.6,0.8-1.6c0-1-0.2-1.6-0.8-1.6C287.9,45.1,287.5,45.7,287.5,46.8z"/>
	<path class="st1" d="M291.8,48.7v-1.1h-1.8v-0.3l1.7-2.5h0.6v2.4h0.5v0.4h-0.5v1.1H291.8z M291.8,47.2v-1.3c0-0.2,0-0.4,0-0.6h0
		c-0.1,0.2-0.2,0.4-0.3,0.6l-1,1.3v0H291.8z"/>
	<path class="st1" d="M294.7,44.7h2.2v0.4h-1.7v1.3h1.5v0.4h-1.5v1.8h-0.5V44.7z"/>
	<path class="st1" d="M297.7,47.3c0,0.7,0.5,1,1,1c0.4,0,0.6-0.1,0.8-0.2l0.1,0.4c-0.2,0.1-0.5,0.2-1,0.2c-0.9,0-1.4-0.6-1.4-1.5
		c0-0.9,0.5-1.6,1.4-1.6c0.9,0,1.2,0.8,1.2,1.4c0,0.1,0,0.2,0,0.2H297.7z M299.2,47c0-0.3-0.1-0.9-0.7-0.9c-0.5,0-0.8,0.5-0.8,0.9
		H299.2z"/>
	<path class="st1" d="M300.4,48.7c0-0.2,0-0.5,0-0.8v-3.5h0.5v1.8h0c0.2-0.3,0.5-0.5,1-0.5c0.7,0,1.2,0.6,1.2,1.5
		c0,1-0.7,1.6-1.3,1.6c-0.4,0-0.8-0.2-1-0.5h0l0,0.5H300.4z M300.9,47.5c0,0.1,0,0.1,0,0.2c0.1,0.4,0.4,0.6,0.8,0.6
		c0.6,0,0.9-0.4,0.9-1.1c0-0.6-0.3-1.1-0.9-1.1c-0.4,0-0.7,0.2-0.8,0.6c0,0.1,0,0.1,0,0.2V47.5z"/>
</g>
<g>
	<path class="st1" d="M353.7,46.7c0,1.3-0.5,2.1-1.4,2.1c-0.8,0-1.3-0.7-1.3-2c0-1.3,0.6-2,1.4-2C353.2,44.7,353.7,45.5,353.7,46.7z
		 M351.6,46.8c0,1,0.3,1.6,0.8,1.6c0.5,0,0.8-0.6,0.8-1.6c0-1-0.2-1.6-0.8-1.6C351.9,45.1,351.6,45.7,351.6,46.8z"/>
	<path class="st1" d="M356.5,45.2H355l-0.1,1c0.1,0,0.2,0,0.3,0c0.3,0,0.6,0.1,0.8,0.2c0.3,0.2,0.6,0.5,0.6,1c0,0.8-0.6,1.3-1.5,1.3
		c-0.4,0-0.8-0.1-1-0.2l0.1-0.4c0.2,0.1,0.5,0.2,0.8,0.2c0.5,0,0.9-0.3,0.9-0.8c0-0.5-0.3-0.9-1.1-0.9c-0.2,0-0.4,0-0.5,0l0.3-1.9
		h1.9V45.2z"/>
	<path class="st1" d="M358.7,44.6h2.2v0.4h-1.7v1.3h1.5v0.4h-1.5v1.8h-0.5V44.6z"/>
	<path class="st1" d="M361.7,47.3c0,0.7,0.5,1,1,1c0.4,0,0.6-0.1,0.8-0.1l0.1,0.4c-0.2,0.1-0.5,0.2-1,0.2c-0.9,0-1.4-0.6-1.4-1.5
		s0.5-1.6,1.4-1.6c0.9,0,1.2,0.8,1.2,1.4c0,0.1,0,0.2,0,0.2H361.7z M363.3,47c0-0.3-0.1-0.9-0.7-0.9c-0.5,0-0.8,0.5-0.8,0.9H363.3z"
		/>
	<path class="st1" d="M364.4,48.7c0-0.2,0-0.5,0-0.7v-3.5h0.5v1.8h0c0.2-0.3,0.5-0.5,1-0.5c0.7,0,1.2,0.6,1.2,1.5
		c0,1-0.7,1.6-1.3,1.6c-0.4,0-0.8-0.2-1-0.5h0l0,0.5H364.4z M365,47.5c0,0.1,0,0.1,0,0.2c0.1,0.4,0.4,0.6,0.8,0.6
		c0.6,0,0.9-0.4,0.9-1.1c0-0.6-0.3-1.1-0.9-1.1c-0.4,0-0.7,0.2-0.8,0.6c0,0.1,0,0.1,0,0.2V47.5z"/>
</g>
<g>
	<path class="st1" d="M417.1,46.7c0,1.3-0.5,2.1-1.4,2.1c-0.8,0-1.3-0.7-1.3-2c0-1.3,0.6-2,1.4-2C416.6,44.7,417.1,45.5,417.1,46.7z
		 M415,46.8c0,1,0.3,1.6,0.8,1.6c0.5,0,0.8-0.6,0.8-1.6c0-1-0.2-1.6-0.8-1.6C415.3,45.1,415,45.7,415,46.8z"/>
	<path class="st1" d="M419.8,45.2c-0.1,0-0.2,0-0.4,0c-0.8,0.1-1.3,0.7-1.4,1.4h0c0.2-0.2,0.5-0.5,0.9-0.5c0.7,0,1.2,0.5,1.2,1.3
		c0,0.7-0.5,1.4-1.3,1.4c-0.8,0-1.4-0.6-1.4-1.7c0-0.8,0.3-1.4,0.7-1.8c0.3-0.3,0.8-0.5,1.2-0.6c0.2,0,0.3,0,0.4,0V45.2z
		 M419.7,47.4c0-0.6-0.3-0.9-0.8-0.9c-0.3,0-0.6,0.2-0.8,0.5c0,0.1-0.1,0.1-0.1,0.2c0,0.6,0.3,1.1,0.9,1.1
		C419.4,48.3,419.7,48,419.7,47.4z"/>
	<path class="st1" d="M422.1,44.6h2.2v0.4h-1.7v1.3h1.5v0.4h-1.5v1.8h-0.5V44.6z"/>
	<path class="st1" d="M425.2,47.3c0,0.7,0.5,1,1,1c0.4,0,0.6-0.1,0.8-0.1l0.1,0.4c-0.2,0.1-0.5,0.2-1,0.2c-0.9,0-1.4-0.6-1.4-1.5
		c0-0.9,0.5-1.6,1.4-1.6c0.9,0,1.2,0.8,1.2,1.4c0,0.1,0,0.2,0,0.2H425.2z M426.7,47c0-0.3-0.1-0.9-0.7-0.9c-0.5,0-0.8,0.5-0.8,0.9
		H426.7z"/>
	<path class="st1" d="M427.8,48.7c0-0.2,0-0.5,0-0.7v-3.5h0.5v1.8h0c0.2-0.3,0.5-0.5,1-0.5c0.7,0,1.2,0.6,1.2,1.5
		c0,1-0.7,1.6-1.3,1.6c-0.4,0-0.8-0.2-1-0.5h0l0,0.5H427.8z M428.4,47.5c0,0.1,0,0.1,0,0.2c0.1,0.4,0.4,0.6,0.8,0.6
		c0.6,0,0.9-0.5,0.9-1.1c0-0.6-0.3-1.1-0.9-1.1c-0.4,0-0.7,0.2-0.8,0.6c0,0.1,0,0.1,0,0.2V47.5z"/>
</g>
<g>
	<path class="st1" d="M480.5,46.7c0,1.3-0.5,2.1-1.4,2.1c-0.8,0-1.3-0.7-1.3-2c0-1.3,0.6-2,1.4-2C480.1,44.7,480.5,45.5,480.5,46.7z
		 M478.4,46.8c0,1,0.3,1.6,0.8,1.6c0.5,0,0.8-0.6,0.8-1.6c0-1-0.2-1.6-0.8-1.6C478.8,45.1,478.4,45.7,478.4,46.8z"/>
	<path class="st1" d="M483.6,44.8v0.3l-1.7,3.6h-0.5l1.7-3.4v0h-1.9v-0.4H483.6z"/>
	<path class="st1" d="M485.6,44.6h2.2v0.4h-1.7v1.3h1.5v0.4h-1.5v1.8h-0.5V44.6z"/>
	<path class="st1" d="M488.6,47.3c0,0.7,0.5,1,1,1c0.4,0,0.6-0.1,0.8-0.1l0.1,0.4c-0.2,0.1-0.5,0.2-1,0.2c-0.9,0-1.4-0.6-1.4-1.5
		s0.5-1.6,1.4-1.6c0.9,0,1.2,0.8,1.2,1.4c0,0.1,0,0.2,0,0.2H488.6z M490.1,47c0-0.3-0.1-0.9-0.7-0.9c-0.5,0-0.8,0.5-0.8,0.9H490.1z"
		/>
	<path class="st1" d="M491.3,48.7c0-0.2,0-0.5,0-0.7v-3.5h0.5v1.8h0c0.2-0.3,0.5-0.5,1-0.5c0.7,0,1.2,0.6,1.2,1.5
		c0,1-0.7,1.6-1.3,1.6c-0.4,0-0.8-0.2-1-0.5h0l0,0.5H491.3z M491.8,47.5c0,0.1,0,0.1,0,0.2c0.1,0.4,0.4,0.6,0.8,0.6
		c0.6,0,0.9-0.4,0.9-1.1c0-0.6-0.3-1.1-0.9-1.1c-0.4,0-0.7,0.2-0.8,0.6c0,0.1,0,0.1,0,0.2V47.5z"/>
</g>
<g>
	<path class="st1" d="M538.7,48.7V47l-1.3-2.3h0.6l0.6,1.1c0.2,0.3,0.3,0.6,0.4,0.8h0c0.1-0.3,0.3-0.5,0.4-0.8l0.6-1.1h0.6l-1.4,2.3
		v1.7H538.7z"/>
	<path class="st1" d="M540.9,47.3c0,0.7,0.5,1,1,1c0.4,0,0.6-0.1,0.8-0.1l0.1,0.4c-0.2,0.1-0.5,0.2-1,0.2c-0.9,0-1.4-0.6-1.4-1.5
		s0.5-1.6,1.4-1.6c0.9,0,1.2,0.8,1.2,1.4c0,0.1,0,0.2,0,0.2H540.9z M542.4,47c0-0.3-0.1-0.9-0.7-0.9c-0.5,0-0.8,0.5-0.8,0.9H542.4z"
		/>
	<path class="st1" d="M543.5,48.2c0.2,0.1,0.4,0.2,0.7,0.2c0.4,0,0.6-0.2,0.6-0.4c0-0.3-0.1-0.4-0.5-0.5c-0.5-0.2-0.8-0.5-0.8-0.8
		c0-0.5,0.4-0.9,1-0.9c0.3,0,0.6,0.1,0.7,0.2l-0.1,0.4c-0.1-0.1-0.3-0.2-0.6-0.2c-0.3,0-0.5,0.2-0.5,0.4c0,0.2,0.2,0.3,0.6,0.5
		c0.5,0.2,0.8,0.4,0.8,0.9c0,0.5-0.4,0.9-1.1,0.9c-0.3,0-0.6-0.1-0.8-0.2L543.5,48.2z"/>
	<path class="st1" d="M546.6,45v0.8h0.8v0.4h-0.8v1.6c0,0.4,0.1,0.6,0.4,0.6c0.1,0,0.2,0,0.3,0l0,0.4c-0.1,0-0.3,0.1-0.5,0.1
		c-0.2,0-0.4-0.1-0.6-0.2c-0.1-0.2-0.2-0.4-0.2-0.8v-1.6h-0.4v-0.4h0.4v-0.7L546.6,45z"/>
	<path class="st1" d="M548.2,47.3c0,0.7,0.5,1,1,1c0.4,0,0.6-0.1,0.8-0.1l0.1,0.4c-0.2,0.1-0.5,0.2-1,0.2c-0.9,0-1.4-0.6-1.4-1.5
		s0.5-1.6,1.4-1.6c0.9,0,1.2,0.8,1.2,1.4c0,0.1,0,0.2,0,0.2H548.2z M549.7,47c0-0.3-0.1-0.9-0.7-0.9c-0.5,0-0.8,0.5-0.8,0.9H549.7z"
		/>
	<path class="st1" d="M550.9,46.7c0-0.3,0-0.6,0-0.9h0.5l0,0.6h0c0.1-0.4,0.4-0.6,0.8-0.6c0.1,0,0.1,0,0.1,0v0.5c-0.1,0-0.1,0-0.2,0
		c-0.4,0-0.6,0.3-0.7,0.7c0,0.1,0,0.2,0,0.2v1.5h-0.5V46.7z"/>
	<path class="st1" d="M555.3,44.4v3.5c0,0.3,0,0.6,0,0.7h-0.5l0-0.5h0c-0.2,0.3-0.5,0.6-1,0.6c-0.7,0-1.2-0.6-1.2-1.5
		c0-1,0.6-1.6,1.3-1.6c0.4,0,0.7,0.2,0.9,0.4h0v-1.7H555.3z M554.8,47c0-0.1,0-0.2,0-0.2c-0.1-0.3-0.4-0.6-0.8-0.6
		c-0.5,0-0.9,0.5-0.9,1.1c0,0.6,0.3,1.1,0.9,1.1c0.4,0,0.7-0.2,0.8-0.6c0-0.1,0-0.1,0-0.2V47z"/>
	<path class="st1" d="M557.8,48.7l0-0.4h0c-0.2,0.2-0.5,0.4-0.9,0.4c-0.6,0-0.9-0.4-0.9-0.8c0-0.7,0.6-1.1,1.7-1.1v-0.1
		c0-0.2-0.1-0.7-0.7-0.7c-0.3,0-0.6,0.1-0.8,0.2l-0.1-0.3c0.2-0.2,0.6-0.3,1-0.3c0.9,0,1.1,0.6,1.1,1.2V48c0,0.3,0,0.5,0,0.7H557.8z
		 M557.7,47.2c-0.6,0-1.2,0.1-1.2,0.7c0,0.3,0.2,0.5,0.5,0.5c0.4,0,0.6-0.2,0.7-0.5c0-0.1,0-0.1,0-0.2V47.2z"/>
	<path class="st1" d="M559.2,45.8l0.6,1.7c0.1,0.2,0.1,0.4,0.2,0.6h0c0.1-0.2,0.1-0.4,0.2-0.6l0.6-1.7h0.6l-0.8,2.1
		c-0.4,1-0.6,1.5-1,1.8c-0.3,0.2-0.5,0.3-0.6,0.3l-0.1-0.4c0.1,0,0.3-0.1,0.5-0.3c0.1-0.1,0.3-0.3,0.4-0.6c0-0.1,0-0.1,0-0.1
		c0,0,0-0.1,0-0.1l-1.1-2.7H559.2z"/>
</g>
<g>
	<path class="st1" d="M678.7,45.3L678.7,45.3l-0.7,0.4l-0.1-0.4l0.9-0.5h0.4v3.9h-0.5V45.3z"/>
	<path class="st1" d="M683.2,46.7c0,1.3-0.5,2.1-1.4,2.1c-0.8,0-1.3-0.7-1.3-2c0-1.3,0.6-2,1.4-2C682.8,44.7,683.2,45.5,683.2,46.7z
		 M681.1,46.8c0,1,0.3,1.6,0.8,1.6c0.5,0,0.8-0.6,0.8-1.6c0-1-0.2-1.6-0.8-1.6C681.4,45.1,681.1,45.7,681.1,46.8z"/>
	<path class="st1" d="M684.5,45v0.8h0.8v0.4h-0.8v1.6c0,0.4,0.1,0.6,0.4,0.6c0.1,0,0.2,0,0.3,0l0,0.4c-0.1,0-0.3,0.1-0.5,0.1
		c-0.2,0-0.4-0.1-0.6-0.2c-0.2-0.2-0.2-0.4-0.2-0.8v-1.6h-0.5v-0.4h0.5v-0.7L684.5,45z"/>
	<path class="st1" d="M685.9,44.4h0.5v1.8h0c0.1-0.1,0.2-0.3,0.4-0.4c0.2-0.1,0.3-0.1,0.5-0.1c0.4,0,1,0.2,1,1.2v1.7h-0.5V47
		c0-0.5-0.2-0.9-0.7-0.9c-0.3,0-0.6,0.2-0.7,0.5c0,0.1,0,0.1,0,0.3v1.8h-0.5V44.4z"/>
	<path class="st1" d="M690.5,44.6h2.2v0.4H691v1.3h1.5v0.4H691v1.8h-0.5V44.6z"/>
	<path class="st1" d="M693.5,47.3c0,0.7,0.5,1,1,1c0.4,0,0.6-0.1,0.8-0.1l0.1,0.4c-0.2,0.1-0.5,0.2-1,0.2c-0.9,0-1.4-0.6-1.4-1.5
		s0.5-1.6,1.4-1.6c0.9,0,1.2,0.8,1.2,1.4c0,0.1,0,0.2,0,0.2H693.5z M695,47c0-0.3-0.1-0.9-0.7-0.9c-0.5,0-0.8,0.5-0.8,0.9H695z"/>
	<path class="st1" d="M696.2,48.7c0-0.2,0-0.5,0-0.7v-3.5h0.5v1.8h0c0.2-0.3,0.5-0.5,1-0.5c0.7,0,1.2,0.6,1.2,1.5
		c0,1-0.7,1.6-1.3,1.6c-0.4,0-0.8-0.2-1-0.5h0l0,0.5H696.2z M696.7,47.5c0,0.1,0,0.1,0,0.2c0.1,0.4,0.4,0.6,0.8,0.6
		c0.6,0,0.9-0.4,0.9-1.1c0-0.6-0.3-1.1-0.9-1.1c-0.4,0-0.7,0.2-0.8,0.6c0,0.1,0,0.1,0,0.2V47.5z"/>
</g>
<polygon class="st8" points="591.5,36.7 591.5,58 624,62.5 654,58 654,36.7 "/>
<image style="overflow:visible;" width="2744" height="1752" xlink:href="EE1C2627.jpg"  transform="matrix(0.4099 0 0 0.4099 -355.7243 268.3017)">
</image>
<g>
	<path class="st1" d="M616.6,45.1h-1.2v-0.4h3v0.4h-1.2v3.6h-0.5V45.1z"/>
	<path class="st1" d="M621,47.2c0,1.1-0.7,1.5-1.4,1.5c-0.8,0-1.4-0.6-1.4-1.5c0-1,0.6-1.5,1.4-1.5C620.4,45.7,621,46.3,621,47.2z
		 M618.7,47.2c0,0.6,0.4,1.1,0.9,1.1c0.5,0,0.9-0.5,0.9-1.1c0-0.5-0.2-1.1-0.9-1.1C618.9,46.1,618.7,46.7,618.7,47.2z"/>
	<path class="st1" d="M624.2,44.4v3.5c0,0.3,0,0.6,0,0.7h-0.5l0-0.5h0c-0.2,0.3-0.5,0.6-1,0.6c-0.7,0-1.2-0.6-1.2-1.5
		c0-1,0.6-1.6,1.3-1.6c0.4,0,0.7,0.2,0.9,0.4h0v-1.7H624.2z M623.6,47c0-0.1,0-0.2,0-0.2c-0.1-0.3-0.4-0.6-0.8-0.6
		c-0.5,0-0.9,0.5-0.9,1.1c0,0.6,0.3,1.1,0.9,1.1c0.4,0,0.7-0.2,0.8-0.6c0-0.1,0-0.1,0-0.2V47z"/>
	<path class="st1" d="M626.6,48.7l0-0.4h0c-0.2,0.2-0.5,0.4-0.9,0.4c-0.6,0-0.9-0.4-0.9-0.8c0-0.7,0.6-1.1,1.7-1.1v-0.1
		c0-0.2-0.1-0.7-0.7-0.7c-0.3,0-0.6,0.1-0.8,0.2L625,46c0.2-0.2,0.6-0.3,1-0.3c0.9,0,1.1,0.6,1.1,1.2V48c0,0.3,0,0.5,0,0.7H626.6z
		 M626.6,47.2c-0.6,0-1.2,0.1-1.2,0.7c0,0.3,0.2,0.5,0.5,0.5c0.4,0,0.6-0.2,0.7-0.5c0-0.1,0-0.1,0-0.2V47.2z"/>
	<path class="st1" d="M628.1,45.8l0.6,1.7c0.1,0.2,0.1,0.4,0.2,0.6h0c0.1-0.2,0.1-0.4,0.2-0.6l0.6-1.7h0.6l-0.8,2.1
		c-0.4,1-0.6,1.5-1,1.8c-0.3,0.2-0.5,0.3-0.6,0.3l-0.1-0.4c0.1,0,0.3-0.1,0.5-0.3c0.1-0.1,0.3-0.3,0.4-0.6c0-0.1,0-0.1,0-0.1
		c0,0,0-0.1,0-0.1l-1.1-2.7H628.1z"/>
</g>
<polygon class="st0" points="737.5,8.1 712.1,8 712,28.6 737.5,28.4 "/>
<polygon class="st9" points="712,8.3 667.3,8.2 667.2,27.8 712,27.6 "/>
<g>
	<path d="M123.4,68.3c0.4-0.1,1-0.1,1.7-0.1c0.9,0,1.5,0.2,1.9,0.6c0.4,0.3,0.6,0.8,0.6,1.4c0,0.6-0.2,1.1-0.5,1.4
		c-0.5,0.5-1.2,0.7-2.1,0.7c-0.3,0-0.5,0-0.7-0.1V75h-0.9V68.3z M124.3,71.6c0.2,0,0.4,0.1,0.7,0.1c1,0,1.7-0.5,1.7-1.4
		c0-0.9-0.6-1.3-1.6-1.3c-0.4,0-0.7,0-0.8,0.1V71.6z"/>
	<path d="M128.6,71.7c0-0.6,0-1.1,0-1.5h0.8l0,0.9h0c0.2-0.6,0.7-1.1,1.3-1.1c0.1,0,0.2,0,0.2,0v0.8c-0.1,0-0.2,0-0.3,0
		c-0.6,0-1.1,0.5-1.2,1.1c0,0.1,0,0.3,0,0.4V75h-0.9V71.7z"/>
	<path d="M136.1,72.5c0,1.8-1.2,2.6-2.4,2.6c-1.3,0-2.3-1-2.3-2.5c0-1.6,1.1-2.6,2.4-2.6C135.2,70.1,136.1,71.1,136.1,72.5z
		 M132.3,72.6c0,1.1,0.6,1.9,1.5,1.9c0.8,0,1.5-0.8,1.5-1.9c0-0.8-0.4-1.9-1.4-1.9C132.7,70.7,132.3,71.7,132.3,72.6z"/>
	<path d="M141.4,67.9v5.8c0,0.4,0,0.9,0,1.2h-0.8l0-0.8h0c-0.3,0.5-0.9,0.9-1.6,0.9c-1.2,0-2.1-1-2.1-2.5c0-1.6,1-2.6,2.2-2.6
		c0.7,0,1.2,0.3,1.5,0.7h0v-2.9H141.4z M140.5,72.1c0-0.1,0-0.3,0-0.4c-0.1-0.6-0.6-1-1.3-1c-0.9,0-1.4,0.8-1.4,1.9
		c0,1,0.5,1.8,1.4,1.8c0.6,0,1.1-0.4,1.3-1c0-0.1,0-0.2,0-0.4V72.1z"/>
	<path d="M146.9,73.7c0,0.5,0,0.9,0,1.3h-0.8l0-0.8h0c-0.2,0.4-0.7,0.9-1.6,0.9c-0.8,0-1.7-0.4-1.7-2.1v-2.8h0.9v2.7
		c0,0.9,0.3,1.5,1.1,1.5c0.6,0,1-0.4,1.2-0.8c0-0.1,0.1-0.3,0.1-0.4v-3h0.9V73.7z"/>
	<path d="M151.8,74.8c-0.2,0.1-0.7,0.3-1.4,0.3c-1.5,0-2.4-1-2.4-2.5c0-1.5,1-2.6,2.6-2.6c0.5,0,1,0.1,1.2,0.3l-0.2,0.7
		c-0.2-0.1-0.5-0.2-1-0.2c-1.1,0-1.7,0.8-1.7,1.8c0,1.1,0.7,1.8,1.7,1.8c0.5,0,0.8-0.1,1.1-0.2L151.8,74.8z"/>
	<path d="M154,68.8v1.4h1.3v0.7H154v2.6c0,0.6,0.2,0.9,0.7,0.9c0.2,0,0.4,0,0.5-0.1l0,0.7c-0.2,0.1-0.4,0.1-0.8,0.1
		c-0.4,0-0.7-0.1-0.9-0.4c-0.3-0.3-0.3-0.7-0.3-1.3v-2.6h-0.8v-0.7h0.8V69L154,68.8z"/>
	<path d="M156.2,74.1c0.3,0.2,0.7,0.3,1.2,0.3c0.6,0,0.9-0.3,0.9-0.7c0-0.4-0.3-0.6-0.9-0.9c-0.9-0.3-1.3-0.8-1.3-1.4
		c0-0.8,0.6-1.4,1.7-1.4c0.5,0,0.9,0.1,1.2,0.3l-0.2,0.6c-0.2-0.1-0.5-0.3-1-0.3c-0.5,0-0.8,0.3-0.8,0.7c0,0.4,0.3,0.6,0.9,0.8
		c0.8,0.3,1.3,0.7,1.3,1.5c0,0.8-0.7,1.4-1.8,1.4c-0.5,0-1-0.1-1.4-0.3L156.2,74.1z"/>
</g>
<g>
	<path class="st10" d="M123.3,83.7v-4h0.6l1.3,2c0.3,0.5,0.5,0.9,0.7,1.3l0,0c0-0.5-0.1-1-0.1-1.7v-1.7h0.5v4h-0.5l-1.3-2.1
		c-0.3-0.4-0.6-0.9-0.8-1.3l0,0c0,0.5,0,1,0,1.7v1.7H123.3z"/>
	<path class="st10" d="M129.6,82.9c0,0.3,0,0.6,0,0.8h-0.5l0-0.5h0c-0.1,0.2-0.4,0.5-1,0.5c-0.5,0-1-0.3-1-1.3v-1.7h0.5v1.6
		c0,0.6,0.2,0.9,0.6,0.9c0.4,0,0.6-0.2,0.7-0.5c0-0.1,0-0.2,0-0.3v-1.8h0.5V82.9z"/>
	<path class="st10" d="M130.5,81.5c0-0.3,0-0.5,0-0.8h0.5l0,0.5h0c0.2-0.3,0.4-0.5,0.9-0.5c0.4,0,0.7,0.2,0.8,0.6h0
		c0.1-0.2,0.2-0.3,0.3-0.4c0.2-0.1,0.4-0.2,0.6-0.2c0.4,0,1,0.3,1,1.3v1.7h-0.5V82c0-0.6-0.2-0.9-0.6-0.9c-0.3,0-0.5,0.2-0.6,0.5
		c0,0.1,0,0.2,0,0.3v1.8h-0.5v-1.7c0-0.5-0.2-0.8-0.6-0.8c-0.3,0-0.6,0.3-0.7,0.5c0,0.1,0,0.2,0,0.3v1.8h-0.5V81.5z"/>
	<path class="st10" d="M135.5,83.7c0-0.2,0-0.5,0-0.7v-3.5h0.5v1.8h0c0.2-0.3,0.5-0.5,1-0.5c0.7,0,1.2,0.6,1.2,1.5
		c0,1-0.7,1.6-1.3,1.6c-0.4,0-0.8-0.2-1-0.5h0l0,0.5H135.5z M136,82.5c0,0.1,0,0.1,0,0.2c0.1,0.4,0.4,0.6,0.8,0.6
		c0.6,0,0.9-0.4,0.9-1.1c0-0.6-0.3-1.1-0.9-1.1c-0.4,0-0.7,0.2-0.8,0.6c0,0.1,0,0.1,0,0.2V82.5z"/>
	<path class="st10" d="M139.2,82.3c0,0.7,0.5,1,1,1c0.4,0,0.6-0.1,0.8-0.1l0.1,0.4c-0.2,0.1-0.5,0.2-1,0.2c-0.9,0-1.4-0.6-1.4-1.5
		s0.5-1.6,1.4-1.6c0.9,0,1.2,0.8,1.2,1.4c0,0.1,0,0.2,0,0.2H139.2z M140.8,81.9c0-0.3-0.1-0.9-0.7-0.9c-0.5,0-0.8,0.5-0.8,0.9H140.8
		z"/>
	<path class="st10" d="M141.9,81.7c0-0.3,0-0.6,0-0.9h0.5l0,0.6h0c0.1-0.4,0.4-0.6,0.8-0.6c0.1,0,0.1,0,0.1,0v0.5
		c-0.1,0-0.1,0-0.2,0c-0.4,0-0.6,0.3-0.7,0.7c0,0.1,0,0.2,0,0.2v1.5h-0.5V81.7z"/>
	<path class="st10" d="M147.8,82.2c0,1.1-0.7,1.5-1.4,1.5c-0.8,0-1.4-0.6-1.4-1.5c0-1,0.6-1.5,1.4-1.5
		C147.2,80.7,147.8,81.3,147.8,82.2z M145.5,82.2c0,0.6,0.4,1.1,0.9,1.1c0.5,0,0.9-0.5,0.9-1.1c0-0.5-0.2-1.1-0.9-1.1
		C145.8,81.1,145.5,81.7,145.5,82.2z"/>
	<path class="st10" d="M148.5,83.7v-2.5h-0.4v-0.4h0.4v-0.1c0-0.4,0.1-0.8,0.3-1c0.2-0.2,0.5-0.3,0.7-0.3c0.2,0,0.3,0,0.4,0.1
		l-0.1,0.4c-0.1,0-0.2-0.1-0.3-0.1c-0.4,0-0.6,0.4-0.6,0.8v0.2h0.7v0.4H149v2.5H148.5z"/>
	<path class="st10" d="M151.5,81.7c0-0.4,0-0.7,0-0.9h0.5l0,0.5h0c0.2-0.4,0.6-0.6,1-0.6c0.7,0,1.2,0.6,1.2,1.5c0,1-0.6,1.6-1.3,1.6
		c-0.4,0-0.7-0.2-0.9-0.5h0v1.6h-0.5V81.7z M152,82.5c0,0.1,0,0.1,0,0.2c0.1,0.4,0.4,0.6,0.8,0.6c0.6,0,0.9-0.5,0.9-1.1
		c0-0.6-0.3-1.1-0.9-1.1c-0.4,0-0.7,0.3-0.8,0.7c0,0.1,0,0.1,0,0.2V82.5z"/>
	<path class="st10" d="M154.9,81.7c0-0.3,0-0.6,0-0.9h0.5l0,0.6h0c0.1-0.4,0.4-0.6,0.8-0.6c0.1,0,0.1,0,0.1,0v0.5
		c-0.1,0-0.1,0-0.2,0c-0.4,0-0.6,0.3-0.7,0.7c0,0.1,0,0.2,0,0.2v1.5h-0.5V81.7z"/>
	<path class="st10" d="M159.4,82.2c0,1.1-0.7,1.5-1.4,1.5c-0.8,0-1.4-0.6-1.4-1.5c0-1,0.6-1.5,1.4-1.5
		C158.9,80.7,159.4,81.3,159.4,82.2z M157.1,82.2c0,0.6,0.4,1.1,0.9,1.1c0.5,0,0.9-0.5,0.9-1.1c0-0.5-0.2-1.1-0.9-1.1
		C157.4,81.1,157.1,81.7,157.1,82.2z"/>
	<path class="st10" d="M162.6,79.4v3.5c0,0.3,0,0.6,0,0.7h-0.5l0-0.5h0c-0.2,0.3-0.5,0.6-1,0.6c-0.7,0-1.2-0.6-1.2-1.5
		c0-1,0.6-1.6,1.3-1.6c0.4,0,0.7,0.2,0.9,0.4h0v-1.7H162.6z M162.1,81.9c0-0.1,0-0.2,0-0.2c-0.1-0.3-0.4-0.6-0.8-0.6
		c-0.5,0-0.9,0.5-0.9,1.1c0,0.6,0.3,1.1,0.9,1.1c0.4,0,0.7-0.2,0.8-0.6c0-0.1,0-0.1,0-0.2V81.9z"/>
	<path class="st10" d="M165.9,82.9c0,0.3,0,0.6,0,0.8h-0.5l0-0.5h0c-0.1,0.2-0.4,0.5-1,0.5c-0.5,0-1-0.3-1-1.3v-1.7h0.5v1.6
		c0,0.6,0.2,0.9,0.6,0.9c0.4,0,0.6-0.2,0.7-0.5c0-0.1,0-0.2,0-0.3v-1.8h0.5V82.9z"/>
	<path class="st10" d="M168.9,83.6c-0.1,0.1-0.4,0.2-0.8,0.2c-0.9,0-1.4-0.6-1.4-1.5c0-0.9,0.6-1.5,1.6-1.5c0.3,0,0.6,0.1,0.7,0.1
		l-0.1,0.4c-0.1-0.1-0.3-0.1-0.6-0.1c-0.7,0-1,0.5-1,1.1c0,0.7,0.4,1.1,1,1.1c0.3,0,0.5-0.1,0.6-0.1L168.9,83.6z"/>
	<path class="st10" d="M170.2,79.9v0.8h0.8v0.4h-0.8v1.6c0,0.4,0.1,0.6,0.4,0.6c0.1,0,0.2,0,0.3,0l0,0.4c-0.1,0-0.3,0.1-0.5,0.1
		c-0.2,0-0.4-0.1-0.6-0.2c-0.1-0.2-0.2-0.4-0.2-0.8v-1.6h-0.4v-0.4h0.4v-0.7L170.2,79.9z"/>
	<path class="st10" d="M171.5,83.1c0.2,0.1,0.4,0.2,0.7,0.2c0.4,0,0.6-0.2,0.6-0.4c0-0.3-0.1-0.4-0.5-0.5c-0.5-0.2-0.8-0.5-0.8-0.8
		c0-0.5,0.4-0.9,1-0.9c0.3,0,0.6,0.1,0.7,0.2l-0.1,0.4c-0.1-0.1-0.3-0.2-0.6-0.2c-0.3,0-0.5,0.2-0.5,0.4c0,0.2,0.2,0.3,0.6,0.5
		c0.5,0.2,0.8,0.4,0.8,0.9c0,0.5-0.4,0.9-1.1,0.9c-0.3,0-0.6-0.1-0.8-0.2L171.5,83.1z"/>
	<path class="st10" d="M175.8,79.9c0,0.2-0.1,0.3-0.3,0.3c-0.2,0-0.3-0.1-0.3-0.3c0-0.2,0.1-0.3,0.3-0.3
		C175.7,79.6,175.8,79.8,175.8,79.9z M175.2,83.7v-2.9h0.5v2.9H175.2z"/>
	<path class="st10" d="M176.6,81.5c0-0.3,0-0.5,0-0.8h0.5l0,0.5h0c0.1-0.3,0.5-0.5,1-0.5c0.4,0,1,0.2,1,1.2v1.7h-0.5V82
		c0-0.5-0.2-0.9-0.7-0.9c-0.3,0-0.6,0.2-0.7,0.5c0,0.1,0,0.2,0,0.2v1.7h-0.5V81.5z"/>
	<path class="st10" d="M181.1,83.1c0.2,0.1,0.4,0.2,0.7,0.2c0.4,0,0.6-0.2,0.6-0.4c0-0.3-0.1-0.4-0.5-0.5c-0.5-0.2-0.8-0.5-0.8-0.8
		c0-0.5,0.4-0.9,1-0.9c0.3,0,0.6,0.1,0.7,0.2l-0.1,0.4c-0.1-0.1-0.3-0.2-0.6-0.2c-0.3,0-0.5,0.2-0.5,0.4c0,0.2,0.2,0.3,0.6,0.5
		c0.5,0.2,0.8,0.4,0.8,0.9c0,0.5-0.4,0.9-1.1,0.9c-0.3,0-0.6-0.1-0.8-0.2L181.1,83.1z"/>
	<path class="st10" d="M184.2,79.9v0.8h0.8v0.4h-0.8v1.6c0,0.4,0.1,0.6,0.4,0.6c0.1,0,0.2,0,0.3,0l0,0.4c-0.1,0-0.3,0.1-0.5,0.1
		c-0.2,0-0.4-0.1-0.6-0.2c-0.1-0.2-0.2-0.4-0.2-0.8v-1.6h-0.4v-0.4h0.4v-0.7L184.2,79.9z"/>
	<path class="st10" d="M188.2,82.2c0,1.1-0.7,1.5-1.4,1.5c-0.8,0-1.4-0.6-1.4-1.5c0-1,0.6-1.5,1.4-1.5
		C187.6,80.7,188.2,81.3,188.2,82.2z M185.8,82.2c0,0.6,0.4,1.1,0.9,1.1c0.5,0,0.9-0.5,0.9-1.1c0-0.5-0.2-1.1-0.9-1.1
		C186.1,81.1,185.8,81.7,185.8,82.2z"/>
	<path class="st10" d="M190.9,83.6c-0.1,0.1-0.4,0.2-0.8,0.2c-0.9,0-1.4-0.6-1.4-1.5c0-0.9,0.6-1.5,1.6-1.5c0.3,0,0.6,0.1,0.7,0.1
		l-0.1,0.4c-0.1-0.1-0.3-0.1-0.6-0.1c-0.7,0-1,0.5-1,1.1c0,0.7,0.4,1.1,1,1.1c0.3,0,0.5-0.1,0.6-0.1L190.9,83.6z"/>
	<path class="st10" d="M192,82.1L192,82.1c0.1-0.1,0.2-0.2,0.3-0.3l0.9-1h0.6l-1.1,1.2l1.3,1.7h-0.6l-1-1.4l-0.3,0.3v1.1h-0.5v-4.3
		h0.5V82.1z"/>
</g>
<g>
	<ellipse class="st0" cx="103.5" cy="83.4" rx="8.2" ry="1"/>
	
		<linearGradient id="SVGID_1_" gradientUnits="userSpaceOnUse" x1="103.3856" y1="156.2985" x2="103.3856" y2="174.9858" gradientTransform="matrix(1 0 0 -1 0 240)">
		<stop  offset="0" style="stop-color:#750B0B"/>
		<stop  offset="0.5271" style="stop-color:#ED1C24"/>
		<stop  offset="1" style="stop-color:#FE6F6F"/>
		<stop  offset="1" style="stop-color:#000000"/>
	</linearGradient>
	<circle class="st11" cx="103.4" cy="74.4" r="9.3"/>
	<path class="st1" d="M103.4,67.4c-3.8,0-6.8,3-6.8,6.8c0,3.8,3,6.8,6.8,6.8s6.8-3,6.8-6.8C110.2,70.5,107.1,67.4,103.4,67.4z
		 M103.4,78.6c-2.5,0-4.5-2-4.5-4.5s2-4.5,4.5-4.5c2.5,0,4.5,2,4.5,4.5S105.9,78.6,103.4,78.6z"/>
	<circle class="st1" cx="103.4" cy="74.1" r="1.9"/>
</g>
<g>
	<path class="st10" d="M78.2,74.1c0,1.3-0.5,2.1-1.4,2.1c-0.8,0-1.3-0.7-1.3-2c0-1.3,0.6-2,1.4-2C77.7,72.1,78.2,72.8,78.2,74.1z
		 M76.1,74.1c0,1,0.3,1.6,0.8,1.6c0.5,0,0.8-0.6,0.8-1.6c0-1-0.2-1.6-0.8-1.6C76.4,72.5,76.1,73.1,76.1,74.1z"/>
	<path class="st10" d="M79.8,72.6L79.8,72.6L79.1,73L79,72.6l0.9-0.5h0.4v3.9h-0.5V72.6z"/>
</g>
<rect x="64" y="150" class="st12" width="659.3" height="34"/>
<rect x="581.5" y="156" class="st5" width="61.5" height="20.7"/>
<g>
	<path class="st1" d="M602,168.9c0.4,0.2,1,0.4,1.6,0.4c0.9,0,1.4-0.5,1.4-1.2c0-0.6-0.4-1-1.3-1.3c-1.1-0.4-1.8-1-1.8-1.9
		c0-1,0.9-1.8,2.2-1.8c0.7,0,1.2,0.2,1.5,0.3l-0.2,0.7c-0.2-0.1-0.7-0.3-1.3-0.3c-0.9,0-1.3,0.5-1.3,1c0,0.6,0.4,0.9,1.3,1.3
		c1.1,0.4,1.7,1,1.7,2c0,1-0.8,1.9-2.4,1.9c-0.6,0-1.4-0.2-1.7-0.4L602,168.9z"/>
	<path class="st1" d="M609.7,170l-0.1-0.6h0c-0.3,0.4-0.8,0.7-1.5,0.7c-1,0-1.5-0.7-1.5-1.4c0-1.2,1-1.8,2.9-1.8v-0.1
		c0-0.4-0.1-1.1-1.1-1.1c-0.5,0-0.9,0.1-1.3,0.4l-0.2-0.6c0.4-0.3,1-0.4,1.6-0.4c1.5,0,1.8,1,1.8,2v1.8c0,0.4,0,0.8,0.1,1.2H609.7z
		 M609.6,167.5c-1,0-2,0.2-2,1.1c0,0.6,0.4,0.8,0.8,0.8c0.6,0,1-0.4,1.2-0.8c0-0.1,0-0.2,0-0.3V167.5z"/>
	<path class="st1" d="M612.1,165.2l0.9,2.7c0.2,0.4,0.3,0.8,0.4,1.2h0c0.1-0.4,0.3-0.8,0.4-1.2l0.9-2.7h0.9l-1.9,4.8H613l-1.8-4.8
		H612.1z"/>
	<path class="st1" d="M617,167.7c0,1.2,0.8,1.7,1.7,1.7c0.6,0,1-0.1,1.3-0.3l0.1,0.6c-0.3,0.1-0.8,0.3-1.6,0.3c-1.5,0-2.4-1-2.4-2.4
		c0-1.5,0.9-2.6,2.3-2.6c1.6,0,2,1.4,2,2.3c0,0.2,0,0.3,0,0.4H617z M619.5,167.1c0-0.6-0.2-1.4-1.2-1.4c-0.9,0-1.3,0.8-1.3,1.4
		H619.5z"/>
</g>
<g>
	<g>
		<path class="st8" d="M249.3,73.3l-0.4,1.3h-0.5l1.4-4h0.6l1.4,4h-0.6l-0.4-1.3H249.3z M250.6,72.9l-0.4-1.2
			c-0.1-0.3-0.1-0.5-0.2-0.7h0c-0.1,0.2-0.1,0.5-0.2,0.7l-0.4,1.2H250.6z"/>
		<path class="st8" d="M254.3,74.5c-0.1,0.1-0.4,0.2-0.8,0.2c-0.9,0-1.4-0.6-1.4-1.5c0-0.9,0.6-1.5,1.6-1.5c0.3,0,0.6,0.1,0.7,0.1
			l-0.1,0.4c-0.1-0.1-0.3-0.1-0.6-0.1c-0.7,0-1,0.5-1,1.1c0,0.7,0.4,1.1,1,1.1c0.3,0,0.5-0.1,0.6-0.1L254.3,74.5z"/>
		<path class="st8" d="M255.6,70.8v0.8h0.8v0.4h-0.8v1.6c0,0.4,0.1,0.6,0.4,0.6c0.1,0,0.2,0,0.3,0l0,0.4c-0.1,0-0.3,0.1-0.5,0.1
			c-0.2,0-0.4-0.1-0.6-0.2c-0.1-0.2-0.2-0.4-0.2-0.8v-1.6h-0.4v-0.4h0.4V71L255.6,70.8z"/>
		<path class="st8" d="M259.4,73.8c0,0.3,0,0.6,0,0.8h-0.5l0-0.5h0c-0.1,0.2-0.4,0.5-1,0.5c-0.5,0-1-0.3-1-1.3v-1.7h0.5v1.6
			c0,0.6,0.2,0.9,0.6,0.9c0.4,0,0.6-0.2,0.7-0.5c0-0.1,0-0.2,0-0.3v-1.8h0.5V73.8z"/>
		<path class="st8" d="M261.9,74.6l0-0.4h0c-0.2,0.2-0.5,0.4-0.9,0.4c-0.6,0-0.9-0.4-0.9-0.8c0-0.7,0.6-1.1,1.7-1.1v-0.1
			c0-0.2-0.1-0.7-0.7-0.7c-0.3,0-0.6,0.1-0.8,0.2l-0.1-0.3c0.2-0.2,0.6-0.3,1-0.3c0.9,0,1.1,0.6,1.1,1.2v1.1c0,0.3,0,0.5,0,0.7
			H261.9z M261.8,73.1c-0.6,0-1.2,0.1-1.2,0.7c0,0.3,0.2,0.5,0.5,0.5c0.4,0,0.6-0.2,0.7-0.5c0-0.1,0-0.1,0-0.2V73.1z"/>
		<path class="st8" d="M263.1,70.3h0.5v4.3h-0.5V70.3z"/>
	</g>
</g>
<g>
	<path class="st5" d="M249.4,86.9h-1.2v-0.4h3v0.4h-1.2v3.6h-0.5V86.9z"/>
	<path class="st5" d="M252.8,90.5l0-0.4h0c-0.2,0.2-0.5,0.4-0.9,0.4c-0.6,0-0.9-0.4-0.9-0.8c0-0.7,0.6-1.1,1.7-1.1v-0.1
		c0-0.2-0.1-0.7-0.7-0.7c-0.3,0-0.6,0.1-0.8,0.2l-0.1-0.3c0.2-0.2,0.6-0.3,1-0.3c0.9,0,1.1,0.6,1.1,1.2v1.1c0,0.3,0,0.5,0,0.7H252.8
		z M252.7,89c-0.6,0-1.2,0.1-1.2,0.7c0,0.3,0.2,0.5,0.5,0.5c0.4,0,0.6-0.2,0.7-0.5c0-0.1,0-0.1,0-0.2V89z"/>
	<path class="st5" d="M254.1,88.5c0-0.3,0-0.6,0-0.9h0.5l0,0.6h0c0.1-0.4,0.4-0.6,0.8-0.6c0.1,0,0.1,0,0.1,0V88c-0.1,0-0.1,0-0.2,0
		c-0.4,0-0.6,0.3-0.7,0.7c0,0.1,0,0.2,0,0.2v1.5h-0.5V88.5z"/>
	<path class="st5" d="M258.5,87.6c0,0.2,0,0.4,0,0.8v1.7c0,0.7-0.1,1.1-0.4,1.3c-0.3,0.3-0.7,0.3-1.1,0.3c-0.3,0-0.7-0.1-1-0.2
		l0.1-0.4c0.2,0.1,0.5,0.2,0.9,0.2c0.5,0,0.9-0.3,0.9-1V90h0c-0.2,0.3-0.5,0.5-0.9,0.5c-0.7,0-1.2-0.6-1.2-1.4c0-1,0.6-1.5,1.3-1.5
		c0.5,0,0.8,0.3,0.9,0.5h0l0-0.4H258.5z M258,88.7c0-0.1,0-0.2,0-0.2c-0.1-0.3-0.4-0.6-0.7-0.6c-0.5,0-0.9,0.4-0.9,1.1
		c0,0.6,0.3,1,0.9,1c0.3,0,0.6-0.2,0.7-0.5c0-0.1,0-0.2,0-0.3V88.7z"/>
	<path class="st5" d="M259.6,89.1c0,0.7,0.5,1,1,1c0.4,0,0.6-0.1,0.8-0.1l0.1,0.4c-0.2,0.1-0.5,0.2-1,0.2c-0.9,0-1.4-0.6-1.4-1.5
		s0.5-1.6,1.4-1.6c0.9,0,1.2,0.8,1.2,1.4c0,0.1,0,0.2,0,0.2H259.6z M261.2,88.7c0-0.3-0.1-0.9-0.7-0.9c-0.5,0-0.8,0.5-0.8,0.9H261.2
		z"/>
	<path class="st5" d="M263,86.7v0.8h0.8V88H263v1.6c0,0.4,0.1,0.6,0.4,0.6c0.1,0,0.2,0,0.3,0l0,0.4c-0.1,0-0.3,0.1-0.5,0.1
		c-0.2,0-0.4-0.1-0.6-0.2c-0.1-0.2-0.2-0.4-0.2-0.8V88H262v-0.4h0.4v-0.7L263,86.7z"/>
</g>
<rect x="276" y="63.5" class="st13" width="60.5" height="15"/>
<rect x="339.6" y="63.5" class="st13" width="60.5" height="15"/>
<rect x="402.8" y="63.5" class="st13" width="60.5" height="15"/>
<rect x="465.6" y="63.5" class="st13" width="60.5" height="15"/>
<rect x="529.2" y="63.5" class="st13" width="60.5" height="15"/>
<rect x="592.3" y="63.5" class="st13" width="60.5" height="15"/>
<rect x="655.5" y="63.5" class="st13" width="60.5" height="15"/>
<rect x="275.8" y="82.8" class="st14" width="60.5" height="15"/>
<rect x="339.5" y="82.8" class="st14" width="60.5" height="15"/>
<rect x="402.6" y="82.8" class="st14" width="60.5" height="15"/>
<rect x="465.4" y="82.8" class="st14" width="60.5" height="15"/>
<rect x="529" y="82.8" class="st14" width="60.5" height="15"/>
<rect x="592.2" y="82.8" class="st15" width="60.5" height="15"/>
<rect x="655.3" y="82.8" class="st14" width="60.5" height="15"/>
<g>
	<path d="M124.9,119.3l-2.2-6.7h0.9l1,3.3c0.3,0.9,0.5,1.7,0.7,2.5h0c0.2-0.8,0.5-1.6,0.8-2.5l1.1-3.3h0.9l-2.4,6.7H124.9z"/>
	<path d="M129.8,113.1c0,0.3-0.2,0.5-0.6,0.5c-0.3,0-0.5-0.2-0.5-0.5c0-0.3,0.2-0.5,0.5-0.5C129.6,112.5,129.8,112.8,129.8,113.1z
		 M128.8,119.3v-4.8h0.9v4.8H128.8z"/>
	<path d="M131,118.4c0.3,0.2,0.7,0.3,1.2,0.3c0.6,0,0.9-0.3,0.9-0.7c0-0.4-0.3-0.6-0.9-0.9c-0.9-0.3-1.3-0.8-1.3-1.4
		c0-0.8,0.6-1.4,1.7-1.4c0.5,0,0.9,0.1,1.2,0.3l-0.2,0.6c-0.2-0.1-0.5-0.3-1-0.3c-0.5,0-0.8,0.3-0.8,0.7c0,0.4,0.3,0.6,0.9,0.8
		c0.8,0.3,1.3,0.7,1.3,1.5c0,0.8-0.7,1.4-1.8,1.4c-0.5,0-1-0.1-1.4-0.3L131,118.4z"/>
	<path d="M136.1,113.1c0,0.3-0.2,0.5-0.6,0.5c-0.3,0-0.5-0.2-0.5-0.5c0-0.3,0.2-0.5,0.5-0.5C135.9,112.5,136.1,112.8,136.1,113.1z
		 M135.1,119.3v-4.8h0.9v4.8H135.1z"/>
	<path d="M138.5,113.1v1.4h1.3v0.7h-1.3v2.6c0,0.6,0.2,0.9,0.7,0.9c0.2,0,0.4,0,0.5-0.1l0,0.7c-0.2,0.1-0.4,0.1-0.8,0.1
		c-0.4,0-0.7-0.1-0.9-0.4c-0.3-0.3-0.3-0.7-0.3-1.3v-2.6h-0.8v-0.7h0.8v-1.2L138.5,113.1z"/>
	<path d="M145.1,116.8c0,1.8-1.2,2.6-2.4,2.6c-1.3,0-2.3-1-2.3-2.5c0-1.6,1.1-2.6,2.4-2.6C144.1,114.3,145.1,115.3,145.1,116.8z
		 M141.2,116.9c0,1.1,0.6,1.9,1.5,1.9c0.8,0,1.5-0.8,1.5-1.9c0-0.8-0.4-1.9-1.4-1.9C141.7,115,141.2,116,141.2,116.9z"/>
	<path d="M146.2,116c0-0.6,0-1.1,0-1.5h0.8l0,0.9h0c0.2-0.6,0.7-1.1,1.3-1.1c0.1,0,0.2,0,0.2,0v0.8c-0.1,0-0.2,0-0.3,0
		c-0.6,0-1.1,0.5-1.2,1.1c0,0.1,0,0.3,0,0.4v2.6h-0.9V116z"/>
	<path d="M149.3,118.4c0.3,0.2,0.7,0.3,1.2,0.3c0.6,0,0.9-0.3,0.9-0.7c0-0.4-0.3-0.6-0.9-0.9c-0.9-0.3-1.3-0.8-1.3-1.4
		c0-0.8,0.6-1.4,1.7-1.4c0.5,0,0.9,0.1,1.2,0.3l-0.2,0.6c-0.2-0.1-0.5-0.3-1-0.3c-0.5,0-0.8,0.3-0.8,0.7c0,0.4,0.3,0.6,0.9,0.8
		c0.8,0.3,1.3,0.7,1.3,1.5c0,0.8-0.7,1.4-1.8,1.4c-0.5,0-1-0.1-1.4-0.3L149.3,118.4z"/>
</g>
<g>
	<path class="st10" d="M124.2,128l-1.3-4h0.6l0.6,2c0.2,0.5,0.3,1,0.4,1.5h0c0.1-0.5,0.3-1,0.5-1.5l0.7-2h0.6l-1.4,4H124.2z"/>
	<path class="st10" d="M127.1,124.2c0,0.2-0.1,0.3-0.3,0.3c-0.2,0-0.3-0.1-0.3-0.3c0-0.2,0.1-0.3,0.3-0.3
		C127,123.9,127.1,124,127.1,124.2z M126.5,128V125h0.5v2.9H126.5z"/>
	<path class="st10" d="M127.8,127.4c0.2,0.1,0.4,0.2,0.7,0.2c0.4,0,0.6-0.2,0.6-0.4c0-0.3-0.1-0.4-0.5-0.5c-0.5-0.2-0.8-0.5-0.8-0.8
		c0-0.5,0.4-0.9,1-0.9c0.3,0,0.6,0.1,0.7,0.2l-0.1,0.4c-0.1-0.1-0.3-0.2-0.6-0.2c-0.3,0-0.5,0.2-0.5,0.4c0,0.2,0.2,0.3,0.6,0.5
		c0.5,0.2,0.8,0.4,0.8,0.9c0,0.5-0.4,0.9-1.1,0.9c-0.3,0-0.6-0.1-0.8-0.2L127.8,127.4z"/>
	<path class="st10" d="M130.9,124.2c0,0.2-0.1,0.3-0.3,0.3c-0.2,0-0.3-0.1-0.3-0.3c0-0.2,0.1-0.3,0.3-0.3
		C130.8,123.9,130.9,124,130.9,124.2z M130.3,128V125h0.5v2.9H130.3z"/>
	<path class="st10" d="M132.3,124.2v0.8h0.8v0.4h-0.8v1.6c0,0.4,0.1,0.6,0.4,0.6c0.1,0,0.2,0,0.3,0l0,0.4c-0.1,0-0.3,0.1-0.5,0.1
		c-0.2,0-0.4-0.1-0.6-0.2c-0.1-0.2-0.2-0.4-0.2-0.8v-1.6h-0.4V125h0.4v-0.7L132.3,124.2z"/>
	<path class="st10" d="M136.3,126.5c0,1.1-0.7,1.5-1.4,1.5c-0.8,0-1.4-0.6-1.4-1.5c0-1,0.6-1.5,1.4-1.5
		C135.7,125,136.3,125.6,136.3,126.5z M134,126.5c0,0.6,0.4,1.1,0.9,1.1c0.5,0,0.9-0.5,0.9-1.1c0-0.5-0.2-1.1-0.9-1.1
		C134.2,125.4,134,126,134,126.5z"/>
	<path class="st10" d="M136.9,126c0-0.3,0-0.6,0-0.9h0.5l0,0.6h0c0.1-0.4,0.4-0.6,0.8-0.6c0.1,0,0.1,0,0.1,0v0.5c-0.1,0-0.1,0-0.2,0
		c-0.4,0-0.6,0.3-0.7,0.7c0,0.1,0,0.2,0,0.2v1.5h-0.5V126z"/>
	<path class="st10" d="M138.8,127.4c0.2,0.1,0.4,0.2,0.7,0.2c0.4,0,0.6-0.2,0.6-0.4c0-0.3-0.1-0.4-0.5-0.5c-0.5-0.2-0.8-0.5-0.8-0.8
		c0-0.5,0.4-0.9,1-0.9c0.3,0,0.6,0.1,0.7,0.2l-0.1,0.4c-0.1-0.1-0.3-0.2-0.6-0.2c-0.3,0-0.5,0.2-0.5,0.4c0,0.2,0.2,0.3,0.6,0.5
		c0.5,0.2,0.8,0.4,0.8,0.9c0,0.5-0.4,0.9-1.1,0.9c-0.3,0-0.6-0.1-0.8-0.2L138.8,127.4z"/>
	<path class="st10" d="M143.2,124.2v0.8h0.8v0.4h-0.8v1.6c0,0.4,0.1,0.6,0.4,0.6c0.1,0,0.2,0,0.3,0l0,0.4c-0.1,0-0.3,0.1-0.5,0.1
		c-0.2,0-0.4-0.1-0.6-0.2c-0.1-0.2-0.2-0.4-0.2-0.8v-1.6h-0.4V125h0.4v-0.7L143.2,124.2z"/>
	<path class="st10" d="M147.1,126.5c0,1.1-0.7,1.5-1.4,1.5c-0.8,0-1.4-0.6-1.4-1.5c0-1,0.6-1.5,1.4-1.5
		C146.6,125,147.1,125.6,147.1,126.5z M144.8,126.5c0,0.6,0.4,1.1,0.9,1.1c0.5,0,0.9-0.5,0.9-1.1c0-0.5-0.2-1.1-0.9-1.1
		C145.1,125.4,144.8,126,144.8,126.5z"/>
	<path class="st10" d="M150.3,123.7v3.5c0,0.3,0,0.6,0,0.7h-0.5l0-0.5h0c-0.2,0.3-0.5,0.6-1,0.6c-0.7,0-1.2-0.6-1.2-1.5
		c0-1,0.6-1.6,1.3-1.6c0.4,0,0.7,0.2,0.9,0.4h0v-1.7H150.3z M149.8,126.2c0-0.1,0-0.2,0-0.2c-0.1-0.3-0.4-0.6-0.8-0.6
		c-0.5,0-0.9,0.5-0.9,1.1c0,0.6,0.3,1.1,0.9,1.1c0.4,0,0.7-0.2,0.8-0.6c0-0.1,0-0.1,0-0.2V126.2z"/>
	<path class="st10" d="M152.8,128l0-0.4h0c-0.2,0.2-0.5,0.4-0.9,0.4c-0.6,0-0.9-0.4-0.9-0.8c0-0.7,0.6-1.1,1.7-1.1V126
		c0-0.2-0.1-0.7-0.7-0.7c-0.3,0-0.6,0.1-0.8,0.2l-0.1-0.3c0.2-0.2,0.6-0.3,1-0.3c0.9,0,1.1,0.6,1.1,1.2v1.1c0,0.3,0,0.5,0,0.7H152.8
		z M152.7,126.5c-0.6,0-1.2,0.1-1.2,0.7c0,0.3,0.2,0.5,0.5,0.5c0.4,0,0.6-0.2,0.7-0.5c0-0.1,0-0.1,0-0.2V126.5z"/>
	<path class="st10" d="M154.2,125l0.6,1.7c0.1,0.2,0.1,0.4,0.2,0.6h0c0.1-0.2,0.1-0.4,0.2-0.6l0.6-1.7h0.6l-0.8,2.1
		c-0.4,1-0.6,1.5-1,1.8c-0.3,0.2-0.5,0.3-0.6,0.3l-0.1-0.4c0.1,0,0.3-0.1,0.5-0.3c0.1-0.1,0.3-0.3,0.4-0.6c0-0.1,0-0.1,0-0.1
		s0-0.1,0-0.1l-1.1-2.7H154.2z"/>
</g>
<g>
	<ellipse class="st0" cx="103.5" cy="127.7" rx="8.2" ry="1"/>
	
		<linearGradient id="SVGID_2_" gradientUnits="userSpaceOnUse" x1="103.3856" y1="112.0127" x2="103.3856" y2="130.7" gradientTransform="matrix(1 0 0 -1 0 240)">
		<stop  offset="0" style="stop-color:#750B0B"/>
		<stop  offset="0.5271" style="stop-color:#ED1C24"/>
		<stop  offset="1" style="stop-color:#FE6F6F"/>
		<stop  offset="1" style="stop-color:#000000"/>
	</linearGradient>
	<circle class="st16" cx="103.4" cy="118.7" r="9.3"/>
	<path class="st1" d="M103.4,111.7c-3.8,0-6.8,3-6.8,6.8c0,3.8,3,6.8,6.8,6.8s6.8-3,6.8-6.8C110.2,114.8,107.1,111.7,103.4,111.7z
		 M103.4,122.9c-2.5,0-4.5-2-4.5-4.5c0-2.5,2-4.5,4.5-4.5c2.5,0,4.5,2,4.5,4.5C107.9,120.9,105.9,122.9,103.4,122.9z"/>
	<circle class="st1" cx="103.4" cy="118.4" r="1.9"/>
</g>
<g>
	<path class="st10" d="M78.2,118.3c0,1.3-0.5,2.1-1.4,2.1c-0.8,0-1.3-0.7-1.3-2c0-1.3,0.6-2,1.4-2C77.7,116.4,78.2,117.1,78.2,118.3
		z M76.1,118.4c0,1,0.3,1.6,0.8,1.6c0.5,0,0.8-0.6,0.8-1.6c0-1-0.2-1.6-0.8-1.6C76.4,116.8,76.1,117.3,76.1,118.4z"/>
	<path class="st10" d="M78.7,120.3V120l0.4-0.4c1-0.9,1.4-1.5,1.5-2c0-0.4-0.2-0.8-0.8-0.8c-0.4,0-0.6,0.2-0.8,0.3l-0.2-0.4
		c0.3-0.2,0.7-0.4,1.1-0.4c0.8,0,1.2,0.6,1.2,1.1c0,0.7-0.5,1.3-1.3,2.1l-0.3,0.3v0h1.8v0.4H78.7z"/>
</g>
<g>
	<g>
		<path class="st8" d="M249.3,117.6l-0.4,1.3h-0.5l1.4-4h0.6l1.4,4h-0.6l-0.4-1.3H249.3z M250.6,117.2l-0.4-1.2
			c-0.1-0.3-0.1-0.5-0.2-0.7h0c-0.1,0.2-0.1,0.5-0.2,0.7l-0.4,1.2H250.6z"/>
		<path class="st8" d="M254.3,118.8c-0.1,0.1-0.4,0.2-0.8,0.2c-0.9,0-1.4-0.6-1.4-1.5c0-0.9,0.6-1.5,1.6-1.5c0.3,0,0.6,0.1,0.7,0.1
			l-0.1,0.4c-0.1-0.1-0.3-0.1-0.6-0.1c-0.7,0-1,0.5-1,1.1c0,0.7,0.4,1.1,1,1.1c0.3,0,0.5-0.1,0.6-0.1L254.3,118.8z"/>
		<path class="st8" d="M255.6,115.1v0.8h0.8v0.4h-0.8v1.6c0,0.4,0.1,0.6,0.4,0.6c0.1,0,0.2,0,0.3,0l0,0.4c-0.1,0-0.3,0.1-0.5,0.1
			c-0.2,0-0.4-0.1-0.6-0.2c-0.1-0.2-0.2-0.4-0.2-0.8v-1.6h-0.4V116h0.4v-0.7L255.6,115.1z"/>
		<path class="st8" d="M259.4,118.1c0,0.3,0,0.6,0,0.8h-0.5l0-0.5h0c-0.1,0.2-0.4,0.5-1,0.5c-0.5,0-1-0.3-1-1.3V116h0.5v1.6
			c0,0.6,0.2,0.9,0.6,0.9c0.4,0,0.6-0.2,0.7-0.5c0-0.1,0-0.2,0-0.3V116h0.5V118.1z"/>
		<path class="st8" d="M261.9,118.9l0-0.4h0c-0.2,0.2-0.5,0.4-0.9,0.4c-0.6,0-0.9-0.4-0.9-0.8c0-0.7,0.6-1.1,1.7-1.1V117
			c0-0.2-0.1-0.7-0.7-0.7c-0.3,0-0.6,0.1-0.8,0.2l-0.1-0.3c0.2-0.2,0.6-0.3,1-0.3c0.9,0,1.1,0.6,1.1,1.2v1.1c0,0.3,0,0.5,0,0.7
			H261.9z M261.8,117.4c-0.6,0-1.2,0.1-1.2,0.7c0,0.3,0.2,0.5,0.5,0.5c0.4,0,0.6-0.2,0.7-0.5c0-0.1,0-0.1,0-0.2V117.4z"/>
		<path class="st8" d="M263.1,114.6h0.5v4.3h-0.5V114.6z"/>
	</g>
</g>
<g>
	<path class="st5" d="M249.4,131.2h-1.2v-0.4h3v0.4h-1.2v3.6h-0.5V131.2z"/>
	<path class="st5" d="M252.8,134.8l0-0.4h0c-0.2,0.2-0.5,0.4-0.9,0.4c-0.6,0-0.9-0.4-0.9-0.8c0-0.7,0.6-1.1,1.7-1.1v-0.1
		c0-0.2-0.1-0.7-0.7-0.7c-0.3,0-0.6,0.1-0.8,0.2l-0.1-0.3c0.2-0.2,0.6-0.3,1-0.3c0.9,0,1.1,0.6,1.1,1.2v1.1c0,0.3,0,0.5,0,0.7H252.8
		z M252.7,133.3c-0.6,0-1.2,0.1-1.2,0.7c0,0.3,0.2,0.5,0.5,0.5c0.4,0,0.6-0.2,0.7-0.5c0-0.1,0-0.1,0-0.2V133.3z"/>
	<path class="st5" d="M254.1,132.8c0-0.3,0-0.6,0-0.9h0.5l0,0.6h0c0.1-0.4,0.4-0.6,0.8-0.6c0.1,0,0.1,0,0.1,0v0.5
		c-0.1,0-0.1,0-0.2,0c-0.4,0-0.6,0.3-0.7,0.7c0,0.1,0,0.2,0,0.2v1.5h-0.5V132.8z"/>
	<path class="st5" d="M258.5,131.9c0,0.2,0,0.4,0,0.8v1.7c0,0.7-0.1,1.1-0.4,1.3c-0.3,0.3-0.7,0.3-1.1,0.3c-0.3,0-0.7-0.1-1-0.2
		l0.1-0.4c0.2,0.1,0.5,0.2,0.9,0.2c0.5,0,0.9-0.3,0.9-1v-0.3h0c-0.2,0.3-0.5,0.5-0.9,0.5c-0.7,0-1.2-0.6-1.2-1.4
		c0-1,0.6-1.5,1.3-1.5c0.5,0,0.8,0.3,0.9,0.5h0l0-0.4H258.5z M258,133c0-0.1,0-0.2,0-0.2c-0.1-0.3-0.4-0.6-0.7-0.6
		c-0.5,0-0.9,0.4-0.9,1.1c0,0.6,0.3,1,0.9,1c0.3,0,0.6-0.2,0.7-0.5c0-0.1,0-0.2,0-0.3V133z"/>
	<path class="st5" d="M259.6,133.4c0,0.7,0.5,1,1,1c0.4,0,0.6-0.1,0.8-0.1l0.1,0.4c-0.2,0.1-0.5,0.2-1,0.2c-0.9,0-1.4-0.6-1.4-1.5
		c0-0.9,0.5-1.6,1.4-1.6c0.9,0,1.2,0.8,1.2,1.4c0,0.1,0,0.2,0,0.2H259.6z M261.2,133c0-0.3-0.1-0.9-0.7-0.9c-0.5,0-0.8,0.5-0.8,0.9
		H261.2z"/>
	<path class="st5" d="M263,131v0.8h0.8v0.4H263v1.6c0,0.4,0.1,0.6,0.4,0.6c0.1,0,0.2,0,0.3,0l0,0.4c-0.1,0-0.3,0.1-0.5,0.1
		c-0.2,0-0.4-0.1-0.6-0.2c-0.1-0.2-0.2-0.4-0.2-0.8v-1.6H262v-0.4h0.4v-0.7L263,131z"/>
</g>
<rect x="276" y="107.8" class="st13" width="60.5" height="15"/>
<rect x="339.6" y="107.8" class="st13" width="60.5" height="15"/>
<rect x="402.8" y="107.8" class="st13" width="60.5" height="15"/>
<rect x="465.6" y="107.8" class="st13" width="60.5" height="15"/>
<rect x="529.2" y="107.8" class="st13" width="60.5" height="15"/>
<rect x="592.3" y="107.8" class="st13" width="60.5" height="15"/>
<rect x="655.5" y="107.8" class="st13" width="60.5" height="15"/>
<rect x="275.8" y="127.1" class="st14" width="60.5" height="15"/>
<rect x="339.5" y="127.1" class="st14" width="60.5" height="15"/>
<rect x="402.6" y="127.1" class="st14" width="60.5" height="15"/>
<rect x="465.4" y="127.1" class="st14" width="60.5" height="15"/>
<rect x="529" y="127.1" class="st14" width="60.5" height="15"/>
<rect x="592.2" y="127.1" class="st15" width="60.5" height="15"/>
<rect x="655.3" y="127.1" class="st14" width="60.5" height="15"/>
<g>
	<path class="st17" d="M677.8,19.7l-1.5-4.7h0.7l0.7,2.3c0.2,0.6,0.4,1.2,0.5,1.8h0c0.1-0.5,0.3-1.1,0.5-1.8l0.8-2.3h0.7l-1.7,4.7
		H677.8z"/>
	<path class="st17" d="M681.3,15.3c0,0.2-0.1,0.4-0.4,0.4c-0.2,0-0.4-0.2-0.4-0.4c0-0.2,0.2-0.4,0.4-0.4
		C681.1,15,681.3,15.1,681.3,15.3z M680.6,19.7v-3.4h0.6v3.4H680.6z"/>
	<path class="st17" d="M682.6,18.1c0,0.8,0.5,1.2,1.2,1.2c0.4,0,0.7-0.1,0.9-0.2l0.1,0.4c-0.2,0.1-0.6,0.2-1.1,0.2
		c-1,0-1.7-0.7-1.7-1.7c0-1,0.6-1.8,1.6-1.8c1.1,0,1.4,1,1.4,1.6c0,0.1,0,0.2,0,0.3H682.6z M684.4,17.7c0-0.4-0.2-1-0.9-1
		c-0.6,0-0.9,0.6-0.9,1H684.4z"/>
	<path class="st17" d="M686,16.3l0.4,1.7c0.1,0.4,0.2,0.7,0.3,1.1h0c0.1-0.3,0.2-0.7,0.3-1.1l0.6-1.7h0.5l0.5,1.7
		c0.1,0.4,0.2,0.8,0.3,1.1h0c0.1-0.3,0.1-0.7,0.3-1.1l0.5-1.7h0.6l-1.1,3.4h-0.6l-0.5-1.6c-0.1-0.4-0.2-0.7-0.3-1.1h0
		c-0.1,0.4-0.2,0.8-0.3,1.1l-0.5,1.6h-0.6l-1-3.4H686z"/>
</g>
<rect x="701.3" y="13" class="st8" width="3.6" height="2.3"/>
<rect x="701.3" y="16" class="st18" width="3.6" height="2.3"/>
<rect x="701.3" y="19.2" class="st18" width="3.6" height="2.3"/>
<rect x="718.3" y="13" class="st8" width="3.6" height="2.3"/>
<rect x="718.3" y="16.1" class="st18" width="3.6" height="2.3"/>
<rect x="718.3" y="19.2" class="st18" width="3.6" height="2.3"/>
<rect x="723.3" y="13" class="st8" width="3.6" height="2.3"/>
<rect x="723.3" y="16.1" class="st18" width="3.6" height="2.3"/>
<rect x="723.3" y="19.2" class="st18" width="3.6" height="2.3"/>
<rect x="728.3" y="13" class="st8" width="3.6" height="2.3"/>
<rect x="728.3" y="16.1" class="st18" width="3.6" height="2.3"/>
<rect x="728.3" y="19.2" class="st18" width="3.6" height="2.3"/>
<g>
	<path d="M302.2,68.8L302.2,68.8l-0.9,0.5l-0.1-0.5l1.1-0.6h0.6v5.2h-0.7V68.8z"/>
	<path d="M308.3,70.7c0,1.8-0.7,2.7-1.8,2.7c-1,0-1.7-1-1.7-2.7c0-1.7,0.8-2.7,1.8-2.7C307.6,68.1,308.3,69.1,308.3,70.7z
		 M305.4,70.8c0,1.4,0.4,2.1,1.1,2.1c0.7,0,1.1-0.8,1.1-2.2c0-1.3-0.3-2.1-1.1-2.1C305.9,68.6,305.4,69.4,305.4,70.8z"/>
	<path d="M312.4,70.7c0,1.8-0.7,2.7-1.8,2.7c-1,0-1.7-1-1.7-2.7c0-1.7,0.8-2.7,1.8-2.7C311.7,68.1,312.4,69.1,312.4,70.7z
		 M309.5,70.8c0,1.4,0.4,2.1,1.1,2.1c0.7,0,1.1-0.8,1.1-2.2c0-1.3-0.3-2.1-1.1-2.1C310,68.6,309.5,69.4,309.5,70.8z"/>
</g>
<g>
	<path d="M367.2,68.8L367.2,68.8l-0.9,0.5l-0.1-0.5l1.1-0.6h0.6v5.2h-0.7V68.8z"/>
	<path d="M373.3,70.7c0,1.8-0.7,2.7-1.8,2.7c-1,0-1.7-1-1.7-2.7c0-1.7,0.8-2.7,1.8-2.7C372.6,68.1,373.3,69.1,373.3,70.7z
		 M370.4,70.8c0,1.4,0.4,2.1,1.1,2.1c0.7,0,1.1-0.8,1.1-2.2c0-1.3-0.3-2.1-1.1-2.1C370.9,68.6,370.4,69.4,370.4,70.8z"/>
	<path d="M373.9,73.4v-0.4l0.6-0.5c1.3-1.3,1.9-1.9,1.9-2.7c0-0.5-0.3-1-1-1c-0.5,0-0.9,0.2-1.1,0.4l-0.2-0.5
		c0.4-0.3,0.9-0.5,1.5-0.5c1.1,0,1.6,0.8,1.6,1.5c0,1-0.7,1.7-1.8,2.8l-0.4,0.4v0h2.3v0.6H373.9z"/>
</g>
<g>
	<path d="M424.7,73.4v-0.4l0.6-0.5c1.3-1.3,1.9-1.9,1.9-2.7c0-0.5-0.3-1-1-1c-0.5,0-0.9,0.2-1.1,0.4l-0.2-0.5
		c0.4-0.3,0.9-0.5,1.5-0.5c1.1,0,1.6,0.8,1.6,1.5c0,1-0.7,1.7-1.8,2.8l-0.4,0.4v0h2.3v0.6H424.7z"/>
	<path d="M429,72.6c0.2,0.1,0.7,0.3,1.2,0.3c0.9,0,1.2-0.6,1.2-1c0-0.7-0.7-1-1.3-1h-0.4v-0.5h0.4c0.5,0,1.2-0.3,1.2-0.9
		c0-0.4-0.3-0.8-0.9-0.8c-0.4,0-0.8,0.2-1,0.3l-0.2-0.5c0.3-0.2,0.8-0.4,1.4-0.4c1,0,1.5,0.6,1.5,1.2c0,0.5-0.3,1-1,1.2v0
		c0.6,0.1,1.2,0.6,1.2,1.3c0,0.8-0.6,1.6-1.9,1.6c-0.6,0-1.1-0.2-1.4-0.4L429,72.6z"/>
	<path d="M433.1,72.6c0.2,0.1,0.7,0.3,1.2,0.3c0.9,0,1.2-0.6,1.2-1c0-0.7-0.7-1-1.3-1h-0.4v-0.5h0.4c0.5,0,1.2-0.3,1.2-0.9
		c0-0.4-0.3-0.8-0.9-0.8c-0.4,0-0.8,0.2-1,0.3l-0.2-0.5c0.3-0.2,0.8-0.4,1.4-0.4c1,0,1.5,0.6,1.5,1.2c0,0.5-0.3,1-1,1.2v0
		c0.6,0.1,1.2,0.6,1.2,1.3c0,0.8-0.6,1.6-1.9,1.6c-0.6,0-1.1-0.2-1.4-0.4L433.1,72.6z"/>
</g>
<g>
	<path d="M486.9,71.6c0.2,0.1,0.7,0.3,1.2,0.3c0.9,0,1.2-0.6,1.2-1c0-0.7-0.7-1-1.3-1h-0.4v-0.5h0.4c0.5,0,1.2-0.3,1.2-0.9
		c0-0.4-0.3-0.8-0.9-0.8c-0.4,0-0.8,0.2-1,0.3l-0.2-0.5c0.3-0.2,0.8-0.4,1.4-0.4c1,0,1.5,0.6,1.5,1.2c0,0.5-0.3,1-1,1.2v0
		c0.6,0.1,1.2,0.6,1.2,1.3c0,0.8-0.6,1.6-1.9,1.6c-0.6,0-1.1-0.2-1.4-0.4L486.9,71.6z"/>
	<path d="M493,72.4V71h-2.4v-0.5l2.3-3.3h0.8v3.2h0.7V71h-0.7v1.4H493z M493,70.4v-1.7c0-0.3,0-0.5,0-0.8h0
		c-0.2,0.3-0.3,0.5-0.4,0.8l-1.3,1.8v0H493z"/>
	<path d="M495.1,71.6c0.2,0.1,0.7,0.3,1.2,0.3c0.9,0,1.2-0.6,1.2-1c0-0.7-0.7-1-1.3-1h-0.4v-0.5h0.4c0.5,0,1.2-0.3,1.2-0.9
		c0-0.4-0.3-0.8-0.9-0.8c-0.4,0-0.8,0.2-1,0.3l-0.2-0.5c0.3-0.2,0.8-0.4,1.4-0.4c1,0,1.5,0.6,1.5,1.2c0,0.5-0.3,1-1,1.2v0
		c0.6,0.1,1.2,0.6,1.2,1.3c0,0.8-0.6,1.6-1.9,1.6c-0.6,0-1.1-0.2-1.4-0.4L495.1,71.6z"/>
</g>
<g>
	<path d="M547.7,72.4v-0.4l0.6-0.5c1.3-1.3,1.9-1.9,1.9-2.7c0-0.5-0.3-1-1-1c-0.5,0-0.9,0.2-1.1,0.4l-0.2-0.5
		c0.4-0.3,0.9-0.5,1.5-0.5c1.1,0,1.6,0.8,1.6,1.5c0,1-0.7,1.7-1.8,2.8l-0.4,0.4v0h2.3v0.6H547.7z"/>
	<path d="M552,71.6c0.2,0.1,0.7,0.3,1.2,0.3c0.9,0,1.2-0.6,1.2-1c0-0.7-0.7-1-1.3-1h-0.4v-0.5h0.4c0.5,0,1.2-0.3,1.2-0.9
		c0-0.4-0.3-0.8-0.9-0.8c-0.4,0-0.8,0.2-1,0.3l-0.2-0.5c0.3-0.2,0.8-0.4,1.4-0.4c1,0,1.5,0.6,1.5,1.2c0,0.5-0.3,1-1,1.2v0
		c0.6,0.1,1.2,0.6,1.2,1.3c0,0.8-0.6,1.6-1.9,1.6c-0.6,0-1.1-0.2-1.4-0.4L552,71.6z"/>
	<path d="M558.1,72.4V71h-2.4v-0.5l2.3-3.3h0.8v3.2h0.7V71h-0.7v1.4H558.1z M558.1,70.4v-1.7c0-0.3,0-0.5,0-0.8h0
		c-0.2,0.3-0.3,0.5-0.4,0.8l-1.3,1.8v0H558.1z"/>
</g>
<g>
	<path d="M616.6,72c0-0.7,0.4-1.1,1-1.4l0,0c-0.6-0.3-0.8-0.7-0.8-1.2c0-0.8,0.7-1.4,1.6-1.4c1,0,1.5,0.6,1.5,1.3
		c0,0.4-0.2,0.9-0.9,1.2v0c0.6,0.3,1,0.7,1,1.3c0,0.9-0.8,1.5-1.8,1.5C617.3,73.5,616.6,72.8,616.6,72z M619.4,72
		c0-0.6-0.4-0.9-1.1-1.1c-0.6,0.2-0.9,0.6-0.9,1.1c0,0.5,0.4,1,1,1C619,72.9,619.4,72.6,619.4,72z M617.5,69.4c0,0.5,0.4,0.8,1,1
		c0.4-0.2,0.8-0.5,0.8-0.9c0-0.4-0.2-0.8-0.9-0.8C617.8,68.6,617.5,69,617.5,69.4z"/>
	<path d="M621.2,72.9c0.2,0,0.3,0,0.6,0c0.4-0.1,0.8-0.2,1.1-0.5c0.3-0.3,0.6-0.8,0.7-1.4h0c-0.3,0.4-0.7,0.6-1.2,0.6
		c-0.9,0-1.5-0.7-1.5-1.6c0-1,0.7-1.8,1.8-1.8s1.7,0.9,1.7,2.2c0,1.1-0.4,1.9-0.9,2.4c-0.4,0.4-1,0.6-1.5,0.7c-0.3,0-0.5,0-0.6,0
		V72.9z M621.5,69.9c0,0.6,0.4,1.1,1,1.1c0.5,0,0.8-0.2,1-0.5c0-0.1,0.1-0.1,0.1-0.3c0-0.9-0.3-1.6-1.1-1.6
		C621.9,68.6,621.5,69.1,621.5,69.9z"/>
	<path d="M628.4,70.7c0,1.8-0.7,2.7-1.8,2.7c-1,0-1.7-1-1.7-2.7c0-1.7,0.8-2.7,1.8-2.7C627.7,68.1,628.4,69.1,628.4,70.7z
		 M625.5,70.8c0,1.4,0.4,2.1,1.1,2.1c0.7,0,1.1-0.8,1.1-2.2c0-1.3-0.3-2.1-1.1-2.1C626,68.6,625.5,69.4,625.5,70.8z"/>
	<path d="M630.9,70.9v0.5h-2v-0.5H630.9z"/>
</g>
<g>
	<path d="M301.1,92.7v-0.4l0.6-0.5c1.3-1.3,1.9-1.9,1.9-2.7c0-0.5-0.3-1-1-1c-0.5,0-0.9,0.2-1.1,0.4l-0.2-0.5
		c0.4-0.3,0.9-0.5,1.5-0.5c1.1,0,1.6,0.8,1.6,1.5c0,1-0.7,1.7-1.8,2.8l-0.4,0.4v0h2.3v0.6H301.1z"/>
	<path d="M308.7,90c0,1.8-0.7,2.7-1.8,2.7c-1,0-1.7-1-1.7-2.7c0-1.7,0.8-2.7,1.8-2.7C308,87.4,308.7,88.4,308.7,90z M305.8,90.1
		c0,1.4,0.4,2.1,1.1,2.1c0.7,0,1.1-0.8,1.1-2.2c0-1.3-0.3-2.1-1.1-2.1C306.3,88,305.8,88.7,305.8,90.1z"/>
	<path d="M312.8,90c0,1.8-0.7,2.7-1.8,2.7c-1,0-1.7-1-1.7-2.7c0-1.7,0.8-2.7,1.8-2.7C312.1,87.4,312.8,88.4,312.8,90z M309.9,90.1
		c0,1.4,0.4,2.1,1.1,2.1c0.7,0,1.1-0.8,1.1-2.2c0-1.3-0.3-2.1-1.1-2.1C310.4,88,309.9,88.7,309.9,90.1z"/>
</g>
<g>
	<path d="M366.1,92.7v-0.4l0.6-0.5c1.3-1.3,1.9-1.9,1.9-2.7c0-0.5-0.3-1-1-1c-0.5,0-0.9,0.2-1.1,0.4l-0.2-0.5
		c0.4-0.3,0.9-0.5,1.5-0.5c1.1,0,1.6,0.8,1.6,1.5c0,1-0.7,1.7-1.8,2.8l-0.4,0.4v0h2.3v0.6H366.1z"/>
	<path d="M373.7,90c0,1.8-0.7,2.7-1.8,2.7c-1,0-1.7-1-1.7-2.7c0-1.7,0.8-2.7,1.8-2.7C373,87.4,373.7,88.4,373.7,90z M370.8,90.1
		c0,1.4,0.4,2.1,1.1,2.1c0.7,0,1.1-0.8,1.1-2.2c0-1.3-0.3-2.1-1.1-2.1C371.3,88,370.8,88.7,370.8,90.1z"/>
	<path d="M377.8,90c0,1.8-0.7,2.7-1.8,2.7c-1,0-1.7-1-1.7-2.7c0-1.7,0.8-2.7,1.8-2.7C377.1,87.4,377.8,88.4,377.8,90z M374.9,90.1
		c0,1.4,0.4,2.1,1.1,2.1c0.7,0,1.1-0.8,1.1-2.2c0-1.3-0.3-2.1-1.1-2.1C375.4,88,374.9,88.7,374.9,90.1z"/>
</g>
<g>
	<path d="M425.1,92.7v-0.4l0.6-0.5c1.3-1.3,1.9-1.9,1.9-2.7c0-0.5-0.3-1-1-1c-0.5,0-0.9,0.2-1.1,0.4l-0.2-0.5
		c0.4-0.3,0.9-0.5,1.5-0.5c1.1,0,1.6,0.8,1.6,1.5c0,1-0.7,1.7-1.8,2.8l-0.4,0.4v0h2.3v0.6H425.1z"/>
	<path d="M432.7,90c0,1.8-0.7,2.7-1.8,2.7c-1,0-1.7-1-1.7-2.7c0-1.7,0.8-2.7,1.8-2.7C432,87.4,432.7,88.4,432.7,90z M429.8,90.1
		c0,1.4,0.4,2.1,1.1,2.1c0.7,0,1.1-0.8,1.1-2.2c0-1.3-0.3-2.1-1.1-2.1C430.3,88,429.8,88.7,429.8,90.1z"/>
	<path d="M436.8,90c0,1.8-0.7,2.7-1.8,2.7c-1,0-1.7-1-1.7-2.7c0-1.7,0.8-2.7,1.8-2.7C436.1,87.4,436.8,88.4,436.8,90z M433.9,90.1
		c0,1.4,0.4,2.1,1.1,2.1c0.7,0,1.1-0.8,1.1-2.2c0-1.3-0.3-2.1-1.1-2.1C434.4,88,433.9,88.7,433.9,90.1z"/>
</g>
<g>
	<path d="M487.1,91.7v-0.4l0.6-0.5c1.3-1.3,1.9-1.9,1.9-2.7c0-0.5-0.3-1-1-1c-0.5,0-0.9,0.2-1.1,0.4l-0.2-0.5
		c0.4-0.3,0.9-0.5,1.5-0.5c1.1,0,1.6,0.8,1.6,1.5c0,1-0.7,1.7-1.8,2.8l-0.4,0.4v0h2.3v0.6H487.1z"/>
	<path d="M494.7,89c0,1.8-0.7,2.7-1.8,2.7c-1,0-1.7-1-1.7-2.7c0-1.7,0.8-2.7,1.8-2.7C494,86.4,494.7,87.4,494.7,89z M491.8,89.1
		c0,1.4,0.4,2.1,1.1,2.1c0.7,0,1.1-0.8,1.1-2.2c0-1.3-0.3-2.1-1.1-2.1C492.3,87,491.8,87.7,491.8,89.1z"/>
	<path d="M498.8,89c0,1.8-0.7,2.7-1.8,2.7c-1,0-1.7-1-1.7-2.7c0-1.7,0.8-2.7,1.8-2.7C498.1,86.4,498.8,87.4,498.8,89z M495.9,89.1
		c0,1.4,0.4,2.1,1.1,2.1c0.7,0,1.1-0.8,1.1-2.2c0-1.3-0.3-2.1-1.1-2.1C496.4,87,495.9,87.7,495.9,89.1z"/>
</g>
<g>
	<path d="M548.1,91.7v-0.4l0.6-0.5c1.3-1.3,1.9-1.9,1.9-2.7c0-0.5-0.3-1-1-1c-0.5,0-0.9,0.2-1.1,0.4l-0.2-0.5
		c0.4-0.3,0.9-0.5,1.5-0.5c1.1,0,1.6,0.8,1.6,1.5c0,1-0.7,1.7-1.8,2.8l-0.4,0.4v0h2.3v0.6H548.1z"/>
	<path d="M555.7,89c0,1.8-0.7,2.7-1.8,2.7c-1,0-1.7-1-1.7-2.7c0-1.7,0.8-2.7,1.8-2.7C555,86.4,555.7,87.4,555.7,89z M552.8,89.1
		c0,1.4,0.4,2.1,1.1,2.1c0.7,0,1.1-0.8,1.1-2.2c0-1.3-0.3-2.1-1.1-2.1C553.3,87,552.8,87.7,552.8,89.1z"/>
	<path d="M559.8,89c0,1.8-0.7,2.7-1.8,2.7c-1,0-1.7-1-1.7-2.7c0-1.7,0.8-2.7,1.8-2.7C559.1,86.4,559.8,87.4,559.8,89z M556.9,89.1
		c0,1.4,0.4,2.1,1.1,2.1c0.7,0,1.1-0.8,1.1-2.2c0-1.3-0.3-2.1-1.1-2.1C557.4,87,556.9,87.7,556.9,89.1z"/>
</g>
<g>
	<path d="M617.1,92.7v-0.4l0.6-0.5c1.3-1.3,1.9-1.9,1.9-2.7c0-0.5-0.3-1-1-1c-0.5,0-0.9,0.2-1.1,0.4l-0.2-0.5
		c0.4-0.3,0.9-0.5,1.5-0.5c1.1,0,1.6,0.8,1.6,1.5c0,1-0.7,1.7-1.8,2.8l-0.4,0.4v0h2.3v0.6H617.1z"/>
	<path d="M624.7,90c0,1.8-0.7,2.7-1.8,2.7c-1,0-1.7-1-1.7-2.7c0-1.7,0.8-2.7,1.8-2.7C624,87.4,624.7,88.4,624.7,90z M621.8,90.1
		c0,1.4,0.4,2.1,1.1,2.1c0.7,0,1.1-0.8,1.1-2.2c0-1.3-0.3-2.1-1.1-2.1C622.3,88,621.8,88.7,621.8,90.1z"/>
	<path d="M628.8,90c0,1.8-0.7,2.7-1.8,2.7c-1,0-1.7-1-1.7-2.7c0-1.7,0.8-2.7,1.8-2.7C628.1,87.4,628.8,88.4,628.8,90z M625.9,90.1
		c0,1.4,0.4,2.1,1.1,2.1c0.7,0,1.1-0.8,1.1-2.2c0-1.3-0.3-2.1-1.1-2.1C626.4,88,625.9,88.7,625.9,90.1z"/>
</g>
</svg>
