<?xml version="1.0" encoding="utf-8"?>
<!-- Generator: Adobe Illustrator 19.2.0, SVG Export Plug-In . SVG Version: 6.00 Build 0)  -->
<svg version="1.1" id="Layer_1" xmlns="http://www.w3.org/2000/svg" xmlns:xlink="http://www.w3.org/1999/xlink" x="0px" y="0px"
	 viewBox="0 0 780 240" style="enable-background:new 0 0 780 240;" xml:space="preserve">
<style type="text/css">
	.st0{fill:#E7E7E6;}
	.st1{fill:#FFFFFF;}
	.st2{fill:#D1D3D4;}
	.st3{fill:#00AEEF;}
	.st4{fill:#E6E7E8;}
	.st5{fill:#58595B;}
	.st6{fill:#8DC63F;}
	.st7{fill:#99CA3C;}
	.st8{fill:#808285;}
	.st9{fill:#27AAE1;}
	.st10{fill:#A7A9AC;}
	.st11{fill:#29ABE2;}
	.st12{fill:#ACDCF6;}
	.st13{fill:none;stroke:#62A3D9;stroke-miterlimit:10;}
	.st14{fill:#6D6E71;}
	.st15{fill:#939598;}
	.st16{fill:#010101;}
</style>
<rect x="163" y="39" class="st0" width="465.3" height="201"/>
<rect x="169.7" y="68.7" class="st1" width="452" height="21.3"/>
<rect x="605.7" y="45.7" class="st1" width="16" height="16"/>
<rect x="585.3" y="45.7" class="st1" width="16" height="16"/>
<rect x="169.7" y="120.7" class="st1" width="452" height="119.3"/>
<rect x="605.5" y="97" class="st2" width="16" height="16"/>
<rect x="585.2" y="97" class="st2" width="16" height="16"/>
<g>
	<path d="M182.4,75.7c0.4-0.1,1.1-0.1,1.7-0.1c0.9,0,1.5,0.2,1.9,0.5c0.3,0.3,0.5,0.8,0.5,1.3c0,0.9-0.6,1.5-1.3,1.7v0
		c0.5,0.2,0.8,0.7,1,1.4c0.2,0.9,0.4,1.6,0.5,1.8h-0.9c-0.1-0.2-0.3-0.8-0.4-1.6c-0.2-0.9-0.6-1.3-1.3-1.3h-0.8v2.9h-0.9V75.7z
		 M183.3,78.8h0.9c0.9,0,1.5-0.5,1.5-1.3c0-0.9-0.6-1.2-1.5-1.3c-0.4,0-0.7,0-0.9,0.1V78.8z"/>
	<path d="M188.3,80.1c0,1.2,0.8,1.7,1.7,1.7c0.6,0,1-0.1,1.3-0.3l0.1,0.6c-0.3,0.1-0.8,0.3-1.6,0.3c-1.5,0-2.4-1-2.4-2.4
		c0-1.5,0.9-2.6,2.3-2.6c1.6,0,2,1.4,2,2.3c0,0.2,0,0.3,0,0.4H188.3z M190.9,79.4c0-0.6-0.2-1.4-1.2-1.4c-0.9,0-1.3,0.8-1.3,1.4
		H190.9z"/>
	<path d="M192.8,79.1c0-0.6,0-1.1,0-1.6h0.8l0,0.8h0c0.4-0.6,0.9-0.9,1.7-0.9c1.2,0,2,1,2,2.5c0,1.7-1.1,2.6-2.2,2.6
		c-0.6,0-1.2-0.3-1.5-0.8h0v2.6h-0.9V79.1z M193.7,80.4c0,0.1,0,0.2,0,0.4c0.2,0.6,0.7,1,1.3,1c0.9,0,1.5-0.8,1.5-1.9
		c0-1-0.5-1.8-1.4-1.8c-0.6,0-1.2,0.4-1.3,1.1c0,0.1-0.1,0.2-0.1,0.4V80.4z"/>
	<path d="M202.9,79.9c0,1.8-1.2,2.6-2.4,2.6c-1.3,0-2.3-1-2.3-2.5c0-1.6,1.1-2.6,2.4-2.6C202,77.4,202.9,78.4,202.9,79.9z
		 M199.1,79.9c0,1.1,0.6,1.9,1.5,1.9c0.8,0,1.5-0.8,1.5-1.9c0-0.8-0.4-1.9-1.4-1.9C199.5,78,199.1,79,199.1,79.9z"/>
	<path d="M204,79c0-0.6,0-1.1,0-1.5h0.8l0,0.9h0c0.2-0.6,0.7-1.1,1.3-1.1c0.1,0,0.2,0,0.2,0v0.8c-0.1,0-0.2,0-0.3,0
		c-0.6,0-1.1,0.5-1.2,1.1c0,0.1,0,0.3,0,0.4v2.6H204V79z"/>
	<path d="M208.6,76.1v1.4h1.3v0.7h-1.3v2.6c0,0.6,0.2,0.9,0.7,0.9c0.2,0,0.4,0,0.5-0.1l0,0.7c-0.2,0.1-0.4,0.1-0.8,0.1
		c-0.4,0-0.7-0.1-0.9-0.4c-0.3-0.3-0.3-0.7-0.3-1.3v-2.6H207v-0.7h0.8v-1.2L208.6,76.1z"/>
	<path d="M212.9,81.3c0.4,0.2,1,0.4,1.6,0.4c0.9,0,1.4-0.5,1.4-1.1c0-0.6-0.4-1-1.3-1.3c-1.1-0.4-1.8-1-1.8-1.9c0-1,0.9-1.8,2.2-1.8
		c0.7,0,1.2,0.2,1.5,0.3l-0.2,0.7c-0.2-0.1-0.7-0.3-1.3-0.3c-0.9,0-1.3,0.5-1.3,1c0,0.6,0.4,0.9,1.3,1.3c1.1,0.4,1.7,1,1.7,2
		c0,1-0.8,1.9-2.4,1.9c-0.6,0-1.4-0.2-1.7-0.4L212.9,81.3z"/>
	<path d="M218.4,80.1c0,1.2,0.8,1.7,1.7,1.7c0.6,0,1-0.1,1.3-0.3l0.1,0.6c-0.3,0.1-0.8,0.3-1.6,0.3c-1.5,0-2.4-1-2.4-2.4
		c0-1.5,0.9-2.6,2.3-2.6c1.6,0,2,1.4,2,2.3c0,0.2,0,0.3,0,0.4H218.4z M221,79.4c0-0.6-0.2-1.4-1.2-1.4c-0.9,0-1.3,0.8-1.3,1.4H221z"
		/>
	<path d="M224,76.1v1.4h1.3v0.7H224v2.6c0,0.6,0.2,0.9,0.7,0.9c0.2,0,0.4,0,0.5-0.1l0,0.7c-0.2,0.1-0.4,0.1-0.8,0.1
		c-0.4,0-0.7-0.1-0.9-0.4c-0.3-0.3-0.3-0.7-0.3-1.3v-2.6h-0.8v-0.7h0.8v-1.2L224,76.1z"/>
	<path d="M227.3,76.1v1.4h1.3v0.7h-1.3v2.6c0,0.6,0.2,0.9,0.7,0.9c0.2,0,0.4,0,0.5-0.1l0,0.7c-0.2,0.1-0.4,0.1-0.8,0.1
		c-0.4,0-0.7-0.1-0.9-0.4c-0.3-0.3-0.3-0.7-0.3-1.3v-2.6h-0.8v-0.7h0.8v-1.2L227.3,76.1z"/>
	<path d="M230.5,76.1c0,0.3-0.2,0.5-0.6,0.5c-0.3,0-0.5-0.2-0.5-0.5c0-0.3,0.2-0.5,0.5-0.5C230.3,75.6,230.5,75.8,230.5,76.1z
		 M229.6,82.3v-4.8h0.9v4.8H229.6z"/>
	<path d="M231.9,78.8c0-0.5,0-0.9,0-1.3h0.8l0,0.8h0c0.2-0.5,0.8-0.9,1.6-0.9c0.7,0,1.7,0.4,1.7,2.1v2.9h-0.9v-2.8
		c0-0.8-0.3-1.4-1.1-1.4c-0.6,0-1,0.4-1.2,0.9c0,0.1-0.1,0.3-0.1,0.4v2.9h-0.9V78.8z"/>
	<path d="M241.6,77.5c0,0.4,0,0.7,0,1.3v2.8c0,1.1-0.2,1.8-0.7,2.2c-0.5,0.4-1.1,0.6-1.8,0.6c-0.6,0-1.2-0.1-1.6-0.4l0.2-0.7
		c0.3,0.2,0.8,0.4,1.4,0.4c0.9,0,1.6-0.5,1.6-1.7v-0.5h0c-0.3,0.4-0.8,0.8-1.5,0.8c-1.2,0-2.1-1-2.1-2.4c0-1.6,1.1-2.6,2.2-2.6
		c0.8,0,1.3,0.4,1.5,0.8h0l0-0.7H241.6z M240.7,79.4c0-0.1,0-0.3,0-0.4c-0.2-0.5-0.6-0.9-1.2-0.9c-0.8,0-1.4,0.7-1.4,1.8
		c0,0.9,0.5,1.7,1.4,1.7c0.5,0,1-0.3,1.2-0.9c0-0.1,0.1-0.3,0.1-0.5V79.4z"/>
	<path d="M242.9,81.4c0.3,0.2,0.7,0.3,1.2,0.3c0.6,0,0.9-0.3,0.9-0.7c0-0.4-0.3-0.6-0.9-0.9c-0.9-0.3-1.3-0.8-1.3-1.4
		c0-0.8,0.6-1.4,1.7-1.4c0.5,0,0.9,0.1,1.2,0.3l-0.2,0.6c-0.2-0.1-0.5-0.3-1-0.3c-0.5,0-0.8,0.3-0.8,0.7c0,0.4,0.3,0.6,0.9,0.8
		c0.8,0.3,1.3,0.7,1.3,1.5c0,0.8-0.7,1.4-1.8,1.4c-0.5,0-1-0.1-1.4-0.3L242.9,81.4z"/>
</g>
<g>
	<path d="M184.1,141.8h-2.5v-0.9h6v0.9h-2.5v7.2h-1.1V141.8z"/>
	<path d="M192.9,146c0,2.1-1.5,3.1-2.9,3.1c-1.6,0-2.8-1.2-2.8-3c0-1.9,1.3-3.1,2.9-3.1C191.8,143.1,192.9,144.3,192.9,146z
		 M188.3,146.1c0,1.3,0.7,2.2,1.8,2.2c1,0,1.8-0.9,1.8-2.3c0-1-0.5-2.2-1.7-2.2C188.8,143.9,188.3,145,188.3,146.1z"/>
	<path d="M194.2,145.1c0-0.7,0-1.3,0-1.9h0.9l0,1h0c0.4-0.7,1.1-1.1,2.1-1.1c1.4,0,2.5,1.2,2.5,3c0,2.1-1.3,3.1-2.6,3.1
		c-0.8,0-1.4-0.3-1.8-0.9h0v3.2h-1V145.1z M195.3,146.6c0,0.2,0,0.3,0,0.4c0.2,0.7,0.8,1.2,1.6,1.2c1.1,0,1.8-0.9,1.8-2.2
		c0-1.2-0.6-2.2-1.7-2.2c-0.7,0-1.4,0.5-1.6,1.3c0,0.1-0.1,0.3-0.1,0.4V146.6z"/>
	<path d="M203.7,141c0.5-0.1,1.2-0.2,2-0.2c1,0,1.8,0.2,2.3,0.7c0.4,0.4,0.7,1,0.7,1.7c0,0.7-0.2,1.3-0.6,1.7
		c-0.6,0.6-1.5,0.9-2.5,0.9c-0.3,0-0.6,0-0.8-0.1v3.2h-1V141z M204.7,144.9c0.2,0.1,0.5,0.1,0.9,0.1c1.3,0,2-0.6,2-1.7
		c0-1.1-0.8-1.6-1.9-1.6c-0.5,0-0.8,0-1,0.1V144.9z"/>
	<path d="M210.3,146.3c0,1.4,0.9,2,2,2c0.8,0,1.2-0.1,1.6-0.3l0.2,0.8c-0.4,0.2-1,0.4-1.9,0.4c-1.8,0-2.9-1.2-2.9-2.9s1-3.1,2.7-3.1
		c1.9,0,2.4,1.7,2.4,2.7c0,0.2,0,0.4,0,0.5H210.3z M213.4,145.5c0-0.7-0.3-1.7-1.5-1.7c-1.1,0-1.5,1-1.6,1.7H213.4z"/>
	<path d="M215.7,145c0-0.7,0-1.3,0-1.8h0.9l0,1.1h0c0.3-0.8,0.9-1.3,1.6-1.3c0.1,0,0.2,0,0.3,0v1c-0.1,0-0.2,0-0.4,0
		c-0.7,0-1.3,0.6-1.4,1.4c0,0.1,0,0.3,0,0.5v3.1h-1V145z"/>
	<path d="M220.1,149v-5h-0.8v-0.8h0.8v-0.3c0-0.8,0.2-1.6,0.7-2c0.4-0.4,0.9-0.5,1.4-0.5c0.4,0,0.7,0.1,0.9,0.2l-0.1,0.8
		c-0.2-0.1-0.4-0.1-0.7-0.1c-0.9,0-1.1,0.8-1.1,1.7v0.3h1.4v0.8h-1.4v5H220.1z"/>
	<path d="M228.6,146c0,2.1-1.5,3.1-2.9,3.1c-1.6,0-2.8-1.2-2.8-3c0-1.9,1.3-3.1,2.9-3.1C227.5,143.1,228.6,144.3,228.6,146z
		 M224,146.1c0,1.3,0.7,2.2,1.8,2.2c1,0,1.8-0.9,1.8-2.3c0-1-0.5-2.2-1.7-2.2C224.5,143.9,224,145,224,146.1z"/>
	<path d="M229.9,145c0-0.7,0-1.3,0-1.8h0.9l0,1.1h0c0.3-0.8,0.9-1.3,1.6-1.3c0.1,0,0.2,0,0.3,0v1c-0.1,0-0.2,0-0.4,0
		c-0.7,0-1.3,0.6-1.4,1.4c0,0.1,0,0.3,0,0.5v3.1h-1V145z"/>
	<path d="M233.9,144.8c0-0.6,0-1.1,0-1.6h0.9l0,0.9h0c0.3-0.6,0.9-1.1,1.8-1.1c0.8,0,1.4,0.5,1.6,1.2h0c0.2-0.3,0.4-0.6,0.6-0.8
		c0.3-0.3,0.7-0.4,1.3-0.4c0.8,0,1.9,0.5,1.9,2.5v3.4h-1v-3.3c0-1.1-0.4-1.8-1.3-1.8c-0.6,0-1.1,0.4-1.2,1c0,0.1-0.1,0.3-0.1,0.5
		v3.6h-1v-3.5c0-0.9-0.4-1.6-1.2-1.6c-0.7,0-1.1,0.5-1.3,1.1c-0.1,0.2-0.1,0.3-0.1,0.5v3.5h-1V144.8z"/>
	<path d="M245.1,141.6c0,0.4-0.3,0.6-0.7,0.6c-0.4,0-0.6-0.3-0.6-0.6c0-0.4,0.3-0.7,0.7-0.7C244.8,140.9,245.1,141.2,245.1,141.6z
		 M243.9,149v-5.8h1.1v5.8H243.9z"/>
	<path d="M246.7,144.8c0-0.6,0-1.1,0-1.6h0.9l0.1,1h0c0.3-0.6,1-1.1,1.9-1.1c0.8,0,2.1,0.5,2.1,2.5v3.5h-1.1v-3.3
		c0-0.9-0.3-1.7-1.3-1.7c-0.7,0-1.2,0.5-1.4,1.1c0,0.1-0.1,0.3-0.1,0.5v3.5h-1.1V144.8z"/>
	<path d="M258.4,143.2c0,0.4,0,0.9,0,1.6v3.4c0,1.3-0.3,2.1-0.8,2.7c-0.6,0.5-1.4,0.7-2.1,0.7c-0.7,0-1.5-0.2-1.9-0.5l0.3-0.8
		c0.4,0.2,1,0.5,1.7,0.5c1.1,0,1.9-0.6,1.9-2V148h0c-0.3,0.5-0.9,1-1.8,1c-1.4,0-2.5-1.2-2.5-2.8c0-2,1.3-3.1,2.6-3.1
		c1,0,1.6,0.5,1.8,1h0l0-0.9H258.4z M257.3,145.5c0-0.2,0-0.3-0.1-0.5c-0.2-0.6-0.7-1.1-1.5-1.1c-1,0-1.7,0.9-1.7,2.2
		c0,1.1,0.6,2.1,1.7,2.1c0.6,0,1.2-0.4,1.5-1.1c0.1-0.2,0.1-0.4,0.1-0.6V145.5z"/>
	<path d="M262.7,140.9h1v3.9h0c0.2-0.3,0.4-0.6,0.6-0.9l2.5-3h1.3l-2.9,3.4l3.2,4.7h-1.2l-2.7-4l-0.8,0.9v3.1h-1V140.9z"/>
	<path d="M269.2,141c0.5-0.1,1.2-0.2,2-0.2c1,0,1.8,0.2,2.3,0.7c0.4,0.4,0.7,1,0.7,1.7c0,0.7-0.2,1.3-0.6,1.7
		c-0.6,0.6-1.5,0.9-2.5,0.9c-0.3,0-0.6,0-0.8-0.1v3.2h-1V141z M270.2,144.9c0.2,0.1,0.5,0.1,0.9,0.1c1.3,0,2-0.6,2-1.7
		c0-1.1-0.8-1.6-1.9-1.6c-0.5,0-0.8,0-1,0.1V144.9z"/>
	<path d="M276.6,140.9v8.1h-1v-8.1H276.6z"/>
	<path d="M278.2,147.9c0.3,0.2,0.9,0.4,1.4,0.4c0.8,0,1.1-0.4,1.1-0.9c0-0.5-0.3-0.8-1.1-1.1c-1-0.4-1.5-0.9-1.5-1.6
		c0-0.9,0.8-1.7,2-1.7c0.6,0,1.1,0.2,1.4,0.4l-0.3,0.8c-0.2-0.1-0.6-0.3-1.2-0.3c-0.6,0-1,0.4-1,0.8c0,0.5,0.3,0.7,1.1,1
		c1,0.4,1.5,0.9,1.5,1.8c0,1-0.8,1.7-2.2,1.7c-0.6,0-1.2-0.2-1.6-0.4L278.2,147.9z"/>
</g>
<g>
	<path class="st3" d="M184.1,158.6L184.1,158.6l-0.7,0.4l-0.1-0.4l0.9-0.5h0.4v3.9h-0.5V158.6z"/>
	<path class="st3" d="M188.3,158h0.5v2.7c0,1.1-0.5,1.4-1.2,1.4c-0.2,0-0.4,0-0.6-0.1l0.1-0.4c0.1,0,0.3,0.1,0.4,0.1
		c0.5,0,0.7-0.2,0.7-1V158z"/>
	<path class="st3" d="M191.3,162l0-0.4h0c-0.2,0.2-0.5,0.4-0.9,0.4c-0.6,0-0.9-0.4-0.9-0.8c0-0.7,0.6-1.1,1.7-1.1v-0.1
		c0-0.2-0.1-0.7-0.7-0.7c-0.3,0-0.6,0.1-0.8,0.2l-0.1-0.3c0.2-0.2,0.6-0.3,1-0.3c0.9,0,1.1,0.6,1.1,1.2v1.1c0,0.3,0,0.5,0,0.7H191.3
		z M191.2,160.5c-0.6,0-1.2,0.1-1.2,0.7c0,0.3,0.2,0.5,0.5,0.5c0.4,0,0.6-0.2,0.7-0.5c0-0.1,0-0.1,0-0.2V160.5z"/>
	<path class="st3" d="M192.6,159.9c0-0.3,0-0.5,0-0.8h0.5l0,0.5h0c0.1-0.3,0.5-0.5,1-0.5c0.4,0,1,0.2,1,1.2v1.7h-0.5v-1.7
		c0-0.5-0.2-0.9-0.7-0.9c-0.3,0-0.6,0.2-0.7,0.5c0,0.1,0,0.2,0,0.2v1.7h-0.5V159.9z"/>
	<path class="st3" d="M197,162v-0.3l0.4-0.4c1-0.9,1.4-1.5,1.5-2c0-0.4-0.2-0.8-0.8-0.8c-0.4,0-0.6,0.2-0.8,0.3l-0.2-0.4
		c0.3-0.2,0.7-0.4,1.1-0.4c0.8,0,1.2,0.6,1.2,1.1c0,0.7-0.5,1.3-1.3,2.1l-0.3,0.3v0h1.8v0.4H197z"/>
	<path class="st3" d="M202.7,160c0,1.3-0.5,2.1-1.4,2.1c-0.8,0-1.3-0.7-1.3-2c0-1.3,0.6-2,1.4-2C202.2,158,202.7,158.8,202.7,160z
		 M200.6,160.1c0,1,0.3,1.6,0.8,1.6c0.5,0,0.8-0.6,0.8-1.6c0-1-0.2-1.6-0.8-1.6C200.9,158.4,200.6,159,200.6,160.1z"/>
	<path class="st3" d="M204.3,158.6L204.3,158.6l-0.7,0.4l-0.1-0.4l0.9-0.5h0.4v3.9h-0.5V158.6z"/>
	<path class="st3" d="M208.5,158.5c-0.1,0-0.2,0-0.4,0c-0.8,0.1-1.3,0.7-1.4,1.4h0c0.2-0.2,0.5-0.4,0.9-0.4c0.7,0,1.2,0.5,1.2,1.3
		c0,0.7-0.5,1.4-1.3,1.4c-0.8,0-1.4-0.6-1.4-1.7c0-0.8,0.3-1.4,0.7-1.8c0.3-0.3,0.8-0.5,1.2-0.6c0.2,0,0.3,0,0.4,0V158.5z
		 M208.3,160.7c0-0.6-0.3-0.9-0.8-0.9c-0.3,0-0.6,0.2-0.8,0.5c0,0.1-0.1,0.1-0.1,0.2c0,0.6,0.3,1.1,0.9,1.1
		C208,161.7,208.3,161.3,208.3,160.7z"/>
	<path class="st3" d="M212,160.2v0.4h-1.5v-0.4H212z"/>
	<path class="st3" d="M213.8,161.4c0.1,0.1,0.5,0.2,0.9,0.2c0.7,0,0.9-0.4,0.9-0.8c0-0.5-0.5-0.8-1-0.8h-0.3v-0.4h0.3
		c0.4,0,0.9-0.2,0.9-0.7c0-0.3-0.2-0.6-0.7-0.6c-0.3,0-0.6,0.1-0.8,0.3l-0.1-0.4c0.2-0.1,0.6-0.3,1-0.3c0.8,0,1.1,0.5,1.1,0.9
		c0,0.4-0.2,0.7-0.7,0.9v0c0.5,0.1,0.9,0.5,0.9,1c0,0.6-0.5,1.2-1.4,1.2c-0.4,0-0.8-0.1-1-0.3L213.8,161.4z"/>
	<path class="st3" d="M217.9,158.6L217.9,158.6l-0.7,0.4l-0.1-0.4l0.9-0.5h0.4v3.9h-0.5V158.6z"/>
	<path class="st3" d="M219.9,161.5c0.2,0.1,0.4,0.2,0.7,0.2c0.4,0,0.6-0.2,0.6-0.4c0-0.3-0.1-0.4-0.5-0.5c-0.5-0.2-0.8-0.5-0.8-0.8
		c0-0.5,0.4-0.9,1-0.9c0.3,0,0.6,0.1,0.7,0.2l-0.1,0.4c-0.1-0.1-0.3-0.2-0.6-0.2c-0.3,0-0.5,0.2-0.5,0.4c0,0.2,0.2,0.3,0.6,0.5
		c0.5,0.2,0.8,0.4,0.8,0.9c0,0.5-0.4,0.9-1.1,0.9c-0.3,0-0.6-0.1-0.8-0.2L219.9,161.5z"/>
	<path class="st3" d="M223,158.3v0.8h0.8v0.4H223v1.6c0,0.4,0.1,0.6,0.4,0.6c0.1,0,0.2,0,0.3,0l0,0.4c-0.1,0-0.3,0.1-0.5,0.1
		c-0.2,0-0.4-0.1-0.6-0.2c-0.1-0.2-0.2-0.4-0.2-0.8v-1.6h-0.4v-0.4h0.4v-0.7L223,158.3z"/>
	<path class="st3" d="M226.5,158h0.5v2.7c0,1.1-0.5,1.4-1.2,1.4c-0.2,0-0.4,0-0.6-0.1l0.1-0.4c0.1,0,0.3,0.1,0.4,0.1
		c0.5,0,0.7-0.2,0.7-1V158z"/>
	<path class="st3" d="M229.5,162l0-0.4h0c-0.2,0.2-0.5,0.4-0.9,0.4c-0.6,0-0.9-0.4-0.9-0.8c0-0.7,0.6-1.1,1.7-1.1v-0.1
		c0-0.2-0.1-0.7-0.7-0.7c-0.3,0-0.6,0.1-0.8,0.2l-0.1-0.3c0.2-0.2,0.6-0.3,1-0.3c0.9,0,1.1,0.6,1.1,1.2v1.1c0,0.3,0,0.5,0,0.7H229.5
		z M229.4,160.5c-0.6,0-1.2,0.1-1.2,0.7c0,0.3,0.2,0.5,0.5,0.5c0.4,0,0.6-0.2,0.7-0.5c0-0.1,0-0.1,0-0.2V160.5z"/>
	<path class="st3" d="M230.8,159.9c0-0.3,0-0.5,0-0.8h0.5l0,0.5h0c0.1-0.3,0.5-0.5,1-0.5c0.4,0,1,0.2,1,1.2v1.7h-0.5v-1.7
		c0-0.5-0.2-0.9-0.7-0.9c-0.3,0-0.6,0.2-0.7,0.5c0,0.1,0,0.2,0,0.2v1.7h-0.5V159.9z"/>
	<path class="st3" d="M235.2,162v-0.3l0.4-0.4c1-0.9,1.4-1.5,1.5-2c0-0.4-0.2-0.8-0.8-0.8c-0.4,0-0.6,0.2-0.8,0.3l-0.2-0.4
		c0.3-0.2,0.7-0.4,1.1-0.4c0.8,0,1.2,0.6,1.2,1.1c0,0.7-0.5,1.3-1.3,2.1l-0.3,0.3v0h1.8v0.4H235.2z"/>
	<path class="st3" d="M240.9,160c0,1.3-0.5,2.1-1.4,2.1c-0.8,0-1.3-0.7-1.3-2c0-1.3,0.6-2,1.4-2C240.4,158,240.9,158.8,240.9,160z
		 M238.8,160.1c0,1,0.3,1.6,0.8,1.6c0.5,0,0.8-0.6,0.8-1.6c0-1-0.2-1.6-0.8-1.6C239.1,158.4,238.8,159,238.8,160.1z"/>
	<path class="st3" d="M242.5,158.6L242.5,158.6l-0.7,0.4l-0.1-0.4l0.9-0.5h0.4v3.9h-0.5V158.6z"/>
	<path class="st3" d="M246.7,158.5c-0.1,0-0.2,0-0.4,0c-0.8,0.1-1.3,0.7-1.4,1.4h0c0.2-0.2,0.5-0.4,0.9-0.4c0.7,0,1.2,0.5,1.2,1.3
		c0,0.7-0.5,1.4-1.3,1.4c-0.8,0-1.4-0.6-1.4-1.7c0-0.8,0.3-1.4,0.7-1.8c0.3-0.3,0.8-0.5,1.2-0.6c0.2,0,0.3,0,0.4,0V158.5z
		 M246.5,160.7c0-0.6-0.3-0.9-0.8-0.9c-0.3,0-0.6,0.2-0.8,0.5c0,0.1-0.1,0.1-0.1,0.2c0,0.6,0.3,1.1,0.9,1.1
		C246.2,161.7,246.5,161.3,246.5,160.7z"/>
</g>
<rect x="182.7" y="190.3" class="st4" width="13.5" height="13.5"/>
<g>
	<path d="M225.2,199.4c0.3,0.2,0.7,0.3,1.2,0.3c0.7,0,1.1-0.4,1.1-0.9c0-0.5-0.3-0.8-1-1c-0.9-0.3-1.4-0.7-1.4-1.5
		c0-0.8,0.7-1.4,1.7-1.4c0.5,0,0.9,0.1,1.2,0.3l-0.2,0.6c-0.2-0.1-0.5-0.2-1-0.2c-0.7,0-1,0.4-1,0.8c0,0.5,0.3,0.7,1,1
		c0.9,0.3,1.3,0.8,1.3,1.5c0,0.8-0.6,1.5-1.8,1.5c-0.5,0-1.1-0.1-1.3-0.3L225.2,199.4z"/>
	<path d="M231.2,200.2l-0.1-0.5h0c-0.2,0.3-0.6,0.6-1.2,0.6c-0.8,0-1.2-0.5-1.2-1.1c0-0.9,0.8-1.4,2.3-1.4v-0.1
		c0-0.3-0.1-0.9-0.9-0.9c-0.4,0-0.7,0.1-1,0.3l-0.2-0.5c0.3-0.2,0.8-0.3,1.2-0.3c1.2,0,1.4,0.8,1.4,1.5v1.4c0,0.3,0,0.6,0.1,0.9
		H231.2z M231.1,198.3c-0.7,0-1.6,0.1-1.6,0.8c0,0.4,0.3,0.7,0.6,0.7c0.5,0,0.8-0.3,0.9-0.6c0-0.1,0-0.1,0-0.2V198.3z"/>
	<path d="M232.9,194.7h0.7v5.5h-0.7V194.7z"/>
	<path d="M235.1,198.5c0,0.9,0.6,1.3,1.3,1.3c0.5,0,0.8-0.1,1-0.2l0.1,0.5c-0.2,0.1-0.7,0.2-1.3,0.2c-1.2,0-1.9-0.8-1.9-1.9
		c0-1.1,0.7-2,1.8-2c1.2,0,1.6,1.1,1.6,1.8c0,0.1,0,0.3,0,0.3H235.1z M237.1,198c0-0.4-0.2-1.1-1-1.1c-0.7,0-1,0.6-1.1,1.1H237.1z"
		/>
	<path d="M238.5,199.5c0.2,0.1,0.6,0.3,0.9,0.3c0.5,0,0.7-0.3,0.7-0.6c0-0.3-0.2-0.5-0.7-0.7c-0.7-0.2-1-0.6-1-1.1
		c0-0.6,0.5-1.1,1.3-1.1c0.4,0,0.7,0.1,0.9,0.2l-0.2,0.5c-0.1-0.1-0.4-0.2-0.8-0.2c-0.4,0-0.6,0.2-0.6,0.5c0,0.3,0.2,0.5,0.7,0.6
		c0.7,0.3,1,0.6,1,1.1c0,0.7-0.5,1.1-1.4,1.1c-0.4,0-0.8-0.1-1.1-0.3L238.5,199.5z"/>
</g>
<g>
	<path class="st5" d="M301,197.9c0-0.7-0.1-1.6-0.1-2.3h0c-0.2,0.6-0.4,1.3-0.7,2l-0.9,2.5h-0.5l-0.9-2.5c-0.2-0.7-0.5-1.4-0.6-2h0
		c0,0.7-0.1,1.5-0.1,2.3l-0.1,2.3h-0.6l0.4-5.3h0.9l0.9,2.5c0.2,0.6,0.4,1.2,0.5,1.8h0c0.1-0.5,0.3-1.1,0.6-1.8l0.9-2.5h0.9l0.3,5.3
		h-0.7L301,197.9z"/>
	<path class="st5" d="M306.3,198.3c0,1.4-1,2-1.9,2c-1,0-1.8-0.7-1.8-1.9c0-1.3,0.8-2,1.9-2C305.6,196.4,306.3,197.2,306.3,198.3z
		 M303.3,198.4c0,0.8,0.5,1.5,1.1,1.5c0.7,0,1.1-0.6,1.1-1.5c0-0.6-0.3-1.5-1.1-1.5C303.7,196.9,303.3,197.6,303.3,198.4z"/>
	<path class="st5" d="M307.2,197.5c0-0.4,0-0.7,0-1h0.6l0,0.6h0c0.2-0.4,0.6-0.7,1.2-0.7c0.5,0,1.3,0.3,1.3,1.6v2.3h-0.7v-2.2
		c0-0.6-0.2-1.1-0.9-1.1c-0.5,0-0.8,0.3-0.9,0.7c0,0.1,0,0.2,0,0.3v2.3h-0.7V197.5z"/>
	<path class="st5" d="M312.3,195.4v1.1h1v0.5h-1v2c0,0.5,0.1,0.7,0.5,0.7c0.2,0,0.3,0,0.4,0l0,0.5c-0.1,0.1-0.3,0.1-0.6,0.1
		c-0.3,0-0.6-0.1-0.7-0.3c-0.2-0.2-0.3-0.5-0.3-1V197h-0.6v-0.5h0.6v-0.9L312.3,195.4z"/>
	<path class="st5" d="M314.1,194.7h0.7v2.4h0c0.1-0.2,0.3-0.4,0.5-0.5c0.2-0.1,0.4-0.2,0.7-0.2c0.5,0,1.3,0.3,1.3,1.6v2.2h-0.7v-2.2
		c0-0.6-0.2-1.1-0.9-1.1c-0.4,0-0.8,0.3-0.9,0.7c0,0.1,0,0.2,0,0.3v2.3h-0.7V194.7z"/>
	<path class="st5" d="M318.4,194.7h0.7v5.5h-0.7V194.7z"/>
	<path class="st5" d="M320.5,196.5l0.8,2.2c0.1,0.3,0.2,0.5,0.2,0.8h0c0.1-0.2,0.1-0.5,0.2-0.8l0.7-2.2h0.7l-1,2.7
		c-0.5,1.3-0.8,2-1.3,2.4c-0.3,0.3-0.7,0.4-0.8,0.4l-0.2-0.6c0.2-0.1,0.4-0.2,0.6-0.3c0.2-0.1,0.4-0.4,0.6-0.8
		c0-0.1,0.1-0.1,0.1-0.2s0-0.1,0-0.2l-1.4-3.5H320.5z"/>
</g>
<g>
	<path class="st5" d="M358.4,200.9v-0.8c-0.5,0-0.9-0.1-1.2-0.3l0.2-0.5c0.3,0.2,0.7,0.3,1.1,0.3c0.6,0,0.9-0.3,0.9-0.8
		c0-0.4-0.3-0.7-0.9-0.9c-0.8-0.3-1.3-0.7-1.3-1.3c0-0.6,0.5-1.1,1.2-1.3v-0.8h0.5v0.8c0.5,0,0.8,0.1,1,0.3l-0.2,0.5
		c-0.2-0.1-0.5-0.3-1-0.3c-0.6,0-0.8,0.4-0.8,0.7c0,0.4,0.3,0.6,1,0.9c0.8,0.3,1.2,0.7,1.2,1.4c0,0.6-0.4,1.2-1.2,1.3v0.8H358.4z"/>
	<path class="st5" d="M362.5,195.8L362.5,195.8l-0.9,0.5l-0.1-0.5l1.1-0.6h0.6v5.1h-0.7V195.8z"/>
	<path class="st5" d="M365,200.2v-0.4l0.5-0.5c1.3-1.2,1.9-1.9,1.9-2.7c0-0.5-0.2-1-1-1c-0.5,0-0.8,0.2-1.1,0.4l-0.2-0.5
		c0.4-0.3,0.9-0.5,1.4-0.5c1.1,0,1.6,0.7,1.6,1.5c0,0.9-0.7,1.7-1.7,2.7l-0.4,0.4v0h2.3v0.6H365z"/>
	<path class="st5" d="M372,195.8h-1.9l-0.2,1.3c0.1,0,0.2,0,0.4,0c0.4,0,0.8,0.1,1.1,0.3c0.4,0.2,0.7,0.7,0.7,1.3
		c0,1-0.8,1.7-1.9,1.7c-0.6,0-1-0.2-1.3-0.3l0.2-0.5c0.2,0.1,0.6,0.3,1.1,0.3c0.6,0,1.2-0.4,1.2-1.1c0-0.7-0.4-1.1-1.5-1.1
		c-0.3,0-0.5,0-0.7,0.1l0.3-2.4h2.4V195.8z"/>
	<path class="st5" d="M372.8,201.2c0.2-0.5,0.4-1.3,0.5-1.9l0.8-0.1c-0.2,0.7-0.5,1.5-0.7,1.9L372.8,201.2z"/>
	<path class="st5" d="M377.7,195.8h-1.9l-0.2,1.3c0.1,0,0.2,0,0.4,0c0.4,0,0.8,0.1,1.1,0.3c0.4,0.2,0.7,0.7,0.7,1.3
		c0,1-0.8,1.7-1.9,1.7c-0.6,0-1-0.2-1.3-0.3l0.2-0.5c0.2,0.1,0.6,0.3,1.1,0.3c0.6,0,1.2-0.4,1.2-1.1c0-0.7-0.4-1.1-1.5-1.1
		c-0.3,0-0.5,0-0.7,0.1l0.3-2.4h2.4V195.8z"/>
	<path class="st5" d="M380.8,200.2v-1.4h-2.4v-0.5l2.3-3.2h0.7v3.2h0.7v0.5h-0.7v1.4H380.8z M380.8,198.3v-1.7c0-0.3,0-0.5,0-0.8h0
		c-0.2,0.3-0.3,0.5-0.4,0.7l-1.2,1.7v0H380.8z"/>
	<path class="st5" d="M386,197.7c0,1.7-0.6,2.7-1.8,2.7c-1,0-1.7-0.9-1.7-2.6c0-1.7,0.7-2.6,1.8-2.6C385.4,195.1,386,196,386,197.7z
		 M383.3,197.7c0,1.3,0.4,2.1,1,2.1c0.7,0,1-0.8,1-2.1c0-1.2-0.3-2.1-1-2.1C383.7,195.6,383.3,196.4,383.3,197.7z"/>
</g>
<path class="st6" d="M400.3,202.6L400.3,202.6c-2.3,0-4.3-1.9-4.3-4.3l0,0c0-2.3,1.9-4.3,4.3-4.3l0,0c2.3,0,4.3,1.9,4.3,4.3l0,0
	C404.5,200.7,402.6,202.6,400.3,202.6z"/>
<g>
	<path class="st5" d="M438.1,200.9v-0.8c-0.5,0-0.9-0.1-1.2-0.3l0.2-0.5c0.3,0.2,0.7,0.3,1.1,0.3c0.6,0,0.9-0.3,0.9-0.8
		c0-0.4-0.3-0.7-0.9-0.9c-0.8-0.3-1.3-0.7-1.3-1.3c0-0.6,0.5-1.1,1.2-1.3v-0.8h0.5v0.8c0.5,0,0.8,0.1,1,0.3l-0.2,0.5
		c-0.2-0.1-0.5-0.3-1-0.3c-0.6,0-0.8,0.4-0.8,0.7c0,0.4,0.3,0.6,1,0.9c0.8,0.3,1.2,0.7,1.2,1.4c0,0.6-0.4,1.2-1.2,1.3v0.8H438.1z"/>
	<path class="st5" d="M442.3,195.8L442.3,195.8l-0.9,0.5l-0.1-0.5l1.1-0.6h0.6v5.1h-0.7V195.8z"/>
	<path class="st5" d="M448.1,197.7c0,1.7-0.6,2.7-1.8,2.7c-1,0-1.7-0.9-1.7-2.6c0-1.7,0.7-2.6,1.8-2.6
		C447.5,195.1,448.1,196,448.1,197.7z M445.4,197.7c0,1.3,0.4,2.1,1,2.1c0.7,0,1-0.8,1-2.1c0-1.2-0.3-2.1-1-2.1
		C445.8,195.6,445.4,196.4,445.4,197.7z"/>
	<path class="st5" d="M452.1,197.7c0,1.7-0.6,2.7-1.8,2.7c-1,0-1.7-0.9-1.7-2.6c0-1.7,0.7-2.6,1.8-2.6
		C451.5,195.1,452.1,196,452.1,197.7z M449.4,197.7c0,1.3,0.4,2.1,1,2.1c0.7,0,1-0.8,1-2.1c0-1.2-0.3-2.1-1-2.1
		C449.8,195.6,449.4,196.4,449.4,197.7z"/>
	<path class="st5" d="M452.5,201.2c0.2-0.5,0.4-1.3,0.5-1.9l0.8-0.1c-0.2,0.7-0.5,1.5-0.7,1.9L452.5,201.2z"/>
	<path class="st5" d="M457.8,197.7c0,1.7-0.6,2.7-1.8,2.7c-1,0-1.7-0.9-1.7-2.6c0-1.7,0.7-2.6,1.8-2.6
		C457.1,195.1,457.8,196,457.8,197.7z M455,197.7c0,1.3,0.4,2.1,1,2.1c0.7,0,1-0.8,1-2.1c0-1.2-0.3-2.1-1-2.1
		C455.4,195.6,455,196.4,455,197.7z"/>
	<path class="st5" d="M461.8,197.7c0,1.7-0.6,2.7-1.8,2.7c-1,0-1.7-0.9-1.7-2.6c0-1.7,0.7-2.6,1.8-2.6
		C461.1,195.1,461.8,196,461.8,197.7z M459,197.7c0,1.3,0.4,2.1,1,2.1c0.7,0,1-0.8,1-2.1c0-1.2-0.3-2.1-1-2.1
		C459.4,195.6,459,196.4,459,197.7z"/>
	<path class="st5" d="M465.8,197.7c0,1.7-0.6,2.7-1.8,2.7c-1,0-1.7-0.9-1.7-2.6c0-1.7,0.7-2.6,1.8-2.6
		C465.1,195.1,465.8,196,465.8,197.7z M463,197.7c0,1.3,0.4,2.1,1,2.1c0.7,0,1-0.8,1-2.1c0-1.2-0.3-2.1-1-2.1
		C463.4,195.6,463,196.4,463,197.7z"/>
</g>
<rect x="569" y="192" class="st7" width="41.3" height="14"/>
<g>
	<path class="st1" d="M588.1,202.1v-0.5l0.7-0.7c1.7-1.6,2.4-2.4,2.4-3.4c0-0.7-0.3-1.3-1.3-1.3c-0.6,0-1.1,0.3-1.4,0.5l-0.3-0.6
		c0.5-0.4,1.1-0.7,1.8-0.7c1.4,0,2,1,2,1.9c0,1.2-0.9,2.2-2.2,3.5l-0.5,0.5v0h2.9v0.7H588.1z"/>
	<path class="st1" d="M597.1,196.3h-2.5l-0.3,1.7c0.1,0,0.3,0,0.5,0c0.5,0,1,0.1,1.4,0.4c0.5,0.3,0.9,0.8,0.9,1.7
		c0,1.3-1,2.2-2.4,2.2c-0.7,0-1.3-0.2-1.6-0.4l0.2-0.7c0.3,0.2,0.8,0.4,1.4,0.4c0.8,0,1.5-0.5,1.5-1.4c0-0.8-0.6-1.4-1.9-1.4
		c-0.4,0-0.7,0-0.9,0.1l0.4-3.1h3.1V196.3z"/>
	<path class="st1" d="M601.3,197.4c0,1.4-0.7,2-1.6,2c-0.8,0-1.5-0.6-1.5-2c0-1.3,0.7-2,1.6-2C600.7,195.5,601.3,196.2,601.3,197.4z
		 M598.9,197.5c0,0.8,0.3,1.5,0.8,1.5c0.6,0,0.8-0.6,0.8-1.5c0-0.8-0.2-1.4-0.8-1.4C599.2,196,598.9,196.7,598.9,197.5z
		 M599.7,202.2l3.8-6.7h0.6l-3.8,6.7H599.7z M605.5,200.1c0,1.4-0.7,2-1.5,2c-0.8,0-1.5-0.6-1.5-1.9c0-1.3,0.7-2,1.6-2
		C604.9,198.2,605.5,198.9,605.5,200.1z M603.2,200.2c0,0.8,0.3,1.5,0.8,1.5c0.6,0,0.8-0.6,0.8-1.5c0-0.8-0.2-1.4-0.8-1.4
		C603.5,198.7,603.2,199.3,603.2,200.2z"/>
</g>
<g>
	<path class="st8" d="M296.2,174.7h2.5v0.5h-1.9v1.6h1.8v0.5h-1.8v2.1h-0.6V174.7z"/>
	<path class="st8" d="M299.4,177.1c0-0.4,0-0.7,0-1.1h0.5l0,0.7h0c0.2-0.5,0.5-0.7,0.9-0.7c0.1,0,0.1,0,0.2,0v0.6
		c-0.1,0-0.1,0-0.2,0c-0.4,0-0.7,0.3-0.8,0.8c0,0.1,0,0.2,0,0.3v1.8h-0.6V177.1z"/>
	<path class="st8" d="M302,177.8c0,0.8,0.5,1.2,1.2,1.2c0.4,0,0.7-0.1,0.9-0.2l0.1,0.4c-0.2,0.1-0.6,0.2-1.1,0.2
		c-1,0-1.7-0.7-1.7-1.7c0-1,0.6-1.8,1.6-1.8c1.1,0,1.4,1,1.4,1.6c0,0.1,0,0.2,0,0.3H302z M303.8,177.4c0-0.4-0.2-1-0.9-1
		c-0.6,0-0.9,0.6-0.9,1H303.8z"/>
	<path class="st8" d="M307.4,178.9L307.4,178.9c-0.2,0.3-0.6,0.6-1.1,0.6c-0.8,0-1.4-0.7-1.4-1.7c0-1.3,0.8-1.8,1.5-1.8
		c0.5,0,0.9,0.3,1,0.6h0l0-0.5h0.6c0,0.3,0,0.6,0,0.9v3.8h-0.6V178.9z M307.4,177.4c0-0.1,0-0.2,0-0.3c-0.1-0.4-0.4-0.7-0.9-0.7
		c-0.6,0-1,0.5-1,1.3c0,0.7,0.3,1.3,1,1.3c0.4,0,0.7-0.2,0.9-0.7c0-0.1,0-0.2,0-0.3V177.4z"/>
	<path class="st8" d="M311.9,178.5c0,0.4,0,0.7,0,0.9h-0.5l0-0.6h0c-0.2,0.3-0.5,0.6-1.1,0.6c-0.5,0-1.2-0.3-1.2-1.5v-2h0.6v1.9
		c0,0.6,0.2,1.1,0.8,1.1c0.4,0,0.7-0.3,0.8-0.6c0-0.1,0.1-0.2,0.1-0.3V176h0.6V178.5z"/>
	<path class="st8" d="M313.3,177.8c0,0.8,0.5,1.2,1.2,1.2c0.4,0,0.7-0.1,0.9-0.2l0.1,0.4c-0.2,0.1-0.6,0.2-1.1,0.2
		c-1,0-1.7-0.7-1.7-1.7c0-1,0.6-1.8,1.6-1.8c1.1,0,1.4,1,1.4,1.6c0,0.1,0,0.2,0,0.3H313.3z M315.1,177.4c0-0.4-0.2-1-0.9-1
		c-0.6,0-0.9,0.6-0.9,1H315.1z"/>
	<path class="st8" d="M316.4,176.9c0-0.4,0-0.6,0-0.9h0.5l0,0.6h0c0.2-0.3,0.6-0.6,1.1-0.6c0.5,0,1.2,0.3,1.2,1.4v2h-0.6v-2
		c0-0.5-0.2-1-0.8-1c-0.4,0-0.7,0.3-0.8,0.6c0,0.1,0,0.2,0,0.3v2h-0.6V176.9z"/>
	<path class="st8" d="M322.7,179.3c-0.2,0.1-0.5,0.2-1,0.2c-1,0-1.7-0.7-1.7-1.7c0-1,0.7-1.8,1.8-1.8c0.4,0,0.7,0.1,0.9,0.2
		l-0.1,0.5c-0.1-0.1-0.4-0.2-0.7-0.2c-0.8,0-1.2,0.6-1.2,1.3c0,0.8,0.5,1.3,1.2,1.3c0.4,0,0.6-0.1,0.8-0.2L322.7,179.3z"/>
	<path class="st8" d="M323.8,176l0.7,2c0.1,0.2,0.2,0.5,0.2,0.7h0c0.1-0.2,0.1-0.5,0.2-0.7l0.7-2h0.7l-0.9,2.4
		c-0.4,1.2-0.7,1.8-1.2,2.1c-0.3,0.3-0.6,0.4-0.8,0.4l-0.2-0.5c0.2,0,0.4-0.1,0.5-0.3c0.2-0.1,0.4-0.4,0.5-0.7c0-0.1,0-0.1,0-0.1
		s0-0.1,0-0.2l-1.3-3.1H323.8z"/>
</g>
<g>
	<path class="st9" d="M369.3,177.9l-0.5,1.5h-0.6l1.6-4.7h0.7l1.6,4.7h-0.7l-0.5-1.5H369.3z M370.8,177.5l-0.5-1.4
		c-0.1-0.3-0.2-0.6-0.2-0.9h0c-0.1,0.3-0.1,0.6-0.2,0.9l-0.5,1.4H370.8z"/>
	<path class="st9" d="M375.1,179.3c-0.2,0.1-0.5,0.2-1,0.2c-1,0-1.7-0.7-1.7-1.7c0-1,0.7-1.8,1.8-1.8c0.4,0,0.7,0.1,0.9,0.2
		l-0.1,0.5c-0.1-0.1-0.4-0.2-0.7-0.2c-0.8,0-1.2,0.6-1.2,1.3c0,0.8,0.5,1.3,1.2,1.3c0.4,0,0.6-0.1,0.8-0.2L375.1,179.3z"/>
	<path class="st9" d="M376.7,175.1v1h0.9v0.5h-0.9v1.8c0,0.4,0.1,0.7,0.5,0.7c0.2,0,0.3,0,0.4,0l0,0.5c-0.1,0-0.3,0.1-0.5,0.1
		c-0.3,0-0.5-0.1-0.7-0.3c-0.2-0.2-0.2-0.5-0.2-0.9v-1.8h-0.5V176h0.5v-0.8L376.7,175.1z"/>
	<path class="st9" d="M381.1,178.5c0,0.4,0,0.7,0,0.9h-0.5l0-0.6h0c-0.2,0.3-0.5,0.6-1.1,0.6c-0.5,0-1.2-0.3-1.2-1.5v-2h0.6v1.9
		c0,0.6,0.2,1.1,0.8,1.1c0.4,0,0.7-0.3,0.8-0.6c0-0.1,0.1-0.2,0.1-0.3V176h0.6V178.5z"/>
	<path class="st9" d="M384,179.4l0-0.4h0c-0.2,0.3-0.6,0.5-1,0.5c-0.7,0-1-0.5-1-1c0-0.8,0.7-1.3,2-1.3v-0.1c0-0.3-0.1-0.8-0.8-0.8
		c-0.3,0-0.6,0.1-0.9,0.3l-0.1-0.4c0.3-0.2,0.7-0.3,1.1-0.3c1,0,1.3,0.7,1.3,1.4v1.3c0,0.3,0,0.6,0.1,0.8H384z M383.9,177.7
		c-0.7,0-1.4,0.1-1.4,0.8c0,0.4,0.3,0.6,0.6,0.6c0.4,0,0.7-0.3,0.8-0.6c0-0.1,0-0.1,0-0.2V177.7z"/>
	<path class="st9" d="M385.5,174.4h0.6v5h-0.6V174.4z"/>
</g>
<g>
	<path class="st6" d="M448.4,174.2H447v-0.5h3.5v0.5H449v4.2h-0.6V174.2z"/>
	<path class="st6" d="M452.4,178.4l0-0.4h0c-0.2,0.3-0.6,0.5-1,0.5c-0.7,0-1-0.5-1-1c0-0.8,0.7-1.3,2-1.3v-0.1
		c0-0.3-0.1-0.8-0.8-0.8c-0.3,0-0.6,0.1-0.9,0.3l-0.1-0.4c0.3-0.2,0.7-0.3,1.1-0.3c1,0,1.3,0.7,1.3,1.4v1.3c0,0.3,0,0.6,0.1,0.8
		H452.4z M452.3,176.7c-0.7,0-1.4,0.1-1.4,0.8c0,0.4,0.3,0.6,0.6,0.6c0.4,0,0.7-0.3,0.8-0.6c0-0.1,0-0.1,0-0.2V176.7z"/>
	<path class="st6" d="M453.9,176.1c0-0.4,0-0.7,0-1.1h0.5l0,0.7h0c0.2-0.5,0.5-0.7,0.9-0.7c0.1,0,0.1,0,0.2,0v0.6
		c-0.1,0-0.1,0-0.2,0c-0.4,0-0.7,0.3-0.8,0.8c0,0.1,0,0.2,0,0.3v1.8h-0.6V176.1z"/>
	<path class="st6" d="M459.1,175c0,0.2,0,0.5,0,0.9v2c0,0.8-0.2,1.3-0.5,1.5c-0.3,0.3-0.8,0.4-1.2,0.4c-0.4,0-0.9-0.1-1.1-0.3
		l0.2-0.5c0.2,0.1,0.6,0.3,1,0.3c0.6,0,1.1-0.3,1.1-1.2v-0.4h0c-0.2,0.3-0.6,0.6-1.1,0.6c-0.8,0-1.4-0.7-1.4-1.7
		c0-1.1,0.8-1.8,1.5-1.8c0.6,0,0.9,0.3,1.1,0.6h0l0-0.5H459.1z M458.4,176.4c0-0.1,0-0.2,0-0.3c-0.1-0.4-0.4-0.7-0.9-0.7
		c-0.6,0-1,0.5-1,1.3c0,0.7,0.3,1.2,1,1.2c0.4,0,0.7-0.2,0.9-0.6c0-0.1,0-0.2,0-0.3V176.4z"/>
	<path class="st6" d="M460.4,176.8c0,0.8,0.5,1.2,1.2,1.2c0.4,0,0.7-0.1,0.9-0.2l0.1,0.4c-0.2,0.1-0.6,0.2-1.1,0.2
		c-1,0-1.7-0.7-1.7-1.7c0-1,0.6-1.8,1.6-1.8c1.1,0,1.4,1,1.4,1.6c0,0.1,0,0.2,0,0.3H460.4z M462.2,176.4c0-0.4-0.2-1-0.9-1
		c-0.6,0-0.9,0.6-0.9,1H462.2z"/>
	<path class="st6" d="M464.3,174.1v1h0.9v0.5h-0.9v1.8c0,0.4,0.1,0.7,0.5,0.7c0.2,0,0.3,0,0.4,0l0,0.5c-0.1,0-0.3,0.1-0.5,0.1
		c-0.3,0-0.5-0.1-0.7-0.3c-0.2-0.2-0.2-0.5-0.2-0.9v-1.8h-0.5V175h0.5v-0.8L464.3,174.1z"/>
</g>
<g>
	<path class="st10" d="M513.4,174.2H512v-0.5h3.5v0.5H514v4.2h-0.6V174.2z"/>
	<path class="st10" d="M515.7,176.1c0-0.4,0-0.7,0-1.1h0.5l0,0.7h0c0.2-0.5,0.5-0.7,0.9-0.7c0.1,0,0.1,0,0.2,0v0.6
		c-0.1,0-0.1,0-0.2,0c-0.4,0-0.7,0.3-0.8,0.8c0,0.1,0,0.2,0,0.3v1.8h-0.6V176.1z"/>
	<path class="st10" d="M518.2,176.8c0,0.8,0.5,1.2,1.2,1.2c0.4,0,0.7-0.1,0.9-0.2l0.1,0.4c-0.2,0.1-0.6,0.2-1.1,0.2
		c-1,0-1.7-0.7-1.7-1.7c0-1,0.6-1.8,1.6-1.8c1.1,0,1.4,1,1.4,1.6c0,0.1,0,0.2,0,0.3H518.2z M520,176.4c0-0.4-0.2-1-0.9-1
		c-0.6,0-0.9,0.6-0.9,1H520z"/>
	<path class="st10" d="M521.4,175.9c0-0.4,0-0.6,0-0.9h0.5l0,0.6h0c0.2-0.3,0.6-0.6,1.1-0.6c0.5,0,1.2,0.3,1.2,1.4v2h-0.6v-2
		c0-0.5-0.2-1-0.8-1c-0.4,0-0.7,0.3-0.8,0.6c0,0.1,0,0.2,0,0.3v2h-0.6V175.9z"/>
	<path class="st10" d="M528.2,173.4v4.1c0,0.3,0,0.6,0,0.9h-0.6l0-0.6h0c-0.2,0.4-0.6,0.7-1.2,0.7c-0.8,0-1.5-0.7-1.5-1.7
		c0-1.1,0.7-1.8,1.5-1.8c0.5,0,0.9,0.2,1,0.5h0v-2H528.2z M527.6,176.4c0-0.1,0-0.2,0-0.3c-0.1-0.4-0.4-0.7-0.9-0.7
		c-0.6,0-1,0.6-1,1.3c0,0.7,0.3,1.3,1,1.3c0.4,0,0.8-0.3,0.9-0.7c0-0.1,0-0.2,0-0.3V176.4z"/>
</g>
<polyline class="st1" points="577.1,194.2 574.2,197.2 575.9,197.2 575.9,202.9 578.6,202.9 578.6,197 580.2,197 577.2,194.3 "/>
<rect x="526" y="194.9" class="st11" width="0.5" height="0.7"/>
<polygon class="st12" points="500.5,194.6 509.7,202.8 519.1,200.9 528.3,195.3 537.5,198.8 546.7,193.8 546.7,205.3 500.5,205.3 
	"/>
<polyline class="st13" points="500.9,194.9 510.1,203.1 519.5,201.2 528.6,195.6 537.9,199.1 547.1,194.1 "/>
<g>
	<path class="st10" d="M580.4,173.2H579v-0.5h3.5v0.5H581v4.2h-0.6V173.2z"/>
	<path class="st10" d="M584.4,177.4l0-0.4h0c-0.2,0.3-0.6,0.5-1,0.5c-0.7,0-1-0.5-1-1c0-0.8,0.7-1.3,2-1.3v-0.1
		c0-0.3-0.1-0.8-0.8-0.8c-0.3,0-0.6,0.1-0.9,0.3l-0.1-0.4c0.3-0.2,0.7-0.3,1.1-0.3c1,0,1.3,0.7,1.3,1.4v1.3c0,0.3,0,0.6,0.1,0.8
		H584.4z M584.3,175.7c-0.7,0-1.4,0.1-1.4,0.8c0,0.4,0.3,0.6,0.6,0.6c0.4,0,0.7-0.3,0.8-0.6c0-0.1,0-0.1,0-0.2V175.7z"/>
	<path class="st10" d="M585.9,175.1c0-0.4,0-0.7,0-1.1h0.5l0,0.7h0c0.2-0.5,0.5-0.7,0.9-0.7c0.1,0,0.1,0,0.2,0v0.6
		c-0.1,0-0.1,0-0.2,0c-0.4,0-0.7,0.3-0.8,0.8c0,0.1,0,0.2,0,0.3v1.8h-0.6V175.1z"/>
	<path class="st10" d="M591.1,174c0,0.2,0,0.5,0,0.9v2c0,0.8-0.2,1.3-0.5,1.5c-0.3,0.3-0.8,0.4-1.2,0.4c-0.4,0-0.9-0.1-1.1-0.3
		l0.2-0.5c0.2,0.1,0.6,0.3,1,0.3c0.6,0,1.1-0.3,1.1-1.2v-0.4h0c-0.2,0.3-0.6,0.6-1.1,0.6c-0.8,0-1.4-0.7-1.4-1.7
		c0-1.1,0.8-1.8,1.5-1.8c0.6,0,0.9,0.3,1.1,0.6h0l0-0.5H591.1z M590.4,175.4c0-0.1,0-0.2,0-0.3c-0.1-0.4-0.4-0.7-0.9-0.7
		c-0.6,0-1,0.5-1,1.3c0,0.7,0.3,1.2,1,1.2c0.4,0,0.7-0.2,0.9-0.6c0-0.1,0-0.2,0-0.3V175.4z"/>
	<path class="st10" d="M592.4,175.8c0,0.8,0.5,1.2,1.2,1.2c0.4,0,0.7-0.1,0.9-0.2l0.1,0.4c-0.2,0.1-0.6,0.2-1.1,0.2
		c-1,0-1.7-0.7-1.7-1.7c0-1,0.6-1.8,1.6-1.8c1.1,0,1.4,1,1.4,1.6c0,0.1,0,0.2,0,0.3H592.4z M594.2,175.4c0-0.4-0.2-1-0.9-1
		c-0.6,0-0.9,0.6-0.9,1H594.2z"/>
	<path class="st10" d="M596.3,173.1v1h0.9v0.5h-0.9v1.8c0,0.4,0.1,0.7,0.5,0.7c0.2,0,0.3,0,0.4,0l0,0.5c-0.1,0-0.3,0.1-0.5,0.1
		c-0.3,0-0.5-0.1-0.7-0.3c-0.2-0.2-0.2-0.5-0.2-0.9v-1.8h-0.5V174h0.5v-0.8L596.3,173.1z"/>
	<path class="st10" d="M601.2,174.1c0,1-0.5,1.4-1.1,1.4c-0.6,0-1.1-0.5-1.1-1.4c0-0.9,0.5-1.4,1.1-1.4
		C600.8,172.8,601.2,173.3,601.2,174.1z M599.6,174.2c0,0.6,0.2,1,0.6,1c0.4,0,0.6-0.4,0.6-1c0-0.6-0.2-1-0.6-1
		C599.8,173.2,599.6,173.6,599.6,174.2z M600.1,177.5l2.7-4.7h0.4l-2.7,4.7H600.1z M604.2,176c0,1-0.5,1.4-1.1,1.4
		c-0.6,0-1.1-0.5-1.1-1.4c0-0.9,0.5-1.4,1.1-1.4C603.8,174.7,604.2,175.2,604.2,176z M602.5,176.1c0,0.6,0.2,1,0.6,1
		c0.4,0,0.6-0.4,0.6-1c0-0.6-0.2-1-0.6-1C602.7,175,602.5,175.5,602.5,176.1z"/>
</g>
<g>
	<path d="M189,195.4L189,195.4l-1.1,0.6l-0.2-0.7l1.4-0.8h0.7v6.5H189V195.4z"/>
</g>
<rect x="182.7" y="215.3" class="st4" width="13.5" height="13.5"/>
<g>
	<path d="M225.3,219.6c0.4-0.1,0.9-0.1,1.4-0.1c1,0,1.7,0.2,2.1,0.7c0.5,0.4,0.7,1,0.7,1.9c0,0.9-0.3,1.6-0.8,2
		c-0.5,0.5-1.3,0.8-2.3,0.8c-0.5,0-0.9,0-1.2-0.1V219.6z M225.9,224.2c0.2,0,0.4,0,0.7,0c1.5,0,2.2-0.8,2.2-2.2c0-1.2-0.7-2-2.1-2
		c-0.4,0-0.6,0-0.8,0.1V224.2z"/>
	<path d="M233.9,222.8c0,1.4-1,2-1.9,2c-1,0-1.8-0.7-1.8-1.9c0-1.3,0.8-2,1.9-2C233.1,220.9,233.9,221.7,233.9,222.8z M230.9,222.9
		c0,0.8,0.5,1.5,1.1,1.5c0.7,0,1.1-0.6,1.1-1.5c0-0.6-0.3-1.5-1.1-1.5C231.2,221.4,230.9,222.1,230.9,222.9z"/>
	<path d="M235,221l0.5,1.9c0.1,0.4,0.2,0.8,0.3,1.2h0c0.1-0.4,0.2-0.8,0.3-1.2l0.6-1.9h0.6l0.6,1.9c0.1,0.5,0.2,0.8,0.3,1.2h0
		c0.1-0.4,0.2-0.8,0.3-1.2l0.5-1.9h0.7l-1.2,3.8h-0.6l-0.6-1.8c-0.1-0.4-0.2-0.8-0.3-1.2h0c-0.1,0.5-0.2,0.8-0.3,1.2l-0.6,1.8h-0.6
		l-1.1-3.8H235z"/>
	<path d="M240.4,222c0-0.4,0-0.7,0-1h0.6l0,0.6h0c0.2-0.4,0.6-0.7,1.2-0.7c0.5,0,1.3,0.3,1.3,1.6v2.3H243v-2.2
		c0-0.6-0.2-1.1-0.9-1.1c-0.5,0-0.8,0.3-0.9,0.7c0,0.1,0,0.2,0,0.3v2.3h-0.7V222z"/>
	<path d="M244.8,219.2h0.7v5.5h-0.7V219.2z"/>
	<path d="M250,222.8c0,1.4-1,2-1.9,2c-1,0-1.8-0.7-1.8-1.9c0-1.3,0.8-2,1.9-2C249.3,220.9,250,221.7,250,222.8z M247,222.9
		c0,0.8,0.5,1.5,1.1,1.5c0.7,0,1.1-0.6,1.1-1.5c0-0.6-0.3-1.5-1.1-1.5C247.4,221.4,247,222.1,247,222.9z"/>
	<path d="M253,224.7l-0.1-0.5h0c-0.2,0.3-0.6,0.6-1.2,0.6c-0.8,0-1.2-0.5-1.2-1.1c0-0.9,0.8-1.4,2.3-1.4v-0.1c0-0.3-0.1-0.9-0.9-0.9
		c-0.4,0-0.7,0.1-1,0.3l-0.2-0.5c0.3-0.2,0.8-0.3,1.2-0.3c1.2,0,1.4,0.8,1.4,1.5v1.4c0,0.3,0,0.6,0.1,0.9H253z M252.9,222.8
		c-0.7,0-1.6,0.1-1.6,0.8c0,0.4,0.3,0.7,0.6,0.7c0.5,0,0.8-0.3,0.9-0.6c0-0.1,0-0.1,0-0.2V222.8z"/>
	<path d="M257.9,219.2v4.6c0,0.3,0,0.7,0,1h-0.6l0-0.7h0c-0.2,0.4-0.7,0.7-1.3,0.7c-0.9,0-1.6-0.8-1.6-1.9c0-1.3,0.8-2,1.7-2
		c0.6,0,1,0.3,1.1,0.6h0v-2.3H257.9z M257.2,222.5c0-0.1,0-0.2,0-0.3c-0.1-0.4-0.5-0.8-1-0.8c-0.7,0-1.1,0.6-1.1,1.5
		c0,0.8,0.4,1.4,1.1,1.4c0.5,0,0.9-0.3,1-0.8c0-0.1,0-0.2,0-0.3V222.5z"/>
	<path d="M258.9,224c0.2,0.1,0.6,0.3,0.9,0.3c0.5,0,0.7-0.3,0.7-0.6c0-0.3-0.2-0.5-0.7-0.7c-0.7-0.2-1-0.6-1-1.1
		c0-0.6,0.5-1.1,1.3-1.1c0.4,0,0.7,0.1,0.9,0.2l-0.2,0.5c-0.1-0.1-0.4-0.2-0.8-0.2c-0.4,0-0.6,0.2-0.6,0.5c0,0.3,0.2,0.5,0.7,0.6
		c0.7,0.3,1,0.6,1,1.1c0,0.7-0.5,1.1-1.4,1.1c-0.4,0-0.8-0.1-1.1-0.3L258.9,224z"/>
</g>
<g>
	<path class="st5" d="M301,222.4c0-0.7-0.1-1.6-0.1-2.3h0c-0.2,0.6-0.4,1.3-0.7,2l-0.9,2.5h-0.5l-0.9-2.5c-0.2-0.7-0.5-1.4-0.6-2h0
		c0,0.7-0.1,1.5-0.1,2.3l-0.1,2.3h-0.6l0.4-5.3h0.9l0.9,2.5c0.2,0.6,0.4,1.2,0.5,1.8h0c0.1-0.5,0.3-1.1,0.6-1.8l0.9-2.5h0.9l0.3,5.3
		h-0.7L301,222.4z"/>
	<path class="st5" d="M306.3,222.8c0,1.4-1,2-1.9,2c-1,0-1.8-0.7-1.8-1.9c0-1.3,0.8-2,1.9-2C305.6,220.9,306.3,221.7,306.3,222.8z
		 M303.3,222.9c0,0.8,0.5,1.5,1.1,1.5c0.7,0,1.1-0.6,1.1-1.5c0-0.6-0.3-1.5-1.1-1.5C303.7,221.4,303.3,222.1,303.3,222.9z"/>
	<path class="st5" d="M307.2,222c0-0.4,0-0.7,0-1h0.6l0,0.6h0c0.2-0.4,0.6-0.7,1.2-0.7c0.5,0,1.3,0.3,1.3,1.6v2.3h-0.7v-2.2
		c0-0.6-0.2-1.1-0.9-1.1c-0.5,0-0.8,0.3-0.9,0.7c0,0.1,0,0.2,0,0.3v2.3h-0.7V222z"/>
	<path class="st5" d="M312.3,219.9v1.1h1v0.5h-1v2c0,0.5,0.1,0.7,0.5,0.7c0.2,0,0.3,0,0.4,0l0,0.5c-0.1,0.1-0.3,0.1-0.6,0.1
		c-0.3,0-0.6-0.1-0.7-0.3c-0.2-0.2-0.3-0.5-0.3-1v-2.1h-0.6V221h0.6v-0.9L312.3,219.9z"/>
	<path class="st5" d="M314.1,219.2h0.7v2.4h0c0.1-0.2,0.3-0.4,0.5-0.5c0.2-0.1,0.4-0.2,0.7-0.2c0.5,0,1.3,0.3,1.3,1.6v2.2h-0.7v-2.2
		c0-0.6-0.2-1.1-0.9-1.1c-0.4,0-0.8,0.3-0.9,0.7c0,0.1,0,0.2,0,0.3v2.3h-0.7V219.2z"/>
	<path class="st5" d="M318.4,219.2h0.7v5.5h-0.7V219.2z"/>
	<path class="st5" d="M320.5,221l0.8,2.2c0.1,0.3,0.2,0.5,0.2,0.8h0c0.1-0.2,0.1-0.5,0.2-0.8l0.7-2.2h0.7l-1,2.7
		c-0.5,1.3-0.8,2-1.3,2.4c-0.3,0.3-0.7,0.4-0.8,0.4l-0.2-0.6c0.2-0.1,0.4-0.2,0.6-0.3c0.2-0.1,0.4-0.4,0.6-0.8
		c0-0.1,0.1-0.1,0.1-0.2s0-0.1,0-0.2l-1.4-3.5H320.5z"/>
</g>
<g>
	<path class="st5" d="M361.5,224c0.2,0.1,0.6,0.3,1.1,0.3c0.9,0,1.2-0.6,1.1-1c0-0.7-0.6-1-1.3-1h-0.4v-0.5h0.4
		c0.5,0,1.1-0.3,1.1-0.9c0-0.4-0.3-0.8-0.9-0.8c-0.4,0-0.8,0.2-1,0.3l-0.2-0.5c0.3-0.2,0.8-0.4,1.3-0.4c1,0,1.5,0.6,1.5,1.2
		c0,0.5-0.3,1-0.9,1.2v0c0.6,0.1,1.1,0.6,1.1,1.3c0,0.8-0.6,1.5-1.8,1.5c-0.6,0-1.1-0.2-1.3-0.3L361.5,224z"/>
	<path class="st5" d="M368.4,220.3h-1.9l-0.2,1.3c0.1,0,0.2,0,0.4,0c0.4,0,0.8,0.1,1.1,0.3c0.4,0.2,0.7,0.7,0.7,1.3
		c0,1-0.8,1.7-1.9,1.7c-0.6,0-1-0.2-1.3-0.3l0.2-0.5c0.2,0.1,0.6,0.3,1.1,0.3c0.6,0,1.2-0.4,1.2-1.1c0-0.7-0.4-1.1-1.5-1.1
		c-0.3,0-0.5,0-0.7,0.1l0.3-2.4h2.4V220.3z"/>
	<path class="st5" d="M372.7,222.2c0,1.7-0.6,2.7-1.8,2.7c-1,0-1.7-0.9-1.7-2.6c0-1.7,0.7-2.6,1.8-2.6
		C372.1,219.6,372.7,220.5,372.7,222.2z M370,222.2c0,1.3,0.4,2.1,1,2.1c0.7,0,1-0.8,1-2.1c0-1.2-0.3-2.1-1-2.1
		C370.4,220.1,370,220.9,370,222.2z"/>
	<path class="st5" d="M373.1,225.7c0.2-0.5,0.4-1.3,0.5-1.9l0.8-0.1c-0.2,0.7-0.5,1.5-0.7,1.9L373.1,225.7z"/>
	<path class="st5" d="M378,220.3h-1.9l-0.2,1.3c0.1,0,0.2,0,0.4,0c0.4,0,0.8,0.1,1.1,0.3c0.4,0.2,0.7,0.7,0.7,1.3
		c0,1-0.8,1.7-1.9,1.7c-0.6,0-1-0.2-1.3-0.3l0.2-0.5c0.2,0.1,0.6,0.3,1.1,0.3c0.6,0,1.2-0.4,1.2-1.1c0-0.7-0.4-1.1-1.5-1.1
		c-0.3,0-0.5,0-0.7,0.1l0.3-2.4h2.4V220.3z"/>
	<path class="st5" d="M381.1,224.7v-1.4h-2.4v-0.5l2.3-3.2h0.7v3.2h0.7v0.5h-0.7v1.4H381.1z M381.1,222.8v-1.7c0-0.3,0-0.5,0-0.8h0
		c-0.2,0.3-0.3,0.5-0.4,0.7l-1.2,1.7v0H381.1z"/>
	<path class="st5" d="M383,224.7v-0.4l0.5-0.5c1.3-1.2,1.9-1.9,1.9-2.7c0-0.5-0.2-1-1-1c-0.5,0-0.8,0.2-1.1,0.4l-0.2-0.5
		c0.4-0.3,0.9-0.5,1.4-0.5c1.1,0,1.6,0.7,1.6,1.5c0,0.9-0.7,1.7-1.7,2.7l-0.4,0.4v0h2.3v0.6H383z"/>
</g>
<path class="st6" d="M400.3,225.9L400.3,225.9c-2.3,0-4.3-1.9-4.3-4.2v0c0-2.3,1.9-4.3,4.3-4.3l0,0c2.3,0,4.3,1.9,4.3,4.3v0
	C404.5,224,402.6,225.9,400.3,225.9z"/>
<g>
	<path class="st5" d="M442.2,224.7v-0.4l0.5-0.5c1.3-1.2,1.9-1.9,1.9-2.7c0-0.5-0.2-1-1-1c-0.5,0-0.8,0.2-1.1,0.4l-0.2-0.5
		c0.4-0.3,0.8-0.5,1.4-0.5c1.1,0,1.6,0.7,1.6,1.5c0,0.9-0.7,1.7-1.7,2.7l-0.4,0.4v0h2.3v0.6H442.2z"/>
	<path class="st5" d="M449.2,220.3h-1.9l-0.2,1.3c0.1,0,0.2,0,0.4,0c0.4,0,0.8,0.1,1.1,0.3c0.4,0.2,0.7,0.7,0.7,1.3
		c0,1-0.8,1.7-1.9,1.7c-0.6,0-1-0.2-1.3-0.3l0.2-0.5c0.2,0.1,0.6,0.3,1.1,0.3c0.6,0,1.2-0.4,1.2-1.1c0-0.7-0.4-1.1-1.5-1.1
		c-0.3,0-0.5,0-0.7,0.1l0.3-2.4h2.4V220.3z"/>
	<path class="st5" d="M453.6,222.2c0,1.7-0.6,2.7-1.8,2.7c-1,0-1.7-0.9-1.7-2.6c0-1.7,0.7-2.6,1.8-2.6
		C453,219.6,453.6,220.5,453.6,222.2z M450.8,222.2c0,1.3,0.4,2.1,1,2.1c0.7,0,1-0.8,1-2.1c0-1.2-0.3-2.1-1-2.1
		C451.3,220.1,450.8,220.9,450.8,222.2z"/>
	<path class="st5" d="M454,225.7c0.2-0.5,0.4-1.3,0.5-1.9l0.8-0.1c-0.2,0.7-0.5,1.5-0.7,1.9L454,225.7z"/>
	<path class="st5" d="M459.2,222.2c0,1.7-0.6,2.7-1.8,2.7c-1,0-1.7-0.9-1.7-2.6c0-1.7,0.7-2.6,1.8-2.6
		C458.6,219.6,459.2,220.5,459.2,222.2z M456.5,222.2c0,1.3,0.4,2.1,1,2.1c0.7,0,1-0.8,1-2.1c0-1.2-0.3-2.1-1-2.1
		C456.9,220.1,456.5,220.9,456.5,222.2z"/>
	<path class="st5" d="M463.2,222.2c0,1.7-0.6,2.7-1.8,2.7c-1,0-1.7-0.9-1.7-2.6c0-1.7,0.7-2.6,1.8-2.6
		C462.6,219.6,463.2,220.5,463.2,222.2z M460.5,222.2c0,1.3,0.4,2.1,1,2.1c0.7,0,1-0.8,1-2.1c0-1.2-0.3-2.1-1-2.1
		C460.9,220.1,460.5,220.9,460.5,222.2z"/>
	<path class="st5" d="M467.2,222.2c0,1.7-0.6,2.7-1.8,2.7c-1,0-1.7-0.9-1.7-2.6c0-1.7,0.7-2.6,1.8-2.6
		C466.6,219.6,467.2,220.5,467.2,222.2z M464.5,222.2c0,1.3,0.4,2.1,1,2.1c0.7,0,1-0.8,1-2.1c0-1.2-0.3-2.1-1-2.1
		C464.9,220.1,464.5,220.9,464.5,222.2z"/>
</g>
<rect x="569" y="217" class="st7" width="41.3" height="14"/>
<g>
	<path class="st1" d="M590.8,227.1v-1.8h-3v-0.6l2.9-4.1h0.9v4h0.9v0.7h-0.9v1.8H590.8z M590.8,224.6v-2.2c0-0.3,0-0.7,0-1h0
		c-0.2,0.4-0.4,0.7-0.5,1l-1.6,2.2v0H590.8z"/>
	<path class="st1" d="M597.6,223.8c0,2.2-0.8,3.4-2.3,3.4c-1.3,0-2.1-1.2-2.1-3.3c0-2.2,0.9-3.4,2.3-3.4
		C596.8,220.5,597.6,221.7,597.6,223.8z M594,223.9c0,1.7,0.5,2.6,1.3,2.6c0.9,0,1.3-1,1.3-2.7c0-1.6-0.4-2.6-1.3-2.6
		C594.6,221.2,594,222.1,594,223.9z"/>
	<path class="st1" d="M601.3,222.4c0,1.4-0.7,2-1.6,2c-0.8,0-1.5-0.6-1.5-2c0-1.3,0.7-2,1.6-2C600.7,220.5,601.3,221.2,601.3,222.4z
		 M598.9,222.5c0,0.8,0.3,1.5,0.8,1.5c0.6,0,0.8-0.6,0.8-1.5c0-0.8-0.2-1.4-0.8-1.4C599.2,221,598.9,221.7,598.9,222.5z
		 M599.7,227.2l3.8-6.7h0.6l-3.8,6.7H599.7z M605.5,225.1c0,1.4-0.7,2-1.5,2c-0.8,0-1.5-0.6-1.5-1.9c0-1.3,0.7-2,1.6-2
		C604.9,223.2,605.5,223.9,605.5,225.1z M603.2,225.2c0,0.8,0.3,1.5,0.8,1.5c0.6,0,0.8-0.6,0.8-1.5c0-0.8-0.2-1.4-0.8-1.4
		C603.5,223.7,603.2,224.3,603.2,225.2z"/>
</g>
<polyline class="st1" points="577.1,219.2 574.2,222.2 575.9,222.2 575.9,227.9 578.6,227.9 578.6,222 580.2,222 577.2,219.3 "/>
<rect x="526" y="219.9" class="st11" width="0.5" height="0.7"/>
<polygon class="st12" points="500.5,225.6 509.7,219.8 519.1,225.9 528.3,227.3 537.5,218.8 546.7,218.8 546.7,230.3 500.5,230.3 
	"/>
<polyline class="st13" points="500.9,225.9 510.1,220.1 519.5,226.2 528.6,226.6 537.9,219.1 547.1,219.1 "/>
<g>
	<path d="M187.1,226.1v-0.5l0.7-0.7c1.7-1.6,2.4-2.4,2.4-3.4c0-0.7-0.3-1.3-1.3-1.3c-0.6,0-1.1,0.3-1.4,0.5l-0.3-0.6
		c0.4-0.4,1.1-0.7,1.8-0.7c1.4,0,2,1,2,1.9c0,1.2-0.9,2.2-2.2,3.5l-0.5,0.5v0h2.9v0.7H187.1z"/>
</g>
<g id="icon-ExcelExport">
	<path class="st14" d="M597.3,102.9h-1.7h-0.4h-1.7v-0.9l-4.8,0.9v5.2l4.8,1.3v-0.9h1.7h0.4h1.7h0.4v-0.4v-4.8v-0.4H597.3z
		 M591.5,106.9L591,106l-0.6,0.8h-0.8l1-1.3l-0.9-1.3h0.9l0.5,0.7l0.5-0.7h0.8l-0.9,1.2l1,1.4H591.5z M595.2,108.2h-1.7v-0.9h1.7
		V108.2z M595.2,106.9h-1.7V106h1.7V106.9z M595.2,105.5h-1.7v-0.9h1.7V105.5z M595.2,104.2h-1.7v-0.9h1.7V104.2z M597.3,108.2h-1.7
		v-0.9h1.7V108.2z M597.3,106.9h-1.7V106h1.7V106.9z M597.3,105.5h-1.7v-0.9h1.7V105.5z M597.3,104.2h-1.7v-0.9h1.7V104.2z"/>
</g>
<g id="icon-PDFExport">
	<path class="st14" d="M612.9,107.1h-0.5v-0.5h0.5V107.1z M617.6,103v6.8h-6.3v-8.4h4.7L617.6,103z M613.5,106.1h-1.6v2.6h0.5v-1h1
		V106.1z M615.5,106.6H615v-0.5h-1v2.6h1v-0.5h0.5V106.6z M617.1,106.1h-1v2.6h0.5v-1h0.5v-0.5h-0.5v-0.5h0.5V106.1z M617.1,104
		h-1.6v-0.5H615v-1.6h-0.5v2.1h0.5v0.5h2.1V104z M614.5,106.6v1.6h0.5v-1.6H614.5z"/>
</g>
<g id="icon-Share">
	<path class="st15" d="M596.7,56.7c0,0.9-0.7,1.5-1.5,1.5c-0.8,0-1.5-0.7-1.5-1.5l-1.8-1.3c-0.2,0.1-0.5,0.2-0.8,0.2
		c-0.9,0-1.5-0.7-1.5-1.5s0.7-1.5,1.5-1.5c0.5,0,0.9,0.3,1.2,0.6l1.4-0.6c-0.1-0.2-0.1-0.3-0.1-0.5c0-0.9,0.7-1.5,1.5-1.5
		s1.5,0.7,1.5,1.5c0,0.9-0.7,1.5-1.5,1.5c-0.3,0-0.5-0.1-0.7-0.2l-1.8,0.8c0,0.2-0.1,0.4-0.1,0.5l1.5,1.1c0.3-0.4,0.7-0.6,1.2-0.6
		C596,55.2,596.7,55.8,596.7,56.7z"/>
</g>
<g id="icon-Settings">
	<path class="st15" d="M616.8,53.9l0.4-1.4c0-0.1,0-0.2-0.1-0.3l-1.3-0.7l-0.7-1.3c0,0,0-0.1-0.1-0.1h0l-1.4,0.4L612,50h0
		c-0.1,0-0.1,0-0.2,0.1l-0.7,1.3l-1.3,0.7c-0.1,0-0.1,0.1-0.1,0.2l0.4,1.4l-0.4,1.4c0,0.1,0,0.2,0.1,0.3l1.3,0.7l0.7,1.3
		c0,0.1,0.1,0.1,0.2,0.1h0l1.4-0.4l1.4,0.4h0c0.1,0,0.1,0,0.2-0.1l0.7-1.3l1.3-0.7c0.1,0,0.1-0.1,0.1-0.3L616.8,53.9z M613.5,56.1
		c-1.2,0-2.2-1-2.2-2.2c0-1.2,1-2.2,2.2-2.2s2.2,1,2.2,2.2C615.7,55.1,614.7,56.1,613.5,56.1z"/>
</g>
<g id="icon-LargeArrowDown">
	<path class="st16" d="M600.7,76.4c-0.1-0.1-0.1-0.3,0-0.4c0.1-0.1,0.3-0.1,0.4,0l6.3,6.3l6.3-6.3c0.1-0.1,0.3-0.1,0.3,0
		c0.1,0.1,0.1,0.1,0.1,0.2c0,0.1,0,0.1-0.1,0.2l-6.5,6.6c-0.1,0.1-0.1,0.1-0.2,0.1c-0.1,0-0.1,0-0.2-0.1L600.7,76.4"/>
</g>
</svg>
